<?xml version="1.0" encoding="utf-8"?>
<!-- Generator: Adobe Illustrator 17.0.0, SVG Export Plug-In . SVG Version: 6.00 Build 0)  -->
<!DOCTYPE svg PUBLIC "-//W3C//DTD SVG 1.1//EN" "http://www.w3.org/Graphics/SVG/1.1/DTD/svg11.dtd">
<svg version="1.1" id="Capa_1" xmlns="http://www.w3.org/2000/svg" xmlns:xlink="http://www.w3.org/1999/xlink" x="0px" y="0px"
	 width="64px" height="64px" viewBox="0 0 64 64" enable-background="new 0 0 64 64" xml:space="preserve">
<g>
	<path d="M23.379,22.619l12.668,15.078c0.138-0.232,0.384-0.454,0.806-0.614L20.674,7.113c-0.753-1.405-2.502-1.933-3.907-1.18
		c-1.405,0.753-1.933,2.502-1.18,3.907L23.379,22.619z"/>
	<path d="M54.054,46.911l-0.135-0.031c-0.064-0.015-0.128-0.027-0.192-0.039l-0.197-0.039c-1.449-0.308-2.93-0.465-4.401-0.465
		l-0.311,0.002c-1.824,0.027-3.515,0.187-5.114,0.467c0.962,1.104,2.385,2.865,0.475,4.537c-0.03,0.026-0.061,0.044-0.092,0.069
		c-0.504,0.414-1.035,0.631-1.582,0.631c-0.604,0-1.126-0.251-1.591-0.609c-0.466-0.36-0.876-0.828-1.255-1.261l-1.564-1.687
		c-0.943,0.419-1.858,0.895-2.746,1.444c-0.642,0.397-1.278,0.805-1.913,1.212c-0.814,0.522-1.656,1.062-2.504,1.574
		c-0.507,0.306-1.021,0.599-1.535,0.892c-0.437,0.249-0.874,0.497-1.331,0.77c-0.591,0.352-1.205,0.714-1.89,0.977
		c0.04,0.091,0.143,0.291,0.293,0.504c0.201,0.285,0.797,0.9,1.434,1.117c0.342,0.116,0.741,0.188,1.196,0.214
		c2.452,0.144,5.821-1.053,5.961-1.098c1.87-0.713,7.028-1.63,7.074-1.635c4.026-0.587,8.927-0.757,8.973-0.762l0.031-0.002
		c0.017-0.001,0.746-0.101,1.398-0.631c0.926-0.753,1.19-1.859,1.205-1.924c0.182-0.733,0.293-1.438,0.363-2.096
		c0.066-0.81,0.066-1.532,0.043-2.111C54.119,46.926,54.076,46.916,54.054,46.911z"/>
	<path d="M57.54,46.295c-0.123-0.32-0.277-0.584-0.277-0.584c-0.753-1.433-1.606-2.63-2.521-3.633
		c-0.236-0.259-0.406-0.384-0.504-0.384c-0.136,0-0.131,0.243,0.034,0.705c0.105,0.294,0.19,0.572,0.26,0.828
		c0.114,0.419,0.132,0.63,0.075,0.63c-0.053,0-0.17-0.184-0.335-0.556c-0.37-0.837-0.782-1.58-1.207-2.235
		c-0.457-0.705-1.448-1.627-2.186-2.027c-0.386-0.209-0.774-0.397-1.163-0.565c-0.221-0.095-0.392-0.141-0.512-0.141
		c-0.3,0-0.281,0.281,0.079,0.761c0.85,1.133,1.43,2.32,1.794,3.214c0.168,0.412,0.209,0.62,0.145,0.62
		c-0.057,0-0.198-0.166-0.408-0.501c-1.143-1.828-2.369-3.155-3.533-4.119c-0.647-0.536-1.895-1.023-2.732-1.092
		c-0.35-0.029-0.691-0.047-1.02-0.056c-0.03-0.001-0.059-0.001-0.087-0.001c-0.755,0-0.776,0.298-0.087,0.725
		c2.104,1.302,3.185,3.027,3.719,4.236c0.183,0.414,0.213,0.626,0.127,0.626c-0.074,0-0.234-0.156-0.456-0.473
		c-1.556-2.217-3.424-3.551-5.154-4.354c-0.637-0.296-1.422-0.455-1.894-0.455c-0.093,0-0.173,0.006-0.238,0.019
		c-0.454,0.087-0.71,0.158-0.71,0.158c-0.463,0.095-0.914,0.201-1.353,0.316c-0.024,0.006-0.041,0.014-0.063,0.021
		c-0.666,0.195-0.571,0.493,0.191,0.773c0.103,0.038,0.195,0.085,0.294,0.126c2.358,0.961,3.824,2.659,4.607,3.858
		c0.251,0.384,0.325,0.582,0.248,0.582c-0.064,0-0.232-0.137-0.49-0.418c-1.197-1.303-2.464-2.19-3.705-2.798
		c-0.225-0.11-0.448-0.211-0.671-0.303l1.418,1.688l3.735,4.445c1.889-0.373,3.833-0.559,5.841-0.589
		c0.109-0.002,0.217-0.002,0.326-0.002c1.553,0,3.091,0.164,4.609,0.487c0.136,0.029,0.272,0.05,0.408,0.082
		c0.157,0.037,1.208,0.269,2.124,0.509c0.361,0.095,0.677,0.147,0.905,0.147C57.462,46.563,57.611,46.48,57.54,46.295z"/>
	<path d="M31.422,41.287l-0.571-0.616c-0.329,0.306-0.134,0.546,0.54,0.612C31.401,41.284,31.411,41.286,31.422,41.287z"/>
	<path d="M30.391,50.039c-0.624-0.082-1.243-0.119-1.851-0.119c-1.647,0-3.208,0.269-4.561,0.63
		c-0.561,0.149-1.086,0.313-1.569,0.482c-0.793,0.277-1.723,1.086-2.148,1.716c-0.425,0.63-0.136,1.194,0.68,1.395
		c1.068,0.264,2.107,0.589,3.229,0.589c0.209,0,0.42-0.011,0.636-0.036c0.341-0.04,0.66-0.137,0.971-0.254
		c0.631-0.237,1.217-0.588,1.801-0.936c0.939-0.559,1.901-1.078,2.836-1.643c1.488-0.898,2.93-1.867,4.408-2.781
		c0.84-0.52,1.698-0.959,2.564-1.357l-5.076-5.486C31.549,42.095,30.824,42,30.159,42c-0.012,0-0.025,0-0.037,0
		c-0.839,0-2.043,0.485-2.676,1.018c-0.444,0.373-0.859,0.754-1.246,1.128c-0.525,0.508-0.44,0.819,0.139,0.819
		c0.087,0,0.184-0.006,0.293-0.02c0.487-0.064,0.956-0.092,1.406-0.092c3.464,0,5.806,1.713,6.619,2.417
		c0.063,0.052,0.116,0.099,0.16,0.138c0.046,0.041,0.054,0.061,0.031,0.061c-0.021,0-0.068-0.017-0.138-0.052
		c-0.089-0.044-0.177-0.086-0.264-0.126c-2.328-1.125-4.426-1.519-6.225-1.519c-1,0-1.907,0.122-2.709,0.307
		c-0.818,0.189-1.883,0.969-2.358,1.661c-0.27,0.394-0.5,0.756-0.692,1.076c-0.366,0.61-0.296,1.015,0.092,1.015
		c0.07,0,0.151-0.013,0.241-0.041c0.367-0.112,0.726-0.208,1.078-0.286c1.029-0.224,1.99-0.312,2.865-0.312
		c1.56,0,2.843,0.279,3.74,0.561c0.614,0.193,0.727,0.321,0.371,0.321C30.738,50.077,30.586,50.065,30.391,50.039z"/>
	<path d="M31.382,39.773l0.353,0.38l1.323,1.428l1.058,1.142l4.238,4.572l0.208,0.225l0.157,0.169l0.32,0.345l0.046,0.05
		l1.308,1.411c0.732,0.836,1.381,1.55,2.113,1.55c0.318,0,0.652-0.135,1.015-0.453c0.149-0.131,0.267-0.26,0.357-0.39
		c0.634-0.911-0.111-1.806-1.03-2.856l-0.265-0.315l-0.059-0.071l-0.302-0.36l-0.361-0.43l-0.284-0.339l-5.559-6.616l-0.481-0.573
		l-0.452-0.538l-8.248-9.817L9.717,7.913c-0.57-0.652-1.37-0.985-2.173-0.985c-0.675,0-1.352,0.235-1.9,0.714
		c-1.199,1.05-1.321,2.873-0.271,4.072l25.655,27.678L31.382,39.773z"/>
</g>
</svg>
