<?xml version="1.0" encoding="utf-8"?>
<!-- Generator: Adobe Illustrator 17.0.0, SVG Export Plug-In . SVG Version: 6.00 Build 0)  -->
<!DOCTYPE svg PUBLIC "-//W3C//DTD SVG 1.1//EN" "http://www.w3.org/Graphics/SVG/1.1/DTD/svg11.dtd">
<svg version="1.1" id="Layer_1" xmlns="http://www.w3.org/2000/svg" xmlns:xlink="http://www.w3.org/1999/xlink" x="0px" y="0px"
	 width="64px" height="64px" viewBox="0 0 64 64" enable-background="new 0 0 64 64" xml:space="preserve">
<path d="M54.083,14.482c-0.183-0.143-0.408-0.211-0.651-0.211c-0.554,0-1.207,0.351-1.688,0.966L40.621,30.103
	c-0.072-0.072-0.139-0.149-0.212-0.219c-0.05-0.047-0.107-0.08-0.162-0.115c-0.107-0.067-0.22-0.12-0.339-0.143
	c-0.017-0.05-0.046-0.096-0.071-0.143c-0.061-0.118-0.138-0.229-0.248-0.318c-0.282-0.23-0.574-0.448-0.875-0.655
	c-0.165-0.113-0.352-0.17-0.537-0.176c-0.086-0.164-0.217-0.306-0.389-0.405c-0.315-0.181-0.639-0.35-0.967-0.505
	c-0.181-0.086-0.375-0.112-0.559-0.088c-0.11-0.149-0.263-0.27-0.449-0.341c-0.34-0.128-0.687-0.243-1.039-0.345
	c-0.194-0.055-0.388-0.049-0.564,0.003c-0.134-0.129-0.304-0.223-0.499-0.263c-0.355-0.071-0.716-0.13-1.079-0.173
	c-0.197-0.022-0.389,0.014-0.555,0.094c-0.151-0.107-0.335-0.173-0.534-0.181c-0.365-0.015-0.73-0.016-1.094-0.001
	c-0.198,0.008-0.38,0.073-0.53,0.178c-0.166-0.08-0.361-0.118-0.556-0.094c-0.364,0.043-0.725,0.102-1.078,0.172
	c-0.196,0.039-0.368,0.133-0.501,0.263c-0.178-0.053-0.371-0.058-0.564-0.003c-0.352,0.101-0.697,0.216-1.035,0.342
	c-0.187,0.069-0.341,0.189-0.451,0.339c-0.186-0.023-0.379,0.001-0.561,0.087c-0.33,0.155-0.653,0.324-0.968,0.504
	c-0.174,0.099-0.306,0.242-0.391,0.406c-0.172,0.005-0.344,0.059-0.499,0.156l0.5,0.87l0.499,0.868
	c0.031-0.022,0.06-0.046,0.091-0.068c0.142-0.097,0.25-0.223,0.324-0.364c0.159-0.005,0.32-0.047,0.468-0.132
	c0.27-0.154,0.546-0.298,0.829-0.432c0.153-0.072,0.28-0.179,0.375-0.307c0.158,0.022,0.323,0.005,0.484-0.055
	c0.289-0.108,0.586-0.206,0.887-0.293c0.164-0.047,0.306-0.132,0.42-0.243c0.152,0.045,0.318,0.058,0.483,0.022
	c0.303-0.061,0.61-0.109,0.922-0.146c0.17-0.021,0.323-0.081,0.454-0.172c0.146,0.07,0.32,0.111,0.479,0.1
	c0.309-0.012,0.621-0.011,0.932,0.001c0.17,0.016,0.333-0.029,0.477-0.099c0.131,0.092,0.286,0.153,0.456,0.174
	c0.309,0.037,0.616,0.086,0.919,0.147c0.169,0.035,0.334,0.023,0.486-0.022c0.114,0.11,0.257,0.196,0.421,0.243
	c0.3,0.086,0.594,0.184,0.883,0.294c0.161,0.061,0.325,0.074,0.484,0.057c0.095,0.128,0.222,0.234,0.375,0.308
	c0.281,0.134,0.558,0.277,0.826,0.433c0.148,0.085,0.311,0.128,0.47,0.133c0.073,0.141,0.182,0.266,0.321,0.362
	c0.256,0.176,0.505,0.362,0.746,0.558c0.13,0.106,0.279,0.173,0.434,0.204c0.003,0.001,0.006,0.002,0.009,0.003
	c0.05,0.151,0.137,0.292,0.26,0.41c0.009,0.009,0.017,0.018,0.026,0.027c0.122,0.117,0.236,0.241,0.353,0.363
	c0.09,0.094,0.184,0.182,0.271,0.279c0.114,0.128,0.254,0.22,0.405,0.273c0.025,0.158,0.089,0.312,0.192,0.448
	c0.115,0.151,0.22,0.31,0.328,0.467c0.069,0.1,0.143,0.196,0.209,0.298c0.004,0.006,0.01,0.008,0.014,0.013
	c0.026,0.038,0.066,0.056,0.095,0.089c0.076,0.085,0.149,0.176,0.245,0.229c0,0.076,0.01,0.152,0.028,0.227
	c0.02,0.083,0.049,0.166,0.091,0.245c0.146,0.272,0.283,0.552,0.408,0.837c0.068,0.157,0.173,0.288,0.299,0.387
	c-0.024,0.159-0.013,0.326,0.045,0.488c0.103,0.292,0.192,0.589,0.271,0.891c0.044,0.165,0.126,0.31,0.234,0.427
	c-0.05,0.151-0.063,0.315-0.033,0.482c0.054,0.307,0.097,0.615,0.128,0.929c0.017,0.171,0.087,0.319,0.177,0.452
	c-0.02,0.038-0.047,0.072-0.062,0.113c-0.053,0.025-0.096,0.064-0.144,0.098c-0.154-0.069-0.32-0.113-0.503-0.089
	c-0.315,0.029-0.636,0.059-0.962,0.085c-0.175,0.015-0.336,0.074-0.472,0.165c-0.149-0.069-0.314-0.104-0.492-0.089l-0.967,0.066
	c-0.175,0.012-0.336,0.067-0.474,0.155c-0.148-0.071-0.321-0.106-0.493-0.098l-0.967,0.05c-0.176,0.009-0.34,0.062-0.479,0.149
	c-0.082-0.041-0.171-0.069-0.262-0.088c-0.073-0.014-0.147-0.024-0.223-0.018l-0.55,0.019l-0.424,0.015
	c-0.175,0.005-0.338,0.056-0.479,0.14c-0.121-0.064-0.249-0.09-0.401-0.104c-0.03-0.003-0.054-0.009-0.087-0.01l-0.66,0.014
	l-0.311,0.007c-0.177,0.003-0.341,0.052-0.483,0.135c-0.145-0.078-0.314-0.102-0.486-0.12l-0.969,0.007
	c-0.177,0.001-0.343,0.047-0.486,0.128c-0.143-0.08-0.308-0.126-0.482-0.127l-0.974-0.007c-0.181-0.008-0.343,0.043-0.486,0.121
	c-0.142-0.082-0.307-0.131-0.482-0.134l-0.97-0.021c-0.197,0.007-0.344,0.037-0.489,0.114c-0.142-0.084-0.306-0.135-0.482-0.141
	l-0.967-0.033c-0.168-0.017-0.343,0.032-0.49,0.106c-0.14-0.086-0.302-0.139-0.478-0.147l-0.969-0.049
	c-0.176-0.018-0.343,0.026-0.491,0.098c-0.139-0.089-0.302-0.145-0.479-0.154c-0.325-0.02-0.646-0.042-0.961-0.064
	c-0.181-0.014-0.343,0.02-0.491,0.089c-0.137-0.092-0.299-0.151-0.474-0.166l-0.964-0.084c-0.177-0.017-0.339,0.026-0.489,0.093
	c-0.048-0.034-0.092-0.073-0.146-0.099c-0.017-0.047-0.048-0.086-0.072-0.129c0.095-0.136,0.17-0.288,0.188-0.466
	c0.031-0.313,0.074-0.622,0.13-0.927c0.03-0.168,0.017-0.333-0.032-0.484c0.109-0.117,0.192-0.263,0.236-0.43
	c0.079-0.302,0.17-0.599,0.272-0.891c0.057-0.161,0.069-0.327,0.045-0.484c0.126-0.099,0.23-0.229,0.3-0.387
	c0.125-0.284,0.261-0.563,0.408-0.837c0.081-0.149,0.12-0.311,0.12-0.47c0.141-0.077,0.266-0.189,0.358-0.334
	c0.001-0.002,0.003-0.004,0.004-0.006c0.091-0.141,0.192-0.273,0.289-0.41l-0.579-0.913l-0.545-0.859
	c-0.081,0.057-0.156,0.126-0.22,0.208c-0.221,0.289-0.431,0.587-0.629,0.894c-0.107,0.167-0.159,0.354-0.16,0.538
	c-0.163,0.09-0.304,0.226-0.398,0.402c-0.071,0.131-0.13,0.269-0.197,0.403c-6.846,0.852-11.429,2.406-11.429,4.183
	c0,2.692,10.521,13.91,23.5,13.91s23.5-11.218,23.5-13.91c0-1.743-4.414-3.272-11.046-4.134c-0.071-0.144-0.135-0.293-0.211-0.434
	c-0.095-0.176-0.233-0.312-0.396-0.4c0-0.172-0.05-0.345-0.143-0.503c-0.007-0.012-0.01-0.026-0.017-0.038
	c-0.087-0.135-0.185-0.262-0.276-0.393c-0.099-0.142-0.195-0.287-0.298-0.424l11.993-14.651
	C54.605,16.049,54.682,14.951,54.083,14.482z M10.236,37.827c0-0.937,3.034-1.771,7.758-2.313c-0.094,0.282-0.186,0.565-0.262,0.854
	c-0.05,0.191-0.041,0.385,0.016,0.56c-0.127,0.136-0.217,0.309-0.253,0.505c-0.063,0.355-0.114,0.717-0.151,1.081
	c-0.022,0.213,0.041,0.407,0.138,0.58c-0.114,0.158-0.197,0.339-0.201,0.55l-0.001,0.184c0,0.076,0.005,0.152,0.01,0.227
	C12.973,39.512,10.236,38.716,10.236,37.827z M51.378,37.827c0,0.864-2.586,1.64-6.693,2.181c0.004-0.06,0.008-0.12,0.008-0.181
	l-0.001-0.197c-0.003-0.203-0.082-0.38-0.189-0.537c0.089-0.168,0.147-0.353,0.127-0.556c-0.035-0.364-0.086-0.726-0.149-1.081
	c-0.034-0.197-0.124-0.37-0.251-0.506c0.058-0.176,0.066-0.37,0.017-0.562c-0.073-0.281-0.163-0.555-0.254-0.829
	C48.499,36.102,51.378,36.915,51.378,37.827z"/>
<path d="M30.202,30.993c-0.412,0.004-0.745,0.182-0.745,0.383c0.001,0.201,0.334,0.351,0.745,0.347s0.745-0.16,0.745-0.361
	C30.948,31.16,30.615,30.989,30.202,30.993z"/>
<path d="M33.021,37.899c0.403,0.013,0.73-0.132,0.732-0.329c0.002-0.197-0.323-0.374-0.727-0.391
	c-0.403-0.017-0.732,0.136-0.733,0.336C32.292,37.717,32.618,37.886,33.021,37.899z"/>
<path d="M27.818,32.139c-0.409,0.04-0.737,0.241-0.735,0.438s0.333,0.318,0.741,0.281c0.408-0.036,0.739-0.219,0.737-0.419
	C28.559,32.24,28.226,32.1,27.818,32.139z"/>
<path d="M33.425,34.674c0.002-0.198-0.326-0.386-0.733-0.412c-0.407-0.026-0.738,0.124-0.739,0.325
	c-0.001,0.201,0.328,0.375,0.734,0.398C33.093,35.007,33.423,34.872,33.425,34.674z"/>
<path d="M34.762,33.897c0.406,0.023,0.736-0.112,0.738-0.31c0.002-0.198-0.326-0.386-0.733-0.412
	c-0.407-0.026-0.738,0.124-0.739,0.325C34.027,33.7,34.356,33.874,34.762,33.897z"/>
<path d="M29.484,37.135c-0.002,0.174,0.319,0.33,0.717,0.351c0.397,0.021,0.72-0.093,0.721-0.256s-0.319-0.323-0.715-0.355
	C29.81,36.843,29.486,36.96,29.484,37.135z"/>
<path d="M36.152,35.242c-0.188,0.034-0.32,0.113-0.322,0.229c-0.001,0.044,0.02,0.089,0.052,0.132
	c0.076,0.102,0.236,0.193,0.435,0.253c0.074,0.022,0.15,0.043,0.232,0.054c0.399,0.057,0.723-0.039,0.725-0.22
	c0.002-0.152-0.225-0.315-0.531-0.404c-0.06-0.018-0.119-0.037-0.185-0.048C36.405,35.214,36.27,35.221,36.152,35.242z"/>
<path d="M40.072,35.421c-0.127-0.081-0.304-0.147-0.499-0.18c-0.004-0.001-0.007-0.002-0.01-0.003
	c-0.399-0.064-0.726,0.044-0.729,0.233c-0.001,0.113,0.12,0.223,0.297,0.309c0.12,0.058,0.261,0.107,0.422,0.13
	c0.04,0.006,0.074,0.003,0.113,0.006c0.343,0.024,0.61-0.063,0.613-0.226C40.28,35.6,40.201,35.503,40.072,35.421z"/>
<path d="M27.558,30.254c-0.41,0.053-0.739,0.267-0.737,0.463c0.002,0.196,0.334,0.304,0.743,0.255
	c0.409-0.049,0.742-0.239,0.74-0.439S27.969,30.201,27.558,30.254z"/>
<path d="M27.839,34.842c0.002,0.199,0.331,0.338,0.738,0.32c0.406-0.018,0.735-0.19,0.735-0.391
	c-0.001-0.201-0.332-0.354-0.739-0.334S27.837,34.643,27.839,34.842z"/>
<path d="M39.115,37.392c-0.001,0.169,0.317,0.351,0.709,0.413c0.392,0.062,0.708-0.011,0.708-0.168c0-0.157-0.314-0.349-0.705-0.422
	C39.437,37.141,39.117,37.223,39.115,37.392z"/>
<path d="M35.635,38.03c-0.002,0.186,0.308,0.354,0.696,0.386c0.008,0.001,0.015,0.003,0.023,0.004
	c0.399,0.027,0.724-0.096,0.727-0.279c0.001-0.108-0.118-0.211-0.294-0.288c-0.12-0.052-0.262-0.094-0.424-0.108
	C35.965,37.711,35.638,37.84,35.635,38.03z"/>
<path d="M21.932,35.401c-0.39,0.095-0.703,0.313-0.702,0.478c0.001,0.164,0.317,0.222,0.708,0.138s0.709-0.289,0.707-0.464
	C22.643,35.378,22.323,35.306,21.932,35.401z"/>
<path d="M29.498,28.987c-0.403,0.019-0.729,0.205-0.728,0.4c0.001,0.195,0.327,0.327,0.73,0.31c0.402-0.017,0.729-0.179,0.729-0.375
	C30.228,29.125,29.901,28.969,29.498,28.987z"/>
<path d="M37.586,33.326c-0.08-0.039-0.168-0.071-0.263-0.097c-0.012-0.003-0.023-0.009-0.035-0.012
	c-0.078-0.02-0.15-0.027-0.22-0.033c-0.109-0.009-0.207-0.006-0.285,0.014c-0.121,0.031-0.199,0.093-0.2,0.18
	c-0.001,0.078,0.065,0.16,0.162,0.237c0.113,0.089,0.273,0.166,0.461,0.219c0.025,0.007,0.047,0.017,0.073,0.023
	c0.212,0.049,0.395,0.049,0.523,0.014c0.105-0.029,0.175-0.08,0.176-0.157c0-0.016-0.015-0.035-0.02-0.052
	C37.925,33.548,37.788,33.423,37.586,33.326z"/>
<path d="M37.282,31.429c-0.385-0.097-0.702-0.02-0.705,0.161c-0.002,0.181,0.311,0.391,0.696,0.479
	c0.386,0.089,0.697,0.029,0.7-0.143C37.975,31.754,37.667,31.526,37.282,31.429z"/>
<path d="M33.412,36.159c-0.002,0.193,0.316,0.366,0.708,0.393c0.181,0.013,0.342-0.01,0.468-0.054
	c0.147-0.051,0.244-0.131,0.245-0.233c0-0.021-0.017-0.042-0.025-0.062c-0.059-0.164-0.333-0.313-0.682-0.341
	C33.734,35.831,33.414,35.967,33.412,36.159z"/>
<path d="M31.237,33.744c0-0.196-0.322-0.363-0.72-0.364s-0.721,0.165-0.72,0.361c0,0.196,0.323,0.348,0.72,0.349
	C30.914,34.091,31.237,33.94,31.237,33.744z"/>
<path d="M21.936,37.541c-0.384,0.039-0.694,0.197-0.694,0.35s0.312,0.252,0.697,0.224c0.385-0.028,0.697-0.182,0.696-0.346
	C22.633,37.606,22.32,37.502,21.936,37.541z"/>
<path d="M32.709,31.754c-0.399-0.034-0.723,0.106-0.724,0.301c-0.001,0.195,0.322,0.37,0.72,0.401
	c0.398,0.032,0.721-0.09,0.723-0.282C33.428,31.982,33.108,31.788,32.709,31.754z"/>
<path d="M32.513,29.068c-0.402-0.04-0.729,0.099-0.73,0.294c-0.001,0.195,0.325,0.372,0.726,0.41
	c0.401,0.038,0.726-0.076,0.728-0.269C33.238,29.31,32.915,29.108,32.513,29.068z"/>
<path d="M34.762,31.713c0.395,0.068,0.714-0.018,0.717-0.203c0.002-0.186-0.314-0.407-0.709-0.479s-0.719,0.034-0.721,0.225
	S34.367,31.646,34.762,31.713z"/>
<path d="M26.129,35.382l-0.292-0.508l-0.965-1.679l-1.374-2.39l-0.49-0.853l-0.505-0.878l-10.65-18.527
	c-0.471-0.78-1.199-1.253-1.827-1.252c-0.2,0-0.391,0.048-0.559,0.15c-0.696,0.42-0.756,1.596-0.134,2.625l11.669,18.393
	l0.551,0.868l0.532,0.839l0.734,1.157l2.233,3.52c0.508,0.841,0.949,1.545,1.472,1.545c0.117,0,0.239-0.035,0.366-0.112
	c0.696-0.42,0.208-1.265-0.414-2.294L26.129,35.382z"/>
</svg>
