<?xml version="1.0" encoding="utf-8"?>
<!-- Generator: Adobe Illustrator 17.0.0, SVG Export Plug-In . SVG Version: 6.00 Build 0)  -->
<!DOCTYPE svg PUBLIC "-//W3C//DTD SVG 1.1//EN" "http://www.w3.org/Graphics/SVG/1.1/DTD/svg11.dtd">
<svg version="1.1" id="Layer_1" xmlns="http://www.w3.org/2000/svg" xmlns:xlink="http://www.w3.org/1999/xlink" x="0px" y="0px"
	 width="64px" height="64px" viewBox="0 0 64 64" enable-background="new 0 0 64 64" xml:space="preserve">
<path d="M15.511,35.25c-1.446,0.626-2.795,1.53-1.494,2.09c0.852,0.367,2.023,0.768,2.922,1.431
	c0.099-2.479,1.157-4.807,2.181-6.504l-2.068-1.643c0,0-1.494-0.515-1.253,1.092C16.042,33.321,16.957,34.623,15.511,35.25z"/>
<path d="M35.255,50.93c-0.037,0.169-0.032,0.348-0.042,0.512c-0.127-0.109-0.287-0.248-0.513-0.443
	c-0.212,0.334-0.387,0.61-0.562,0.887c0.021,0.08,0.043,0.159,0.064,0.238c0.434-0.026,0.88-0.005,1.293-0.111
	c0.107-0.028,0.142-0.451,0.154-0.695c0.007-0.15-0.087-0.308-0.158-0.451C35.483,50.849,35.264,50.891,35.255,50.93z"/>
<path d="M35.311,49.352c0.351-0.202,0.656-0.483,0.977-0.738c-0.164-0.144-0.328-0.288-0.372-0.327
	c-0.66-0.019-1.056,0.116-1.062,0.638C34.853,49.074,35.252,49.386,35.311,49.352z"/>
<path d="M40.839,54.024c0,0,0.106,0.095,0.196,0.248c0.089,0.152,0.179,0.359,0.204,0.575c0.016,0.111,0.015,0.224,0.004,0.332
	c1.706-0.426,3.458-1.919,4.341-5.857c0,0,0.144-0.78,0.18-1.968c-0.455,0.167-0.974,0.231-1.476,0.238
	c-0.677,0.012-1.331-0.09-1.811-0.188c-0.48-0.099-0.789-0.197-0.789-0.197s1.316,0.113,2.53-0.189
	c0.602-0.138,1.164-0.401,1.407-0.657c0.057-0.064,0.105-0.119,0.124-0.167c0.007-0.009,0.003-0.009,0.006-0.015
	c-0.024-0.637-0.089-1.332-0.214-2.06c-0.399,0.114-0.831,0.169-1.254,0.174c-0.677,0.012-1.331-0.09-1.811-0.188
	c-0.48-0.099-0.789-0.197-0.789-0.197s1.316,0.113,2.53-0.189c0.442-0.102,0.86-0.27,1.149-0.454
	c-0.313-1.319-0.842-2.687-1.734-3.918c-0.374-0.516-0.621-1.55-0.869-2.311c-2.123-2.353-5.406-6.777-4.838-11.138
	c0.08-0.613,0.172-1.225,0.265-1.837c0.165-1.092,0.335-2.221,0.426-3.33c0.16-1.956-0.31-3.167-1.357-4.989l-0.074-0.129
	c-0.427-0.742-0.961-1.68-1.171-2.632c-0.055,0.066-0.113,0.132-0.169,0.197c-0.277,0.289-0.587,0.529-0.826,0.694
	c-0.246,0.154-0.409,0.257-0.409,0.257s0.141-0.131,0.352-0.327c0.202-0.204,0.453-0.491,0.656-0.803
	c0.091-0.161,0.191-0.316,0.241-0.473c0.033-0.068,0.05-0.135,0.064-0.198c-0.003-0.07,0.007-0.139,0.009-0.208
	c-0.732-1.045-1.56-2.244-1.987-2.919c-0.454-0.719-1.146-2.032-2.386-2.032c-1.129,0-2.714,1.089-4.988,4.707
	c0,0-0.038,0.006-0.086,0.014c0.086,0.071,0.172,0.142,0.251,0.227c0.229,0.228,0.424,0.505,0.613,0.784
	c0.173,0.288,0.338,0.58,0.458,0.87c0.13,0.285,0.208,0.568,0.286,0.806c0.14,0.483,0.164,0.819,0.164,0.819
	s-0.054-0.066-0.135-0.188c-0.073-0.125-0.203-0.293-0.325-0.501c-0.255-0.408-0.594-0.952-0.934-1.496
	c-0.296-0.455-0.59-0.906-0.877-1.225c-0.401,0.084-0.951,0.223-1.519,0.426c0.025,0.042,0.048,0.078,0.074,0.123
	c0.222,0.391,0.49,0.922,0.697,1.476c0.214,0.552,0.367,1.127,0.461,1.566c0.093,0.44,0.111,0.749,0.111,0.749
	s-0.192-0.243-0.415-0.634c-0.222-0.39-0.489-0.922-0.697-1.476c-0.213-0.552-0.366-1.127-0.46-1.566
	c-0.011-0.052-0.018-0.096-0.027-0.145c-0.392,0.154-0.768,0.341-1.087,0.564c-0.003,0.43,0.077,0.965,0.159,1.503
	c0.108,0.632,0.215,1.264,0.296,1.739c0.047,0.237,0.061,0.449,0.09,0.591c0.02,0.145,0.024,0.23,0.024,0.23
	s-0.206-0.267-0.422-0.721c-0.1-0.229-0.23-0.493-0.322-0.792c-0.103-0.296-0.174-0.624-0.236-0.954
	c-0.045-0.334-0.083-0.671-0.063-0.993c0.005-0.214,0.041-0.412,0.087-0.6c-0.594-0.108-2.014-0.336-3.483-0.336
	c-2.395,0-4.903,0.607-4.102,3.332c1.105,3.757,1.786,4.727,2.079,5.653c0.071,0.025,0.15,0.047,0.241,0.053
	c0.161,0.034,0.346,0.024,0.531,0.024c0.371-0.022,0.745-0.099,1.022-0.173c0.275-0.086,0.458-0.144,0.458-0.144
	s-0.171,0.091-0.426,0.228c-0.262,0.126-0.624,0.277-1.012,0.375c-0.197,0.037-0.394,0.086-0.593,0.084
	c-0.038,0.004-0.074-0.002-0.111-0.002c0.026,0.148,0.044,0.304,0.052,0.479c0.072,1.518,0.723,5.783,4.12,7.301
	c0,0-0.964,1.042-1.948,2.671c-1.048,1.735-2.114,4.135-2.064,6.653c0.036,1.818,0.66,3.695,2.293,5.429
	c-0.016-0.023-0.028-0.041-0.028-0.041s0.076,0.035,0.208,0.095c0.322,0.147,0.639,0.266,0.961,0.361
	c-0.015-0.056-0.031-0.115-0.042-0.164c-0.041-0.158-0.059-0.268-0.059-0.267c-0.005-0.028,0.012-0.049,0.035-0.047
	c0.009,0.001,0.017,0.004,0.025,0.01c0,0,0.089,0.066,0.211,0.173c0.062,0.052,0.136,0.114,0.208,0.182
	c0.091,0.087,0.152,0.16,0.195,0.243c0.205,0.033,0.416,0.049,0.632,0.049c-0.007-0.026-0.014-0.045-0.022-0.076
	c-0.028-0.095-0.05-0.187-0.068-0.267c-0.041-0.158-0.059-0.268-0.059-0.267c-0.005-0.028,0.012-0.049,0.035-0.047
	c0.009,0.001,0.017,0.004,0.025,0.01c0,0,0.089,0.066,0.211,0.173c0.062,0.052,0.136,0.114,0.208,0.182
	c0.099,0.094,0.163,0.173,0.206,0.266c0.217-0.025,0.436-0.06,0.632-0.141c0.114-0.047,0.229-0.084,0.338-0.12
	c0.221-0.066,0.392-0.203,0.524-0.253c0.129-0.063,0.206-0.095,0.206-0.095s-0.046,0.069-0.134,0.184
	c-0.601,0.783-1.585,1.184-2.566,1.027c-0.256-0.041-0.54-0.114-0.774-0.227c-0.269-0.13-0.49-0.296-0.695-0.486
	c-0.174,0.889-0.949,8.56,2.548,10.253c0.027-0.206,0.107-0.405,0.191-0.552c0.089-0.153,0.193-0.25,0.193-0.25
	s0.079,0.119,0.129,0.288c0.048,0.17,0.084,0.392,0.055,0.607c-0.004,0.039-0.019,0.074-0.026,0.112
	c0.189,0.052,0.389,0.087,0.6,0.107c0-0.05-0.006-0.1,0.001-0.15c0.022-0.216,0.11-0.424,0.197-0.577
	c0.089-0.153,0.193-0.25,0.193-0.25s0.079,0.119,0.129,0.288c0.048,0.17,0.084,0.392,0.055,0.607
	c-0.003,0.031-0.015,0.059-0.021,0.089c0.889-0.035,1.943-0.329,3.208-0.987c0,0,1.487,0.219,3.668,0.219
	c1.575,0,3.512-0.114,5.513-0.508c0,0,1.2,0.705,2.737,0.839c-0.022-0.072-0.046-0.144-0.055-0.22
	c-0.032-0.215,0.001-0.438,0.048-0.608c0.048-0.17,0.125-0.29,0.125-0.29s0.106,0.095,0.196,0.248
	c0.089,0.152,0.179,0.359,0.204,0.575c0.016,0.108,0.016,0.217,0.006,0.322c0.217-0.002,0.439-0.018,0.663-0.049
	c-0.044-0.109-0.081-0.225-0.095-0.348c-0.032-0.215,0.001-0.438,0.048-0.608C40.762,54.144,40.839,54.024,40.839,54.024z
	 M37.467,41.547c0,0.535-0.434,0.968-0.969,0.968c-0.535,0-0.969-0.433-0.969-0.968c0-0.535,0.434-0.969,0.969-0.969
	C37.034,40.578,37.467,41.011,37.467,41.547z M33.833,45.166c0.928-0.304,1.849-0.637,2.789-0.899
	c0.427-0.119,0.711,0.163,0.781,0.591c0.078,0.478-0.293,0.857-0.936,0.911c0.113-0.336,0.205-0.609,0.33-0.98
	C35.744,44.908,34.869,45.617,33.833,45.166z M30.813,43.711c-0.265-0.058-0.541-0.068-0.815-0.099
	c-0.519,0.82-1.369,1.214-2.107,0.438c1.142-0.047,1.615-0.768,1.797-1.777c0.058,0.015,0.116,0.029,0.175,0.043
	c0.112,0.228,0.225,0.456,0.347,0.701c1.606,0.077,1.893,0.23,1.947,1.065c0.049,0.74-0.47,1.375-1.244,1.519
	c-0.476,0.089-0.879-0.24-1.071-0.811c0.398-0.042,0.837-0.019,1.213-0.16c0.182-0.068,0.247-0.448,0.364-0.687
	C31.218,43.863,31.022,43.758,30.813,43.711z M29.507,48.523c-0.283-0.331-0.494-0.577-0.781-0.912
	C29.577,47.574,29.707,47.723,29.507,48.523z M31.989,42.253c-0.67,0.026-1.364,0.066-2.007-0.082
	c-0.432-0.1-0.791-0.508-1.241-0.818c1.201,0,2.214-0.027,3.224,0.023c0.196,0.01,0.376,0.323,0.564,0.495
	C32.349,42.005,32.173,42.246,31.989,42.253z M32.319,31.296c1.165,0,2.109,0.944,2.109,2.109c0,0.599-0.252,1.136-0.653,1.52
	c-0.045-0.023-0.087-0.047-0.133-0.072c-0.152-0.1-0.347-0.169-0.504-0.313c-0.341-0.257-0.573-0.629-0.764-0.899
	c-0.156-0.305-0.26-0.509-0.26-0.509c-0.006-0.012-0.019-0.018-0.032-0.015c-0.016,0.003-0.026,0.019-0.022,0.035
	c0,0,0.05,0.223,0.125,0.559c0.111,0.336,0.301,0.786,0.627,1.157c0.115,0.166,0.272,0.301,0.431,0.426
	c-0.28,0.137-0.59,0.221-0.923,0.221c-1.165,0-2.109-0.944-2.109-2.109C30.21,32.24,31.154,31.296,32.319,31.296z M31.943,40.526
	c-0.313-0.499,0.372-0.599,0.72-0.669c0.214-0.043,0.491-0.034,0.686-0.138c0.082-0.043,0.626-0.633,0.437-0.684
	c-0.503-0.137-1.054-0.123-1.556-0.263c-0.065-0.452,1.296-0.882,1.62-1.013c0.209-0.085,0.507,0.05,0.765,0.084
	c-0.05,0.255-0.076,0.518-0.156,0.762c-0.066,0.2-0.198,0.378-0.3,0.566c0.052,0.052,0.104,0.103,0.155,0.155
	c0.047,0.047,0.9-0.274,1.036-0.273c0.185,0.001,1.043,0.294,0.661,0.649c-0.145,0.135-0.382,0.218-0.588,0.235
	c-0.553,0.046-0.899,0.022-1.009,0.618c-0.16,0.87,0.117,1.576-0.249,2.427c-0.073-0.013-0.146-0.026-0.219-0.038
	c-0.052-0.837-0.104-1.673-0.156-2.521C33.801,40.618,32.198,40.932,31.943,40.526z M35.509,43.921
	c0.039,0.156-0.141,0.526-0.237,0.532c-0.568,0.035-0.778-0.352-0.9-0.927C34.91,43.418,35.363,43.337,35.509,43.921z M34.97,20.4
	c0.008-0.002,0.016,0.002,0.018,0.01c0.002,0.007-0.002,0.014-0.008,0.017c0,0-0.727,0.317-1.404,0.708
	c-0.346,0.188-0.666,0.397-0.93,0.524c-0.265,0.125-0.469,0.182-0.469,0.182c-0.007,0.003-0.016,0-0.02-0.007
	c-0.002-0.005,0-0.012,0.002-0.016c0,0,0.127-0.156,0.36-0.35c0.118-0.094,0.255-0.208,0.419-0.303
	c0.161-0.097,0.353-0.159,0.536-0.237C34.201,20.595,34.97,20.4,34.97,20.4z M34.102,18.847c0.007-0.004,0.016-0.002,0.02,0.005
	c0.004,0.006,0.002,0.014-0.003,0.019c0,0-0.615,0.5-1.161,1.059c-0.282,0.274-0.535,0.561-0.754,0.755
	c-0.221,0.192-0.403,0.301-0.403,0.301c-0.006,0.005-0.016,0.005-0.021-0.002c-0.003-0.004-0.003-0.011-0.002-0.016
	c0,0,0.081-0.185,0.252-0.434c0.088-0.122,0.19-0.269,0.322-0.404c0.129-0.136,0.298-0.248,0.453-0.373
	C33.414,19.242,34.102,18.847,34.102,18.847z M30.326,19.089c0.005-0.117,0.083-0.211,0.128-0.323
	c0.109-0.22,0.317-0.388,0.494-0.563c0.21-0.144,0.404-0.3,0.627-0.376c0.109-0.041,0.2-0.102,0.312-0.113
	c0.105-0.019,0.203-0.037,0.295-0.054c0.178-0.036,0.319-0.003,0.421-0.01c0.101,0.003,0.159,0.004,0.159,0.004
	c0.016,0,0.029,0.014,0.028,0.03c0,0.014-0.01,0.025-0.023,0.028c0,0-0.056,0.013-0.155,0.036c-0.094,0.031-0.25,0.036-0.398,0.112
	c-0.149,0.073-0.318,0.135-0.48,0.262c-0.176,0.097-0.313,0.266-0.46,0.409c-0.109,0.182-0.227,0.345-0.292,0.523
	c-0.104,0.157-0.179,0.315-0.257,0.455c-0.094,0.136-0.118,0.27-0.182,0.361c-0.049,0.093-0.088,0.15-0.088,0.15
	c-0.008,0.016-0.027,0.023-0.043,0.015c-0.005-0.003-0.012-0.011-0.015-0.015c0,0-0.028-0.057-0.057-0.164
	c-0.027-0.105-0.079-0.268-0.06-0.458C30.295,19.302,30.31,19.199,30.326,19.089z M27.014,24.246
	c0.119-0.038,0.266-0.06,0.401-0.125c0.142-0.055,0.259-0.15,0.356-0.252c0.076-0.122,0.131-0.247,0.151-0.388
	c0.028-0.132,0.017-0.269,0.027-0.377c-0.005-0.083-0.01-0.152-0.014-0.214c-0.334-0.066-0.672-0.303-0.758-0.453
	c-0.126-0.22,0.34-0.159,0.74-0.388c0.4-0.23,0.584-0.661,0.71-0.442c0.093,0.162,0.125,0.629-0.022,0.958
	c0.049,0.047,0.092,0.092,0.152,0.132c0.113,0.086,0.24,0.135,0.38,0.168c0.14,0.004,0.29-0.011,0.43-0.073
	c0.141-0.049,0.261-0.137,0.372-0.195c0.204-0.151,0.34-0.251,0.34-0.251s-0.113,0.128-0.282,0.321
	c-0.099,0.082-0.201,0.198-0.345,0.287c-0.139,0.1-0.314,0.167-0.515,0.2c-0.201,0.003-0.398-0.031-0.564-0.107
	c-0.046-0.018-0.075-0.042-0.116-0.064c-0.007,0.045-0.014,0.092-0.022,0.145c-0.039,0.14-0.063,0.305-0.138,0.471
	c-0.063,0.171-0.179,0.335-0.323,0.474c-0.165,0.118-0.336,0.195-0.506,0.222c-0.164,0.038-0.319,0.029-0.447,0.04
	c-0.256-0.016-0.426-0.027-0.426-0.027S26.764,24.284,27.014,24.246z M26.467,30.829c0.296-0.059,0.616-0.122,0.955-0.19
	c0.332-0.097,0.681-0.194,1.041-0.281c0.36-0.088,0.731-0.174,1.111-0.245c0.378-0.077,0.742-0.223,1.118-0.324
	c0.377-0.101,0.753-0.201,1.124-0.3c0.356-0.137,0.711-0.259,1.061-0.372c0.353-0.108,0.695-0.21,1-0.351
	c0.309-0.133,0.617-0.238,0.903-0.34c0.53-0.259,1.028-0.432,1.34-0.6c0.336-0.148,0.53-0.255,0.53-0.255s-0.08,0.199-0.298,0.508
	c-0.206,0.332-0.569,0.719-1.035,1.18c-0.246,0.205-0.519,0.425-0.822,0.64c-0.295,0.232-0.624,0.444-0.988,0.617
	c-0.181,0.095-0.378,0.187-0.568,0.281c-0.2-0.047-0.405-0.079-0.619-0.079c-0.826,0-1.557,0.382-2.05,0.97
	c-0.115,0.026-0.229,0.059-0.346,0.072c-0.417,0.053-0.831,0.089-1.229,0.12c-0.399,0.031-0.784,0.049-1.147,0.06
	c-0.365-0.016-0.711-0.075-1.027-0.116c-1.268-0.17-2.074-0.439-2.074-0.439S25.278,31.069,26.467,30.829z M24.12,25.386
	c-0.265,0.124-0.63,0.24-0.994,0.389c-0.731,0.277-1.436,0.639-1.436,0.639c-0.007,0.004-0.016,0.001-0.02-0.006
	c-0.003-0.006-0.001-0.014,0.005-0.019c0,0,0.638-0.472,1.354-0.825c0.177-0.092,0.346-0.201,0.523-0.265
	c0.177-0.066,0.352-0.101,0.499-0.133c0.298-0.057,0.499-0.057,0.499-0.057c0.008,0,0.015,0.007,0.015,0.015
	c0,0.005-0.005,0.011-0.008,0.013C24.557,25.137,24.384,25.26,24.12,25.386z M21.356,22.416c0.066-0.078,0.123-0.211,0.258-0.332
	c0.068-0.063,0.141-0.132,0.219-0.205c0.076-0.083,0.179-0.12,0.277-0.183c0.194-0.134,0.435-0.197,0.675-0.28
	c0.246-0.038,0.505-0.105,0.746-0.062c0.117,0.031,0.239,0.024,0.336,0.09c0.098,0.052,0.19,0.101,0.275,0.147
	c0.163,0.098,0.264,0.237,0.332,0.321c0.068,0.087,0.098,0.143,0.098,0.143c0.008,0.016,0.002,0.035-0.014,0.043
	c-0.005,0.003-0.016,0.004-0.021,0.003c0,0-0.069-0.003-0.173-0.018c-0.111-0.002-0.233-0.062-0.398-0.068
	c-0.159-0.021-0.331-0.055-0.519-0.064c-0.182-0.054-0.383-0.057-0.594-0.077c-0.202,0.034-0.419,0.043-0.602,0.126
	c-0.199,0.055-0.349,0.153-0.497,0.23c-0.149,0.074-0.246,0.196-0.327,0.253c-0.077,0.066-0.121,0.103-0.121,0.103
	c-0.012,0.01-0.031,0.009-0.041-0.003c-0.009-0.01-0.009-0.025-0.002-0.036C21.265,22.545,21.298,22.498,21.356,22.416z
	 M20.973,24.114c-0.008,0.001-0.015-0.005-0.016-0.013c-0.001-0.007,0.004-0.014,0.011-0.016c0,0,0.766-0.207,1.562-0.275
	c0.198-0.021,0.396-0.061,0.584-0.056c0.189,0.003,0.364,0.034,0.513,0.058c0.298,0.055,0.486,0.129,0.486,0.129
	c0.008,0.003,0.011,0.011,0.008,0.019c-0.002,0.005-0.008,0.008-0.013,0.01c0,0-0.206,0.051-0.498,0.072
	c-0.292,0.019-0.674-0.006-1.067,0C21.761,24.033,20.973,24.114,20.973,24.114z M25.707,52.064
	c-0.135-0.063-0.304-0.181-0.533-0.263c-0.112-0.042-0.233-0.088-0.361-0.136c-0.121-0.061-0.273-0.057-0.411-0.099
	c-0.279-0.086-0.59-0.08-0.895-0.111c-0.304,0.031-0.615,0.024-0.895,0.11c-0.137,0.042-0.293,0.038-0.408,0.097
	c-0.126,0.046-0.244,0.09-0.354,0.131c-0.227,0.078-0.413,0.21-0.545,0.271c-0.133,0.069-0.214,0.102-0.214,0.102
	s0.049-0.073,0.143-0.189c0.109-0.103,0.201-0.305,0.427-0.448c0.113-0.076,0.235-0.159,0.364-0.247
	c0.129-0.102,0.283-0.143,0.442-0.204c0.16-0.05,0.321-0.136,0.501-0.141c0.177-0.02,0.358-0.04,0.538-0.061
	c0.18,0.02,0.361,0.041,0.538,0.06c0.18,0.004,0.341,0.09,0.501,0.14c0.158,0.061,0.316,0.103,0.439,0.202
	c0.126,0.086,0.246,0.167,0.356,0.242c0.224,0.139,0.333,0.357,0.439,0.457c0.095,0.117,0.141,0.188,0.141,0.188
	S25.839,52.132,25.707,52.064z M23.752,43.104c-5.277-3.108-1.952-9.036-1.952-9.036c1.373-2.53,2.747-1.084,5.783,2.819
	c0.228,0.293,0.395,0.579,0.534,0.86c-0.035,0.026-0.078,0.042-0.099,0.083c0,0-0.067,0.128-0.174,0.266
	c-0.097,0.155-0.262,0.344-0.448,0.527c-0.167,0.206-0.396,0.33-0.553,0.453c-0.164,0.117-0.273,0.195-0.273,0.195
	s0.125-0.046,0.313-0.115c0.185-0.076,0.461-0.144,0.687-0.303c0.241-0.134,0.478-0.288,0.641-0.437
	c0.064-0.05,0.101-0.084,0.141-0.12C29.363,41.488,25.145,43.737,23.752,43.104z M28.694,50.611
	c-0.21,0.168-0.589,0.156-0.893,0.158c-0.105,0.001-0.285-0.192-0.295-0.308c-0.008-0.1,0.157-0.261,0.28-0.316
	c0.268-0.119,0.567-0.167,0.837-0.281c0.27-0.115,0.522-0.277,0.781-0.418c0.046,0.042,0.091,0.084,0.137,0.125
	C29.265,49.925,29.035,50.338,28.694,50.611z M30.081,51.38c-0.07-0.003-0.141-0.005-0.211-0.008c0-0.339-0.008-0.678,0.002-1.017
	c0.011-0.344,0.041-0.688,0.064-1.058c-0.553-0.112-1.005-0.194-1.451-0.301c-0.147-0.036-0.278-0.139-0.599-0.307
	c0.585,0,0.984-0.054,1.362,0.012c0.601,0.104,0.806-0.13,0.768-0.696c-0.017-0.253-0.003-0.508-0.003-0.759
	c-0.4-0.198-0.794-0.393-1.188-0.587c0.016-0.046,0.032-0.093,0.047-0.139c0.283,0,0.581,0.055,0.843-0.017
	c0.224-0.062,0.408-0.27,0.59-0.399c0.136,0.138,0.273,0.334,0.459,0.451c0.176,0.11,0.403,0.136,0.608,0.199
	c0.004,0.069,0.007,0.138,0.011,0.208c-0.28,0.084-0.559,0.168-0.949,0.285c-0.023,0.397-0.049,0.865-0.076,1.361
	c0.814,0.152,1.614-0.358,2.446,0.195c-0.775,0.713-1.693,0.125-2.429,0.521C30.098,49.953,30.585,50.76,30.081,51.38z
	 M31.722,47.858c-0.231,0.194-0.463,0.388-0.694,0.582c-0.101-0.085-0.201-0.171-0.302-0.257c0.151-0.258,0.302-0.516,0.453-0.774
	C31.36,47.56,31.541,47.709,31.722,47.858z M33.373,51.257c-0.336,0.066-0.774,0.114-1.035-0.049
	c-0.634-0.398-1.19-0.919-1.778-1.39c0.047-0.071,0.094-0.142,0.14-0.213c0.351,0.198,0.683,0.45,1.057,0.579
	c0.435,0.15,0.911,0.178,1.363,0.287c0.201,0.048,0.387,0.162,0.581,0.246C33.594,50.906,33.513,51.229,33.373,51.257z
	 M36.139,51.817c-0.202,0.619-0.924,0.903-1.541,0.82c-0.334-0.045-0.683-0.133-0.821-0.439c-0.007-0.017-0.014-0.034-0.02-0.051
	c-0.396-1.153,0.995-1.392,1.704-1.461C36.109,50.623,36.318,51.271,36.139,51.817z M35.258,47.884
	c0.768-0.281,1.381-0.173,1.61,0.291c0.182,0.368-0.142,1.286-0.598,1.6c-0.513,0.353-1.082,0.479-1.632,0.111
	c-0.499-0.334-0.788-0.796-0.514-1.425c-0.398-0.045-0.731-0.082-1.083-0.123c0.65-0.485,1.21-0.888,1.743-1.323
	c0.049-0.039-0.068-0.283-0.085-0.343c0.258-0.175,0.491-0.333,0.724-0.491c-0.038-0.058-0.076-0.116-0.114-0.175
	c-0.428,0.023-0.766,0.121-0.968,0.623c-0.176,0.438-0.538,0.736-1.075,0.513c0.173-0.216,0.328-0.445,0.487-0.661
	c-0.739-0.244-0.878-0.619-0.56-1.476c0.222,0.543,0.389,0.951,0.588,1.437c0.176-0.236,0.36-0.454,0.585-0.614
	c0.357-0.254,0.899-0.269,1.367-0.323c0.064-0.007,0.247,0.381,0.241,0.582c-0.007,0.204-0.18,0.404-0.214,0.826
	c0.492-0.083,0.983-0.178,1.478-0.243c0.18-0.023,0.369,0.025,0.555,0.04c-0.066,0.158-0.091,0.36-0.206,0.466
	c-0.523,0.487-1.16,0.617-1.793,0.301c-0.538-0.269-0.746-0.059-0.978,0.483C35.027,47.926,35.149,47.923,35.258,47.884z
	 M40.223,50.737c-0.171,0.06-0.343,0.121-0.512,0.18c-0.176,0.046-0.323,0.146-0.476,0.224c-0.143,0.091-0.32,0.137-0.432,0.242
	c-0.127,0.094-0.248,0.182-0.359,0.264c-0.231,0.161-0.393,0.371-0.521,0.482c-0.125,0.121-0.203,0.185-0.203,0.185
	s0.037-0.094,0.112-0.251c0.096-0.146,0.147-0.398,0.362-0.623c0.105-0.117,0.218-0.244,0.339-0.379
	c0.115-0.15,0.278-0.239,0.438-0.354c0.165-0.103,0.32-0.244,0.52-0.303c0.192-0.075,0.388-0.15,0.583-0.226
	c0.207-0.031,0.415-0.063,0.619-0.094c0.203-0.049,0.408-0.003,0.602,0.004c0.194,0.02,0.384,0.017,0.552,0.089
	c0.168,0.056,0.327,0.109,0.473,0.158c0.294,0.085,0.485,0.289,0.637,0.366c0.145,0.099,0.22,0.161,0.22,0.161
	s-0.103-0.018-0.27-0.061c-0.17-0.035-0.393-0.126-0.677-0.155c-0.14-0.017-0.291-0.035-0.451-0.054
	c-0.156-0.036-0.328,0.011-0.499,0.004C40.935,50.581,40.581,50.681,40.223,50.737z"/>
<circle cx="23.843" cy="37.34" r="0.795"/>
<path d="M44.176,21.786c0.178-0.05,0.359-0.088,0.505-0.164c0.159-0.054,0.268-0.154,0.356-0.214
	c0.019-0.034,0.036-0.053,0.058-0.068c0.01,0.001,0.016-0.016,0.023-0.032c-0.002-0.071,0.001-0.142-0.002-0.213
	c-0.122-3.618-0.503-8.212-3.992-10.284c-0.578-0.343-1.439-0.583-2.262-0.583c-1.126,0-2.182,0.449-2.347,1.696
	c-0.001,0.008,0,0.016-0.001,0.023c-0.02,0.163-0.017,0.33-0.002,0.5c0.021,0.231,0.071,0.466,0.142,0.703
	c0.246,0.828,0.736,1.66,1.106,2.305c0.058,0.101,0.108,0.195,0.163,0.293c0.292,0.522,0.542,1.011,0.74,1.492
	c0.328,0.794,0.517,1.584,0.549,2.506c0.011,0.327,0.01,0.665-0.02,1.034c-0.017,0.213-0.045,0.425-0.067,0.637
	c-0.161,1.524-0.428,3.037-0.627,4.557c-0.03,0.227-0.022,0.455-0.03,0.683c-0.003,0.09-0.012,0.179-0.012,0.269
	c0,3.007,1.741,6.059,3.664,8.462c0.202,0.252,0.404,0.497,0.608,0.734c0.181,0.211,0.361,0.416,0.541,0.613
	c0.024,0.027,0.049,0.055,0.073,0.082c-0.434-0.474-0.172-2.627-0.093-3.366c0.126-1.174,0.4-2.325,0.686-3.469
	c0.472-1.885,0.868-3.796,1.063-5.727c-0.063,0.022-0.126,0.047-0.193,0.057c-0.191,0.054-0.394,0.059-0.594,0.076
	c-0.4,0.008-0.789-0.041-1.075-0.093c-0.283-0.064-0.471-0.107-0.471-0.107s0.192,0.007,0.48,0.017
	c0.287-0.002,0.668-0.027,1.032-0.104c0.178-0.05,0.359-0.088,0.505-0.164c0.159-0.054,0.268-0.154,0.356-0.214
	c0.003-0.005,0.005-0.005,0.008-0.009c0.048-0.603,0.075-1.208,0.077-1.815c-0.101,0.045-0.206,0.084-0.318,0.102
	c-0.191,0.054-0.394,0.059-0.594,0.076c-0.4,0.008-0.789-0.041-1.075-0.093c-0.283-0.064-0.471-0.107-0.471-0.107
	s0.192,0.007,0.48,0.017C43.432,21.888,43.813,21.862,44.176,21.786z M39.201,11.646c0.009,0.001,0.017,0.004,0.025,0.01
	c0,0.001,0.09,0.067,0.211,0.173c0.063,0.052,0.136,0.114,0.208,0.182c0.19,0.181,0.505,0.398,0.521,0.681
	c0.017,0.304-0.13,0.519-0.432,0.33c-0.268-0.167-0.367-0.508-0.442-0.796c-0.028-0.095-0.05-0.187-0.068-0.268
	c-0.041-0.156-0.059-0.267-0.059-0.267C39.162,11.665,39.178,11.644,39.201,11.646z M38.216,12.251
	c0.009,0.001,0.017,0.005,0.025,0.01c0,0,0.089,0.066,0.211,0.173c0.062,0.053,0.136,0.114,0.208,0.182
	c0.19,0.182,0.505,0.399,0.521,0.682c0.017,0.303-0.13,0.518-0.431,0.33c-0.268-0.167-0.367-0.507-0.442-0.796
	c-0.028-0.095-0.05-0.187-0.068-0.267c-0.041-0.158-0.059-0.268-0.059-0.267C38.176,12.27,38.193,12.25,38.216,12.251z"/>
</svg>
