<?xml version="1.0" encoding="utf-8"?>
<!-- Generator: Adobe Illustrator 17.0.0, SVG Export Plug-In . SVG Version: 6.00 Build 0)  -->
<!DOCTYPE svg PUBLIC "-//W3C//DTD SVG 1.1//EN" "http://www.w3.org/Graphics/SVG/1.1/DTD/svg11.dtd">
<svg version="1.1" id="Capa_1" xmlns="http://www.w3.org/2000/svg" xmlns:xlink="http://www.w3.org/1999/xlink" x="0px" y="0px"
	 width="64px" height="64px" viewBox="0 0 64 64" enable-background="new 0 0 64 64" xml:space="preserve">
<g>
	<path fill="#1D1D1B" d="M50.147,52.204c0,0-1.812,2.501,1.625,5.446l0.147,0.231C51.918,57.881,52.774,53.451,50.147,52.204z"/>
	<path fill="#1D1D1B" d="M17.553,26.075c0,0-2.355-0.685-2.934,1.728C14.619,27.803,16.279,28.429,17.553,26.075z"/>
	<path fill="#1D1D1B" d="M22.777,34.883c0,0-1.156,1.414,0.723,3.43C23.5,38.313,24.941,36.239,22.777,34.883z"/>
	<path fill="#1D1D1B" d="M17.967,55.761c0,0-3.029-0.88-3.773,2.222C14.194,57.983,16.329,58.788,17.967,55.761z"/>
	<path fill="#1D1D1B" d="M14.486,51.066c0,0,0.202,1.27,2.142,1.228C16.628,52.294,16.214,50.564,14.486,51.066z"/>
	<path fill="#1D1D1B" d="M17.121,50.242c0,0-0.897,0.509-0.319,1.954C16.802,52.196,17.984,51.398,17.121,50.242z"/>
	<path fill="#1D1D1B" d="M18.022,20.787c0,0,0.202,1.271,2.142,1.228C20.164,22.015,19.749,20.286,18.022,20.787z"/>
	<path fill="#1D1D1B" d="M20.656,19.964c0,0-0.897,0.509-0.318,1.954C20.338,21.917,21.52,21.119,20.656,19.964z"/>
	<path fill="#1D1D1B" d="M7.915,37.154c0,0,2.496,0.893,4.412-2.464C12.327,34.69,8.785,33.713,7.915,37.154z"/>
	<path fill="#1D1D1B" d="M31.331,38.917c0,0-1.652-0.48-2.058,1.212C29.273,40.129,30.437,40.568,31.331,38.917z"/>
	<path fill="#1D1D1B" d="M9.136,31.849c0,0-0.004,2.029,3.193,2.448C12.33,34.297,12.105,31.5,9.136,31.849z"/>
	<path fill="#1D1D1B" d="M46.198,42.743c0,0-0.003,1.95,2.911,2.352C49.109,45.095,48.904,42.407,46.198,42.743z"/>
	<path fill="#1D1D1B" d="M36.057,13.571c0,0,0.926-2.219-1.36-3.048C34.697,10.523,33.904,12.071,36.057,13.571z"/>
	<path fill="#1D1D1B" d="M44.425,33.742c0,0-1.342,1.828,1.116,4.207C45.541,37.949,47.195,35.285,44.425,33.742z"/>
	<path fill="#1D1D1B" d="M54.755,48.911c0,0,0.99-2.373-1.455-3.26C53.3,45.651,52.452,47.306,54.755,48.911z"/>
	<path fill="#1D1D1B" d="M56.728,45.418c0,0-1.644-1.731-3.314,0.014C53.413,45.432,54.502,46.772,56.728,45.418z"/>
	<path fill="#1D1D1B" d="M45.941,15.222c0,0-0.888,1.732,0.904,2.546C46.845,17.768,47.582,16.569,45.941,15.222z"/>
	<path fill="#1D1D1B" d="M44.245,17.74c0,0,1.138,1.404,2.501,0.187C46.746,17.926,46.004,16.851,44.245,17.74z"/>
	<path fill="#1D1D1B" d="M47.849,30.193c0,0,1.405-2.995-1.688-4.27C46.161,25.923,44.98,28.003,47.849,30.193z"/>
	<path fill="#1D1D1B" d="M50.579,25.814c0,0-2.017-2.316-4.26-0.167C46.319,25.647,47.643,27.43,50.579,25.814z"/>
	<path fill="#1D1D1B" d="M30.805,9.072c0,0,2.43,0.617,3.847-2.889C34.652,6.183,31.237,5.593,30.805,9.072z"/>
	<path fill="#1D1D1B" d="M30.483,8.989c0,0,1.435-1.832-1.012-4.351C29.471,4.638,27.69,7.318,30.483,8.989z"/>
	<path fill="#1D1D1B" d="M24.694,26.223c0,0-3.736,1.087-2.458,4.81C22.237,31.033,24.991,30.458,24.694,26.223z"/>
	<path fill="#1D1D1B" d="M29.898,46.294c0,0,1.451-1.287-0.177-3.719C29.72,42.575,27.858,44.505,29.898,46.294z"/>
	<path fill="#1D1D1B" d="M34.609,22.457c0,0,0.841-2.047-2.047-3.721C32.563,18.736,31.622,21.648,34.609,22.457z"/>
	<path fill="#1D1D1B" d="M53,41.838c0,0,0.928-0.983-0.351-2.571C52.649,39.267,51.474,40.721,53,41.838z"/>
	<path fill="#1D1D1B" d="M16.692,40.783c-0.606-0.02-1.051-0.643-1.619-0.602c-0.861,0.062-2.051-0.24-2.88-0.468
		c-0.021-0.006-0.036,0.027-0.015,0.036c0.357,0.154,0.703,0.311,1.077,0.419c0.555,0.159,1.317,0.157,1.774,0.547
		c0.328,0.28,0.657,0.502,1.03,0.644c-0.013,0.116,0.023,0.246,0.108,0.315c0.439,0.351,0.907,0.52,1.162,0.862
		c0.122,0.164,0.302,0.272,0.514,0.209c0.128-0.038,0.274-0.032,0.427,0.003c0.255,0.216,0.545,0.395,0.833,0.553
		c0.256,0.141,0.519,0.345,0.792,0.523c0.332,0.539,0.387,1.305,0.754,1.816c0.014,0.02,0.03,0.035,0.045,0.052
		c0,0.092-0.004,0.184-0.022,0.274c-0.062,0.311-0.182,0.61-0.202,0.93c-0.041,0.622,0.085,0.714,0.402,1.171
		c0.053,0.077,0.17,0.281,0.272,0.506c0.04,0.251,0.091,0.501,0.15,0.75l-0.012,0.02c-0.153,0.167-0.174,0.437,0,0.602
		c0.044,0.041,0.08,0.07,0.11,0.088c-0.064,0.145-0.133,0.344-0.079,0.494c0.239,0.663,0.31,1.357,0.423,2.049
		c0.003,0.018,0.008,0.034,0.013,0.051c0.01,0.121,0.019,0.243,0.026,0.365c0.002,0.026,0.008,0.049,0.013,0.074
		c-0.034,0.235-0.108,0.398-0.246,0.378c-0.026-0.004-0.05-0.004-0.073-0.004c-0.241-0.153-0.498-0.275-0.782-0.338
		c-0.021-0.005-0.036,0.026-0.015,0.036c0.211,0.104,0.411,0.226,0.612,0.349c-0.112,0.068-0.172,0.201-0.15,0.366l0.003,0.028
		c-0.02,0.002-0.039,0.005-0.057,0.009c-0.199-0.012-0.396-0.015-0.589-0.008c-0.199-0.121-0.405-0.209-0.624-0.3
		c-0.047-0.02-0.09-0.026-0.13-0.024l-0.003-0.004c-0.154-0.155-0.469-0.173-0.658-0.28c-0.043-0.024-0.087-0.057-0.133-0.091
		c-0.012-0.011-0.025-0.021-0.04-0.03c-0.089-0.064-0.182-0.125-0.28-0.126c-0.046-0.001-0.091-0.001-0.137-0.001
		c-0.372-0.135-0.721-0.338-1.12-0.378c-0.101-0.01-0.188,0.024-0.272,0.064c-0.192-0.045-0.42-0.001-0.61,0.002
		c-0.359,0.006-0.721,0.075-1.079,0.106c-0.057,0.005-0.057,0.084,0,0.089c0.226,0.02,0.454,0.054,0.682,0.078
		c0.003,0.051,0.054,0.103,0.114,0.092c0.291-0.051,0.48,0.099,0.749,0.099c0.129,0,0.222-0.035,0.324-0.047
		c0.125,0.06,0.253,0.111,0.384,0.157c0.002,0.073,0.043,0.139,0.141,0.152c0.1,0.014,0.228,0.008,0.358,0.006
		c0.057,0.026,0.115,0.051,0.173,0.075c0.112,0.077,0.234,0.14,0.367,0.188c0.082,0.03,0.144,0.009,0.187-0.035
		c0.105,0.081,0.208,0.166,0.318,0.243c0,0.05,0.006,0.098,0.017,0.145c-0.021,0.107,0.008,0.23,0.077,0.318
		c0.15,0.19,0.308,0.464,0.565,0.494c0.03,0.045,0.068,0.086,0.115,0.12c0.012,0.009,0.026,0.018,0.04,0.026
		c-0.024,0.025-0.048,0.05-0.073,0.074c-0.226,0.216-0.502,0.339-0.739,0.535c-0.203-0.06-0.386-0.044-0.633,0.01
		c-0.359,0.078-0.858-0.108-1.236-0.116c-0.058-0.001-0.057,0.085,0,0.089c0.573,0.043,1.283,0.289,1.789,0.584
		c0.022,0.013,0.046,0.02,0.069,0.026c-0.056,0.088-0.103,0.181-0.159,0.276c-0.115,0.193-0.13,0.393-0.183,0.605
		c-0.008,0.032,0.039,0.054,0.054,0.023c0.158-0.333,0.569-0.579,0.563-0.977c0.097-0.086,0.346-0.057,0.502-0.142
		c0.291-0.158,0.537-0.354,0.777-0.582l0.006-0.005c0.048-0.011,0.093-0.029,0.135-0.054c0.193,0.078,0.397,0.138,0.589,0.201
		c0.278,0.091,0.63,0.031,0.935,0.122c0.196,0.059,0.379,0.107,0.574,0.14c0.011,0.002,0.021,0.005,0.033,0.007l0-0.002
		c0.011,0.002,0.023,0.004,0.034,0.005c0.149,0.206,0.324,0.398,0.497,0.584c-0.151,0.205-0.164,0.529,0.11,0.712
		c0.218,0.146,0.435,0.309,0.648,0.474c0.226,0.267,0.427,0.548,0.427,0.917l0.003,0c0.001,0.081,0.031,0.145,0.073,0.195h2.861
		c-0.125-0.089-0.261-0.177-0.373-0.268c-0.019-0.015-0.035-0.032-0.053-0.048c-0.122-0.149-0.247-0.294-0.376-0.433
		c-0.433-0.646-0.583-1.451-1.231-1.957c-0.065-0.05-0.15-0.012-0.159,0.055c-0.025-0.01-0.051-0.017-0.078-0.022
		c-0.215-0.404-0.457-0.792-0.58-1.237c-0.032-0.115-0.106-0.201-0.202-0.254c-0.284-0.936-0.34-1.919-0.755-2.815
		c-0.251-0.542-0.465-1.442-0.902-1.967c-0.024-1.032-0.16-2.021-0.572-2.953c0.034-0.125,0.063-0.248,0.09-0.368l0.013-0.015
		c0.172-0.217,0.179-0.448,0.092-0.628c0.025-0.308,0.01-0.608-0.028-0.923l0.013-0.029c0.24-0.521,0.491-1.032,0.779-1.528
		c0.229-0.394,0.244-0.849,0.383-1.259c0.052-0.052,0.105-0.102,0.162-0.151c0.089-0.076,0.116-0.208,0.096-0.321
		c0.015-0.018,0.029-0.035,0.045-0.053c0.012-0.013-0.003-0.031-0.018-0.023c-0.013,0.006-0.024,0.013-0.036,0.019
		c-0.19-0.811,0.361-1.507,0.258-2.323c-0.008-0.064-0.027-0.119-0.054-0.168c0.452-0.251,0.901-0.508,1.344-0.774
		c0.236-0.142,0.452-0.31,0.667-0.48c0.284-0.224,0.618-0.813,1.046-0.792c0.041,0.002,0.092-0.032,0.099-0.075
		c0.061-0.424,0.074-0.786-0.065-1.195c-0.012-0.036-0.07-0.032-0.068,0.009c0.012,0.286,0.12,1.033-0.351,1.033
		c-0.2,0-0.534,0.495-0.68,0.627c-0.8,0.725-1.854,1.003-2.814,1.434c-0.237,0.106-0.16,0.477,0.07,0.534
		c0.318,0.079,0.13,0.131,0.037,0.504c-0.059,0.235-0.158,0.466-0.232,0.698c-0.107,0.336-0.101,0.663-0.011,0.987
		c-0.554,0.56-0.862,1.302-1.153,2.028c-0.034,0.085-0.07,0.172-0.106,0.259c-0.554-0.547-1.15-1.027-1.65-1.648
		c-0.351-0.436-0.795-0.971-1.046-1.466c-0.101-0.2-0.192-0.385-0.293-0.562c0.025-0.06,0.051-0.122,0.077-0.189
		c0.088-0.226-0.085-0.479-0.303-0.551c0.01-0.027,0.017-0.055,0.02-0.085c0.004-0.053,0.004-0.104,0.002-0.154
		c0.016-0.177,0.015-0.351-0.023-0.511c0.211-0.278,0.253-0.525,0.363-0.884c0.148-0.484,0.482-0.897,0.712-1.341
		c0.341-0.658,0.748-1.313,0.954-2.028c0.196-0.681,0.153-1.429,0.33-2.115c0.02,0.001,0.041,0.001,0.063-0.006
		c0.198-0.06,0.297-0.178,0.422-0.332c0.059-0.073,0.099-0.153,0.168-0.218c0.079-0.075,0.154-0.155,0.23-0.234
		c0.035-0.037-0.019-0.091-0.056-0.056c-0.117,0.111-0.239,0.265-0.399,0.307c-0.144,0.039-0.292,0.078-0.431,0.137
		c-0.07-0.213-0.219-0.431-0.267-0.62c-0.011-0.042-0.025-0.084-0.037-0.127c0.038-0.673,0.153-1.516-0.108-2.043
		c-0.157-0.317-0.345-0.432-0.663-0.584c-0.241-0.115-0.465-0.383-0.658-0.676c0.091-0.099,0.133-0.244,0.056-0.397
		c-0.034-0.068-0.063-0.116-0.092-0.156c0.033-0.072,0.044-0.155,0.025-0.225c-0.049-0.182-0.112-0.309-0.199-0.414
		c-0.005-0.034-0.01-0.067-0.014-0.102c0.117,0.031,0.225-0.057,0.199-0.188c-0.019-0.098-0.032-0.198-0.045-0.297
		c0.015-0.05,0.03-0.1,0.045-0.15c0.092-0.009,0.176-0.092,0.172-0.187c-0.016-0.357,0.023-0.731,0.102-1.106
		c0.012-0.052,0.025-0.104,0.034-0.156c0.217-0.9,0.665-1.791,1.193-2.433c0.027-0.033-0.008-0.088-0.048-0.062
		c-0.32,0.205-1.113,0.177-0.928,0.787c0.149,0.491-0.315,0.955-0.416,1.423c-0.002,0.008-0.005,0.022-0.009,0.04
		c-0.337,0.552-0.705,1.152-0.835,1.766l-0.018,0c-0.379,0.055-0.636-0.289-0.875-0.526c-0.177-0.175-0.445-0.306-0.681-0.377
		c-0.037-0.011-0.062,0.045-0.027,0.063c0.335,0.179,0.514,0.606,0.759,0.892c0.135,0.157,0.3,0.271,0.484,0.332
		c0.054,0.084,0.113,0.165,0.174,0.242c-0.006,0.222,0.025,0.455,0.18,0.59c0.002,0.011,0.005,0.021,0.008,0.032
		c-0.054,0.662,0.261,1.507,0.846,1.846c0.452,0.262,0.69,0.506,0.797,0.931c-0.019,0.009-0.034,0.024-0.03,0.049
		c0.056,0.431,0.042,0.862,0.001,1.295c-0.028,0.289,0.269,0.622,0.167,0.903c-0.229,0.632-0.318,1.259-0.433,1.927
		c-0.126,0.733-0.956,1.493-1.567,2.278c-0.046-0.017-0.091-0.034-0.14-0.046c-0.073-0.018-0.128-0.019-0.189-0.017l0,0
		c-0.135-0.116-0.342-0.105-0.457,0.007c-0.032-0.004-0.064-0.007-0.097-0.007c-0.015,0-0.029,0.002-0.043,0.005
		c-0.018-0.097-0.012-0.199,0.029-0.305c0.091-0.233-0.099-0.481-0.311-0.548c-0.898-0.285-1.363-1.278-2.278-1.54
		c-0.642-0.184-0.771-0.957-0.971-1.517c-0.191-0.533-0.428-1.054-0.692-1.554c-0.023-0.044-0.1-0.013-0.082,0.034
		c0.426,1.074,0.511,2.289,0.804,3.41c-0.055,0.017-0.11,0.032-0.166,0.04c-0.479,0.075-0.89,0.032-1.321-0.193
		c-0.104-0.055-0.18,0.086-0.09,0.154c0.427,0.321,0.891,0.43,1.411,0.515c0.453,0.074,0.882,0.209,1.34,0.224
		c0.475,0.349,0.886,0.812,1.406,1.106c-0.065,0.718,0.546,1.317,1.139,1.745c-0.089,0.409-0.058,0.847,0.145,1.176
		c-0.029,0.239-0.031,0.482-0.031,0.691c0,0.112,0.043,0.219,0.103,0.324c-0.038,0.043-0.079,0.085-0.127,0.126
		c-0.155,0.129-0.169,0.388-0.071,0.553c0.125,0.211,0.189,0.422,0.219,0.655l-0.018,0.01c-0.019,0.006-0.037,0.012-0.056,0.016
		c0.097-0.023-0.108-0.018-0.137-0.02c-0.02-0.001-0.039,0-0.059,0.003c-0.061-0.031-0.129-0.05-0.198-0.05
		c-0.179,0-0.323-0.055-0.455-0.133C17.173,41.126,16.953,40.792,16.692,40.783z M17.77,41.589l0,0.001l-0.007-0.003L17.77,41.589z"
		/>
	<path fill="#1D1D1B" d="M27.761,7.987c0.499,0.404,0.876,0.959,1.399,1.347c0.213,0.158,0.407,0.285,0.664,0.351
		c0.051,0.013,0.253,0.501,0.305,0.586c0.249,0.399,0.449,0.75,0.583,1.205c0.047,0.161,0.302,0.602,0.268,0.769
		c-0.146,0.731,0.476,1.609,0.206,2.29c-0.498-0.321-1.027-0.62-1.192-0.939c-0.01-0.018-0.03-0.028-0.05-0.029
		c-0.646-0.029-1.254-0.229-1.893-0.053c-0.049,0.014-0.029,0.089,0.021,0.076c0.578-0.147,1.076,0.042,1.649,0.078
		c0.271,0.017,0.4,0.547,0.552,0.722c0.267,0.308,0.563,0.589,0.842,0.886c0.221,0.236,0.405,0.56,0.709,0.672
		c0.086,0.117,0.188,0.224,0.304,0.312l0.002,0.006c0.37,0.529,0.871,0.945,1.371,1.347c0.303,0.244,0.398,0.66,0.813,0.876
		c0.048,0.54,0.245,1.005,0.575,1.466c0.034,0.048,0.069,0.098,0.105,0.148c0.042,0.333,0.276,0.583,0.622,0.738
		c0.038,0.091,0.08,0.167,0.133,0.231c-0.011,0.025-0.024,0.05-0.034,0.076c-0.096,0.213-0.071,0.488,0.16,0.61
		c0.521,0.275,0.556,0.833,0.917,1.241l0.012,0.015c-0.06,0.013-0.108,0.076-0.069,0.15c0.052,0.1,0.098,0.228,0.156,0.345
		c-0.703-0.37-1.528-0.781-2.27-0.981c-0.151-0.041-0.259,0.148-0.151,0.259c-0.232-0.237-1.299,0.32-1.561,0.461
		c-0.011,0.006-0.001,0.022,0.01,0.017c0.382-0.166,0.731-0.25,1.132-0.326c0.14-0.027,0.513-0.024,0.62-0.134
		c-0.24,0.244,0.68,0.554,0.877,0.64c0.661,0.29,1.301,0.568,1.885,0.943c0.008,0.027,0.016,0.052,0.024,0.08
		c0.037,0.117,0.105,0.199,0.188,0.252c0.021,0.081,0.059,0.157,0.113,0.222c0.011,0.226,0.157,0.457,0.37,0.529
		c-0.103,0.308,0.115,0.657,0.42,0.752c0.01,0.005,0.02,0.012,0.03,0.017c0.009,0.07,0.027,0.135,0.055,0.195
		c-0.023,0.439,0.206,0.764,0.578,0.95c0.036,0.106,0.089,0.209,0.153,0.311c-0.051,0.187-0.018,0.389,0.151,0.545
		c0.022,0.048,0.044,0.095,0.066,0.143c-0.042,0.267,0.023,0.529,0.274,0.673c0.691,0.397,0.322,1.095,0.58,1.67
		c0.121,0.27,0.305,0.487,0.475,0.726c-0.201,0.306-0.242,0.716-0.209,1.087c-0.112,0.229-0.143,0.434-0.113,0.659
		c-0.031,0.043-0.059,0.089-0.075,0.147c-0.031,0.112-0.03,0.263-0.024,0.413c-0.019,0.048-0.038,0.095-0.059,0.142
		c-0.418,0.42-0.864,0.824-1.105,1.382c-0.033-0.027-0.075-0.049-0.128-0.064c-0.132-0.036-0.275-0.007-0.396,0.049
		c-0.036,0.012-0.069,0.028-0.101,0.047c-0.13-0.073-0.266-0.085-0.387-0.05c-0.153-0.042-0.302-0.077-0.412-0.113
		c-0.051-0.017-0.093-0.046-0.132-0.079c-0.015-0.022-0.035-0.042-0.059-0.061c-0.166-0.208-0.204-0.573-0.266-0.814
		c-0.332-1.297-0.398-2.651-1.559-3.497c-0.029-0.021-0.058,0.023-0.036,0.047c1.062,1.178,0.876,2.649,1.223,4.038
		c-0.008-0.009-0.018-0.016-0.026-0.026c-0.046-0.062-0.112-0.1-0.192-0.078c-0.038,0.01-0.08,0.03-0.12,0.031
		c-0.044-0.001-0.076,0.016-0.098,0.042c-0.42,0.153-0.806-0.047-1.146-0.308c-0.014-0.011-0.028,0.011-0.018,0.023
		c0.359,0.438,0.722,0.726,1.289,0.519c0.051,0.153,0.153,0.266,0.283,0.348l-0.018-0.001c-0.02,0-0.034,0.028-0.017,0.042
		c0.402,0.346,0.648,0.81,0.947,1.24c-0.051,0.45-0.196,0.926-0.482,1.11c-0.021,0.014-0.04,0.029-0.057,0.045
		c-0.076,0.023-0.152,0.047-0.23,0.066c-0.167,0.04-0.255,0.192-0.268,0.352c-0.006,0.069-0.018,0.138-0.033,0.208
		c-0.081,0.013-0.163,0.019-0.246,0.015c-0.18-0.009-0.366,0.135-0.406,0.31c-0.094,0.411-0.207,0.793-0.49,1.12l-0.021,0.023
		c-0.13-0.12-0.318-0.175-0.514-0.137c-0.045,0.009-0.085,0.021-0.127,0.033c-0.01-0.052-0.02-0.103-0.026-0.155
		c-0.04-0.354-0.422-0.58-0.703-0.426c-0.019-0.063-0.031-0.127-0.034-0.194c-0.044-0.297-0.326-0.341-0.538-0.23
		c-0.02-0.013-0.043-0.023-0.065-0.032c-0.031-0.041-0.061-0.082-0.088-0.125c0.02-0.018,0.037-0.039,0.05-0.06
		c0.068-0.115,0.037-0.238-0.043-0.335c-0.047-0.057-0.11-0.108-0.182-0.128c-0.014-0.006-0.023-0.008-0.028-0.009
		c-0.012-0.011-0.025-0.023-0.036-0.035c-0.017-0.017-0.03-0.031-0.041-0.045c-0.008-0.023-0.016-0.046-0.024-0.07v-0.02
		c0.007-0.051-0.012-0.088-0.042-0.113c-0.103-0.335-0.187-0.684-0.296-1.004c-0.036-0.406,0.021-0.824,0.039-1.225
		c0.038-0.86,0.547-1.719,0.746-2.553c0.172-0.724,0.156-1.445-0.042-2.159c-0.017-0.062-0.111-0.036-0.096,0.026
		c0.29,1.172-0.094,2.186-0.5,3.196l-0.013,0.005c-0.076,0.05-0.142,0.108-0.204,0.17c-0.075-0.025-0.16-0.019-0.239,0.037
		c-0.112,0.079-0.197,0.173-0.259,0.28c-0.071-0.009-0.143-0.011-0.217-0.005c-0.163-0.071-0.399-0.064-0.592-0.02
		c-0.082-0.055-0.156-0.105-0.211-0.141c-0.576-0.372-1.173-0.782-1.544-1.368c-0.027-0.043-0.092-0.005-0.068,0.04
		c0.461,0.905,1.33,1.681,2.236,2.15c-0.001,0.071,0.02,0.139,0.067,0.189c-0.015,0.255,0.02,0.509-0.052,0.76
		c-0.046,0.159,0.037,0.342,0.177,0.425c0.024,0.261,0.077,0.479,0.288,0.726l0.025,0.021c0.05,0.22,0.122,0.434,0.218,0.638
		c0.029,0.063,0.058,0.124,0.086,0.186c0.044,0.269,0.107,0.53,0.21,0.771c-0.205,0.057-0.448,0.044-0.626,0.149
		c-0.421,0.25-1.086-0.486-1.29-0.767c-0.015-0.02-0.047-0.003-0.034,0.02c0.208,0.379,0.496,0.724,0.912,0.886
		c0.194,0.076,0.407,0.279,0.617,0.308l0.007,0.001c0.015,0.049,0.008,0.089,0.033,0.143c0.029,0.063,0.121,0.071,0.172,0.029
		c0.119,0.08,0.255,0.131,0.408,0.178c0.046,0.014,0.091,0.032,0.135,0.05c0.12,0.259,0.289,0.489,0.52,0.646
		c0.136,0.675,0.142,1.451,0.39,2.068c0.016,0.062,0.034,0.124,0.055,0.184c-0.077,0.148-0.172,0.276-0.28,0.401
		c-0.264-0.05-0.58,0.06-0.628,0.361c-0.113,0.714-0.558,1.274-0.861,1.899c-0.048,0.047-0.088,0.105-0.113,0.175
		c-0.009,0.026-0.016,0.052-0.024,0.078c-0.241,0.276-0.535,0.523-0.779,0.782c-0.206,0.22-0.428,0.419-0.337,0.75
		c0.014,0.05,0.016,0.096,0.014,0.142c-0.026,0.039-0.049,0.078-0.062,0.12c-0.031-0.02-0.064-0.035-0.098-0.045
		c-0.047-0.013-0.095-0.021-0.143-0.026c-0.337-0.289-0.696-0.539-1.106-0.742c-0.478-0.237-1.046,0.006-1.546-0.229
		c-0.029-0.014-0.05,0.024-0.025,0.043c0.185,0.138,0.35,0.202,0.575,0.253c0.132,0.03,0.247,0.076,0.356,0.13
		c-0.163-0.054-0.326-0.109-0.489-0.163c-0.018-0.006-0.026,0.023-0.008,0.029c0.216,0.072,0.433,0.144,0.649,0.216
		c0.111,0.068,0.219,0.144,0.333,0.232c0.056,0.043,0.11,0.086,0.164,0.128c0.179,0.351,0.473,0.581,0.871,0.688
		c0.088,0.553,0.408,1.1,0.819,1.568c0.078,0.258,0.152,0.524,0.219,0.796c-0.197,0.079-0.345,0.274-0.255,0.512
		c0.079,0.21,0.148,0.407,0.186,0.628c0.012,0.072,0.067,0.15,0.134,0.204c0.001,0.014,0.002,0.027,0.003,0.041
		c-0.151,0.052-0.241,0.221-0.202,0.381c0.075,0.308,0.206,0.608,0.375,0.887c-0.02,0.159-0.047,0.314-0.086,0.463
		c-0.013,0.049-0.014,0.099-0.009,0.147c-0.035,0.031-0.068,0.063-0.105,0.093c-0.156,0.126-0.174,0.351-0.14,0.531
		c0.111,0.594,0.133,1.183,0.144,1.786c0.003,0.167,0.092,0.366,0.253,0.44l0.028,0.015c-0.106,0.541-0.039,1.132-0.078,1.69
		c-0.121,0.048-0.236,0.12-0.358,0.208c-0.102,0.074-0.187,0.173-0.235,0.286h4.176c0.049-0.102,0.047-0.214-0.004-0.311
		c0.041-0.176,0.019-0.354-0.053-0.519l0.015-0.006c0.174-0.093,0.313-0.227,0.446-0.369c0.233,0.051,0.483-0.088,0.532-0.343
		c0.086-0.048,0.16-0.099,0.227-0.157c0.053-0.03,0.096-0.073,0.128-0.126c0.074-0.081,0.142-0.171,0.214-0.272
		c0.039-0.055,0.059-0.117,0.064-0.181c0.168-0.006,0.336-0.081,0.485-0.206c0.287-0.24,0.369-0.656,0.299-1.003
		c-0.002-0.01-0.006-0.02-0.01-0.03c0.144-0.056,0.254-0.2,0.269-0.369c0.005-0.059,0.009-0.114,0.013-0.169
		c0.23-0.14,0.429-0.341,0.603-0.564c0.467-0.088,0.651-0.56,0.788-1.055c0.048-0.075,0.09-0.156,0.129-0.243
		c0.149-0.003,0.288-0.088,0.326-0.283c0.073-0.274,0.124-0.555,0.176-0.836c0.061-0.151,0.107-0.301,0.134-0.446
		c0.092-0.091,0.172-0.198,0.251-0.305c0.049-0.067,0.099-0.138,0.147-0.214c0.323,0.068,0.619-0.291,0.55-0.618
		c-0.065-0.307,0.328-0.63,0.484-0.883c0.183-0.296,0.473-0.994,0.89-0.855c0.219,0.073,0.393-0.06,0.474-0.24
		c0.265,0.035,0.534,0.046,0.806,0.072c0.69,0.066,1.323,0.273,1.99,0.431c0.141,0.034,0.478,0.106,0.744,0.192
		c0.257,0.28,0.596,0.492,0.942,0.667c0,0.351,0.305,0.498,0.565,0.841c0.436,0.575,1.376,0.893,1.615,1.584
		c0.048,0.14,0.235,0.144,0.292,0.031c0.617,0.289,1.234,0.577,1.807,0.95l0.009-0.016c-0.653-0.391-1.247-0.868-1.881-1.291
		c-0.022-0.015-0.045-0.021-0.066-0.022c-0.527-0.726-1.95-1.203-1.631-2.178c0.044-0.133-0.024-0.324-0.156-0.384
		c-0.167-0.075-0.363-0.158-0.552-0.257c-0.108-0.184-0.273-0.301-0.467-0.389c0.331,0.067,0.655,0.194,0.997,0.212
		c0.152,0.008,0.333,0.029,0.482-0.02c0.087-0.022,0.172-0.052,0.254-0.089c0.033-0.023,0.059-0.041,0.081-0.056
		c0.098,0.2,0.367,0.114,0.432-0.059c0.075-0.364,0.302-0.606,0.684-0.727c0.07-0.01,0.12-0.08,0.141-0.141
		c0.087-0.253,0.151-0.446,0.174-0.676c0.364-0.041,0.585-0.36,1.036-0.372c0.153-0.004,0.275-0.099,0.321-0.244v0
		c0.095,0.001,0.192-0.004,0.303-0.011c0.206-0.014,0.348-0.188,0.3-0.394c-0.003-0.014-0.007-0.027-0.01-0.041
		c0.093-0.007,0.184-0.013,0.257-0.009c0.167,0.01,0.293-0.171,0.248-0.326c-0.088-0.305-0.17-0.608-0.24-0.917
		c0.064-0.255,0.021-0.454-0.125-0.598c0.042,0.011,0.089,0.007,0.124-0.015c0.087,0.041,0.216,0.015,0.214-0.119
		c-0.005-0.371-0.182-0.893,0.108-1.095c0.128,0.116,0.39-0.019,0.332-0.208l0.003,0.001c-0.21-0.579,0.706-0.525,0.988-0.883
		c0.104-0.132,0.02-0.451,0.325-0.37c0.22,0.058,0.426-0.062,0.604-0.166c0.011-0.006,0.001-0.023-0.01-0.017
		c-0.282,0.02-0.564,0.04-0.846,0.06c-0.018-0.005-0.034,0.009-0.035,0.027c-0.035,0.972-1.443,0.457-1.445,1.241
		c-0.093,0.038-0.187,0.076-0.28,0.114c-0.075,0.024-0.103,0.089-0.092,0.163c0.041,0.28,0.056,0.55,0.061,0.824
		c-0.027,0.029-0.047,0.052-0.062,0.073l-0.013-0.002c-0.031,0.004-0.062,0.008-0.092,0.011c-0.066,0.008-0.127,0.04-0.144,0.11
		c-0.132,0.522-0.046,1.048,0.061,1.569c-0.082-0.002-0.161-0.005-0.229-0.016c-0.236-0.037-0.391,0.127-0.359,0.359l0.004,0.026
		c-0.037,0-0.074,0.002-0.111,0c-0.122-0.019-0.279,0.007-0.337,0.137c-0.072,0.163-0.176,0.011-0.455,0.159
		c-0.275,0.146-0.641,0.298-0.807,0.581c-0.016,0.026-0.028,0.067-0.038,0.114c-0.039,0.007-0.077,0.013-0.116,0.019
		c-0.15-0.487-0.555-1.035-0.68-1.318c-0.009-0.021-0.044-0.006-0.036,0.015c0.145,0.41,0.148,0.74,0.074,1.152
		c-0.054,0.297-0.196,0.585-0.041,0.862c-0.121,0.031-0.246,0.047-0.311,0.058c-0.665,0.118-1.402,0.052-2.074,0.026
		c-0.297-0.011-0.595-0.041-0.892-0.029c-0.178,0.007-0.316,0.089-0.472,0.137c-0.244-0.022-0.474-0.072-0.616-0.306
		c-0.075-0.123-0.267-0.102-0.306,0.04c-0.004,0.012-0.006,0.025-0.01,0.037c-0.434-0.152-0.89-0.207-1.328-0.105
		c-0.075-0.015-0.144-0.025-0.191-0.034l-0.011-0.001c0.017-0.2,0.055-0.395,0.105-0.587c0.058-0.19,0.111-0.38,0.159-0.571
		c0.039-0.143,0.073-0.286,0.098-0.433c0.003-0.017,0.008-0.034,0.011-0.051l-0.003,0c0.005-0.031,0.011-0.061,0.015-0.092
		c0.012-0.103-0.024-0.183-0.084-0.24c0.005-0.017,0.011-0.034,0.013-0.052c0.02-0.138,0.045-0.278,0.073-0.419
		c0.048-0.117,0.073-0.235,0.075-0.361c0.024-0.112,0.049-0.224,0.074-0.336c0.119-0.026,0.23-0.097,0.279-0.202
		c0.193-0.409,0.464-0.72,0.493-1.086c0.06-0.031,0.115-0.077,0.159-0.147c0.071-0.111,0.141-0.222,0.212-0.333
		c0.05-0.079,0.063-0.166,0.051-0.248c0.224,0.079,0.509-0.09,0.564-0.314c0.032-0.13,0.106-0.253,0.189-0.374
		c0.273,0.02,0.575-0.172,0.484-0.539c0.001-0.016,0.003-0.032,0.004-0.048c0.212,0.026,0.401-0.154,0.422-0.376
		c0.034-0.353,0.441-0.615,0.772-0.613c0.159,0.001,0.249-0.123,0.267-0.267c0.004-0.03,0.007-0.057,0.008-0.081
		c0.401-0.281,0.686-0.746,1.252-0.666c0.578,0.082,0.926,0.398,1.537,0.273c0.076-0.016,0.06-0.143-0.018-0.136
		c-0.725,0.063-1.383-0.713-2.098-0.537c-0.296,0.073-0.728,0.274-0.951,0.562c-0.077,0.004-0.153,0.048-0.174,0.13
		c-0.021,0.068-0.037,0.137-0.051,0.206c-0.388,0.065-0.748,0.3-1.011,0.602c-0.089-0.081-0.228-0.114-0.349-0.088
		c-0.005-0.023-0.01-0.047-0.012-0.07c-0.015-0.184-0.036-0.519,0.024-0.722c0.046-0.011,0.087-0.045,0.104-0.108
		c0.12-0.45,0.31-0.703,0.65-1.004c0.327-0.289,0.508-0.696,0.681-1.086c0.283-0.636,0.376-1.289-0.117-1.824
		c-0.016-0.018-0.04,0.005-0.031,0.024c0.509,1.074-0.071,2.218-0.959,2.878c-0.32,0.238-0.534,0.464-0.54,0.84l-0.021,0.015
		c-0.272,0.27-0.357,0.517-0.396,0.902c-0.029,0.282-0.08,0.729,0.117,0.969c-0.132,0.119-0.299,0.276-0.469,0.432
		c-0.252-0.058-0.461,0.141-0.479,0.385l-0.006,0.02c-0.066,0.047-0.126,0.084-0.178,0.108c-0.294-0.773-0.839-1.581-1.079-1.891
		c-0.101-0.169-0.228-0.325-0.381-0.466c-0.057-0.066-0.115-0.131-0.173-0.195c0.031-0.141,0.045-0.281,0.048-0.444
		c0.002-0.122-0.071-0.268-0.185-0.322c-0.552-0.263-0.876-0.614-1.17-1.143c-0.061-0.109-0.176-0.169-0.295-0.173
		c0.062-0.1,0.127-0.199,0.191-0.299c0.203-0.14,0.277-0.391,0.274-0.637c0-0.027-0.004-0.054-0.009-0.08
		c0.133-0.037,0.252-0.125,0.321-0.283c0.148-0.334,0.254-1.21,0.57-1.392c0.171-0.098,0.303-0.305,0.291-0.508
		c-0.017-0.286-0.056-0.565-0.105-0.845c0-0.101-0.015-0.201-0.044-0.301c0.056-0.061,0.099-0.133,0.121-0.22
		c0.044-0.173,0.111-0.332,0.167-0.501c0.051-0.154,0.036-0.292-0.019-0.407c0.084-0.082,0.141-0.194,0.149-0.333
		c0.013-0.23,0.062-0.424,0.139-0.617c0.049-0.097,0.095-0.197,0.14-0.301c0.052-0.121,0.054-0.239,0.026-0.343
		c0.161-0.54,0.546-0.672,0.951-1.049c0.29-0.27,0.54-0.578,0.7-0.94c0.023-0.053,0.022-0.079,0.009-0.09
		c0.108-0.055,0.189-0.13,0.269-0.224c0.159-0.185,0.286-0.433,0.394-0.699c0.067-0.101,0.134-0.21,0.199-0.337
		c0.145-0.282,0.231-0.579,0.301-0.887c0.085-0.377,0.332-0.713,0.299-1.105l-0.001-0.003c0.028-0.105,0.053-0.211,0.071-0.315
		c0.169-0.291,0.341-0.603,0.304-0.924c-0.039-0.334,0.142-0.892,0.425-1.074c0.07-0.045,0.09-0.112,0.078-0.192
		c-0.147-0.964,0.643-0.675,0.946-1.19c0.261-0.446-0.214-1.209,0.086-1.584c0.647-0.807,2.108-0.629,3.019-0.893
		c0.069-0.02,0.039-0.116-0.029-0.105c-1.031,0.161-2.056,0.288-3.081,0.492c-0.021,0.004-0.04,0.009-0.06,0.015
		c0.003-0.376-0.125-0.789-0.142-1.133c-0.045-0.903,0.297-1.495,0.814-2.188c0.039-0.053-0.034-0.104-0.081-0.081
		c-0.669,0.312-0.891,1.17-1.045,1.827c-0.141,0.602-0.432,1.547-0.049,2.101c-0.103,0.511,0.133,1.236-0.329,1.608
		c-0.214,0.172-0.528,0.438-0.515,0.753c0.016,0.388,0.211,0.271-0.151,0.484c-0.038,0.022-0.076,0.064-0.084,0.109
		c-0.059,0.309-0.214,0.389-0.356,0.631c-0.061,0.105-0.107,0.22-0.145,0.339c-0.168-0.363-0.345-0.731-0.474-1.112
		c0.12-0.213,0.132-0.482,0.165-0.723c0.044-0.331,0.209-0.63,0.204-0.97c0-0.02-0.028-0.019-0.03,0
		c-0.035,0.322-0.185,0.644-0.412,0.871c-0.096,0.095-0.214,0.19-0.315,0.295c-0.093,0.001-0.183,0.042-0.229,0.138
		c-0.011,0.023-0.019,0.046-0.029,0.068c-0.077-0.003-0.15-0.002-0.225,0.008c-1.108-0.493-2.407-0.693-3.548-0.97
		c-0.031-0.008-0.044,0.039-0.013,0.048c1.127,0.315,2.216,0.694,3.315,1.068c0.003,0.024,0.01,0.047,0.025,0.064
		c0.094,0.105,0.305,0.13,0.365,0.22c0.059,0.089,0.139,0.129,0.237,0.138c0.124,0.271,0.28,0.525,0.415,0.795
		c0.151,0.302,0.283,0.613,0.425,0.919c-0.005,0.154-0.004,0.305-0.001,0.449c-0.068,0.295-0.143,0.589-0.238,0.883
		c-0.015,0.047-0.032,0.1-0.05,0.156c-0.053,0.144-0.105,0.282-0.16,0.4c-0.129,0.275-0.265,0.58-0.43,0.866
		c-0.145,0.178-0.315,0.307-0.516,0.335c-0.111,0.016-0.23,0.142-0.25,0.25c-0.006,0.032-0.014,0.062-0.023,0.093
		c-0.247,0.137-0.53,0.304-0.727,0.501c-0.091,0.092-0.135,0.239-0.192,0.353c-0.113,0.221-0.109,0.046-0.284,0.046
		c-0.297,0-0.654,0.251-0.949,0.53c-0.095-0.339-0.28-0.621-0.63-0.747c-0.248-0.867-0.598-1.815-1.236-2.445
		c-0.229-0.226-0.439-0.432-0.618-0.688c-0.034-0.073-0.078-0.142-0.132-0.205c-0.083-0.149-0.147-0.307-0.224-0.459
		c-0.014-0.129-0.068-0.252-0.166-0.337c-0.042-0.036-0.086-0.068-0.13-0.097c-0.162-0.219-0.285-0.41-0.517-0.593
		c-0.045-0.036-0.095-0.068-0.146-0.098c-0.087-0.197-0.209-0.385-0.405-0.574c-0.434-0.416-0.559-0.958-0.966-1.341
		c0.012-0.021,0.023-0.043,0.036-0.065c0.152-0.27,0-0.545-0.265-0.651c0.048,0.019-0.057-0.117-0.191-0.273
		c-0.056-0.086-0.123-0.171-0.198-0.263c-0.067-0.082-0.133-0.162-0.198-0.242c0.007-0.113-0.031-0.239-0.115-0.31
		c-0.22-0.185-0.209-0.484-0.201-0.745c0.011-0.009,0.021-0.018,0.029-0.029c0.131-0.176,0.227-0.46,0.278-0.695
		c0.063-0.09,0.064-0.209,0.014-0.304l0.004-0.023c0.208,0.009,0.393-0.163,0.331-0.387c-0.075-0.27-0.011-0.514,0.092-0.75
		c0.023-0.047,0.045-0.094,0.065-0.141c0.018-0.036,0.036-0.071,0.054-0.106c0.181,0.088,0.432-0.026,0.476-0.225
		c0.157-0.707,0.04-1.421,0.08-2.138c0.019-0.336,0.16-0.419,0.377-0.722c0.035-0.049-0.03-0.094-0.075-0.075
		c-0.164,0.074-0.217,0.169-0.331,0.313c0.041-0.052-0.482,0.319-0.448,0.286c-0.118,0.116-0.093,0.351-0.102,0.488
		c-0.031,0.444,0.001,0.838-0.068,1.253l-0.001,0.001c-0.016-0.004-0.032-0.009-0.05-0.014c-0.07-0.018-0.134-0.013-0.192,0.006
		c-0.037-0.266-0.147-0.519-0.336-0.73c-0.341-0.38-1.067-0.375-0.931-1.082c0.007-0.037-0.049-0.053-0.057-0.016
		c-0.079,0.349,0.051,0.57,0.327,0.782c0.413,0.318,0.34,0.575,0.368,1.043c0.018,0.296,0.08,0.514,0.317,0.673
		c-0.126,0.408-0.391,0.77-0.699,1.054c-0.059,0.033-0.118,0.07-0.177,0.117c-0.021,0.017-0.036,0.037-0.048,0.059
		c-0.059,0.008-0.121,0.015-0.182,0.019c-0.076-0.154-0.152-0.286-0.229-0.351c-0.318-0.267-0.674-0.527-1.055-0.711
		c-0.001-0.037-0.002-0.075-0.003-0.112c-0.004-0.183-0.168-0.399-0.373-0.373c-0.338,0.043-0.828-0.247-0.658-0.687
		c0.057-0.148-0.035-0.346-0.17-0.417c-0.126-0.067-0.188-0.155-0.254-0.233c-0.001-0.339-0.027-0.651-0.114-0.992
		c-0.076-0.299-0.157-0.586-0.195-0.894c-0.02-0.16,0.088-0.445-0.011-0.613c-0.217-0.371-0.317-0.741-0.487-1.129
		c-0.222-0.508-0.602-0.962-0.913-1.421c-0.054-0.08-0.127-0.102-0.22-0.089c-0.728,0.1-1.541-1.036-2.185-1.346
		C27.765,7.957,27.747,7.975,27.761,7.987z M31.649,48.021c-0.008-0.014-0.016-0.028-0.024-0.043l0.019,0.008
		c0.003,0.013,0.009,0.023,0.017,0.032L31.649,48.021z M34.343,53.828l-0.004-0.004c-0.007-0.019-0.015-0.038-0.022-0.056
		l0.001-0.004c0.009,0.02,0.017,0.04,0.026,0.06L34.343,53.828z M39.459,35.787l0.02,0.005l-0.008,0.02l-0.017,0.008
		C39.455,35.809,39.458,35.798,39.459,35.787z M34.588,51.487l-0.003-0.002l0.009-0.009L34.588,51.487z M41.538,39.082
		c-0.003,0.132,0.083,0.269,0.19,0.332c0.135,0.08,0.247,0.169,0.341,0.265c0.066,0.083,0.131,0.168,0.195,0.254
		c0.177,0.305,0.216,0.669,0.166,1.087c-0.015,0.121,0.082,0.287,0.193,0.336c0.347,0.154,0.448,0.551,0.542,0.945
		c-0.147,0.18-0.266,0.386-0.359,0.608c-0.332,0.486-0.58,1.02-0.589,1.507c-0.019,0.046-0.035,0.092-0.051,0.139l-0.007,0.015
		c-0.197,0.522-0.225,1.195-0.615,1.622c-0.14,0.153-0.161,0.329-0.107,0.477c-0.053,0.036-0.104,0.076-0.15,0.122
		c-0.082,0.022-0.143,0.078-0.179,0.151c-0.038,0.052-0.066,0.116-0.078,0.181c-0.022,0.014-0.044,0.027-0.065,0.045
		c-0.234,0.199-0.366,0.376-0.488,0.66c-0.173,0.403-0.507,0.571-0.709,0.916c-0.151,0.257-0.065,0.521-0.253,0.771
		c-0.311,0.414-0.668,0.673-1.086,0.969c-0.234,0.166-0.387,0.433-0.312,0.726c-0.313-0.044-0.617,0.152-0.725,0.44
		c-0.246,0.168-0.421,0.376-0.541,0.665c-0.023,0.056-0.027,0.11-0.019,0.161c-0.083,0.052-0.154,0.12-0.207,0.202
		c-0.085,0.032-0.16,0.079-0.223,0.139c-0.104,0.055-0.215,0.121-0.327,0.188c-0.132-0.086-0.266-0.167-0.403-0.25
		c-0.061-0.037-0.128-0.046-0.193-0.037c-0.12-0.11-0.326-0.059-0.391,0.07c-0.067-0.179-0.201-0.321-0.42-0.411
		c-0.045-0.247-0.032-0.526,0.073-0.753c0.024-0.052-0.044-0.092-0.077-0.045l-0.018,0.027c0.012-0.103,0.028-0.204,0.049-0.3
		c0.033-0.149-0.01-0.282-0.093-0.375c-0.047-0.307-0.097-0.613-0.149-0.918c0.05-0.093,0.085-0.186,0.106-0.281
		c0.092-0.074,0.165-0.173,0.203-0.283c0.209-0.598,0.17-1.048-0.095-1.611c-0.009-0.019-0.019-0.036-0.029-0.052l-0.003-0.008
		c-0.029-0.048-0.05-0.101-0.066-0.158c0.032-0.145,0.059-0.26,0.07-0.312c0.087-0.416,0.278-0.828,0.292-1.255
		c0.001-0.042-0.004-0.081-0.011-0.119c0.015-0.046,0.026-0.095,0.028-0.151c0.004-0.123,0.012-0.246,0.021-0.369
		c0.002-0.022,0.004-0.044,0.007-0.066c0.083-0.043,0.154-0.114,0.202-0.218c0.066-0.057,0.117-0.138,0.138-0.246
		c0.02-0.101,0.04-0.203,0.058-0.304c0.151-0.327,0.357-0.628,0.534-0.945c0.156-0.243,0.26-0.508,0.325-0.805
		c0.004-0.019,0.004-0.036,0.006-0.054c0.016,0.006,0.03,0.013,0.046,0.019c0.287,0.106,0.553-0.247,0.453-0.497
		c0.305-0.324,0.56-0.7,0.728-1.034c0.134-0.268,0.318-0.309,0.492-0.536c0.117-0.152,0.14-0.313,0.115-0.474
		c0.039-0.056,0.063-0.12,0.064-0.187c0.161,0.015,0.336-0.05,0.466-0.219c0.193-0.251,0.27-0.557,0.349-0.861
		c0.013-0.014,0.025-0.028,0.037-0.043c0.172-0.03,0.32-0.156,0.318-0.341c0.081-0.025,0.157-0.069,0.221-0.141
		c0.074-0.083,0.125-0.174,0.161-0.27c0.065-0.044,0.123-0.096,0.174-0.153C40.514,38.243,41.059,38.609,41.538,39.082z"/>
</g>
</svg>
