<?xml version="1.0" encoding="utf-8"?>
<!-- Generator: Adobe Illustrator 17.0.0, SVG Export Plug-In . SVG Version: 6.00 Build 0)  -->
<!DOCTYPE svg PUBLIC "-//W3C//DTD SVG 1.1//EN" "http://www.w3.org/Graphics/SVG/1.1/DTD/svg11.dtd">
<svg version="1.1" id="Capa_1" xmlns="http://www.w3.org/2000/svg" xmlns:xlink="http://www.w3.org/1999/xlink" x="0px" y="0px"
	 width="64px" height="64px" viewBox="0 0 64 64" enable-background="new 0 0 64 64" xml:space="preserve">
<g>
	<path d="M18.855,21.159c-0.284,0.383-0.574,0.829-0.655,1.282c-0.994,5.585-2.05,11.161-2.865,16.773
		c-0.325,2.236,0.468,4.164,2.774,5.302c3.167,1.562,6.162,3.48,9.362,4.961c3.765,1.742,7.751,2.45,11.953,1.837
		c5.182-0.756,7.792-3.32,7.663-9.779c-0.301-2.706-0.881-7.317-1.314-11.942c-0.668-7.134-4.496-11.533-11.296-13.551
		C29.899,14.682,21.718,17.295,18.855,21.159z M21.361,21.464c0.916-0.731,1.968-1.29,2.961-1.924
		c6.425-4.098,11.806-1.776,16.572,2.489c2.305,2.062,2.503,5.074,2.887,7.839c0.658,4.734,0.9,9.524,1.463,14.273
		c0.229,1.931-0.647,3.03-2.145,3.845c-3.119,1.698-6.458,2.05-9.871,1.257c-0.495-0.115-1.072-1.162-1.096-1.798
		c-0.115-3.052-0.017-6.111-0.083-9.166c-0.013-0.602-0.249-1.548-0.659-1.739c-3.05-1.42-6.147-2.739-9.364-4.124
		c-0.222-0.096-0.442-0.139-0.651-0.135c-0.208,0.004-0.404,0.055-0.578,0.148c-0.348,0.186-0.606,0.539-0.692,1.015
		c-0.431,2.377-0.844,4.652-1.252,6.905c-0.023,0.129-0.049,0.255-0.076,0.376c-0.043,0.192-0.089,0.371-0.138,0.534
		c-0.006,0.019-0.011,0.04-0.016,0.058c-0.05,0.163-0.101,0.303-0.152,0.422c-0.007,0.016-0.014,0.036-0.021,0.051
		c-0.057,0.127-0.113,0.22-0.164,0.269c-0.025,0.025-0.05,0.039-0.072,0.04c-0.181,0.015-0.524-0.439-0.765-1.014
		c-0.158-0.377-0.275-0.747-0.222-1.092c0.855-5.601,1.79-11.191,2.803-16.765C20.15,22.574,20.796,21.916,21.361,21.464z"/>
	<path d="M33.281,25.914c1.946,1.286,2.508,3.088,2.485,5.366c-0.034,3.328,0.209,6.66,0.388,9.988
		c0.065,1.213,0.182,2.423,0.299,3.634c0.094,0.963,0.275,1.745,0.411,1.745c0.136,0,0.348-0.186,0.471-0.416
		c0.081-0.15,0.144-0.3,0.138-0.446c-0.249-5.686-0.478-11.375-0.83-17.055c-0.08-1.292-1.156-2.593-2.467-3.293
		c-0.853-0.456-1.5-0.282-1.309,0.009C32.996,25.641,33.119,25.807,33.281,25.914z"/>
</g>
</svg>
