<?xml version="1.0" encoding="utf-8"?>
<!-- Generator: Adobe Illustrator 17.0.0, SVG Export Plug-In . SVG Version: 6.00 Build 0)  -->
<!DOCTYPE svg PUBLIC "-//W3C//DTD SVG 1.1//EN" "http://www.w3.org/Graphics/SVG/1.1/DTD/svg11.dtd">
<svg version="1.1" id="Layer_1" xmlns="http://www.w3.org/2000/svg" xmlns:xlink="http://www.w3.org/1999/xlink" x="0px" y="0px"
	 width="64px" height="64px" viewBox="0 0 64 64" enable-background="new 0 0 64 64" xml:space="preserve">
<path d="M38.97,36.047H26.602c-1.706,0-3.288,0.981-4.331,2.637h21.03C42.258,37.028,40.676,36.047,38.97,36.047z"/>
<path d="M30.061,24.115l0.159,0.124c1.473,1.155,2.122,1.53,2.391,1.652c0.105-0.051,0.211-0.1,0.325-0.147
	c1.908-1.065,3.798-2.334,4.969-4.341c-1.634-0.669-3.375-1.011-5.119-1.011c-1.745,0-3.488,0.342-5.123,1.013
	C28.218,22.396,29.016,23.309,30.061,24.115z"/>
<path d="M49.804,38.684L45.07,28.38c-0.5-1.087-1.107-2.058-1.791-2.923c-1.419,2.105-3.457,3.702-5.907,4.526
	c-1.35,0.455-2.998,0.705-4.638,0.705c-0.353,0-0.703-0.012-1.039-0.036c-3.13-0.222-6.469-1.831-8.712-4.201
	c-0.276-0.291-0.511-0.609-0.742-0.93c-0.663,0.849-1.252,1.799-1.739,2.859l-4.734,10.303l-2.246,4.888
	c-0.561,1.221-1.01,2.414-1.408,3.592h6.841l1.15-4.407c0-1.5,0.376-2.888,1.001-4.073c1.148-2.177,3.172-3.637,5.497-3.637H38.97h0
	c0.581,0,1.143,0.091,1.678,0.262s1.041,0.421,1.511,0.74c0.47,0.319,0.903,0.705,1.291,1.148c0.388,0.443,0.729,0.942,1.016,1.487
	c0.625,1.184,1.001,2.572,1.001,4.073l1.15,4.407h6.841c-0.398-1.178-0.847-2.37-1.408-3.592L49.804,38.684z"/>
<path d="M46.08,11.79c0,0-0.415-0.211-1.277-0.261c-0.421,0.015-0.975,0.028-1.59,0.311c-0.602,0.259-1.323,0.762-1.761,1.563
	c-1.246,2.281-1.152,5.08-2.168,7.474c-0.008,0.018-0.018,0.034-0.026,0.052c-0.068,0.156-0.148,0.299-0.222,0.448
	c-0.073,0.147-0.139,0.301-0.219,0.441c-1.24,2.186-3.236,3.599-5.451,4.83c-0.21,0.082-0.385,0.178-0.583,0.268
	c-0.032,0.014-0.07,0.021-0.114,0.021c-0.694,0-2.812-1.715-3.221-2.03c-1.097-0.845-2.036-1.87-2.702-3.088
	c-0.035-0.065-0.079-0.124-0.113-0.19c-0.041-0.08-0.067-0.17-0.104-0.252c-0.069-0.151-0.133-0.305-0.192-0.463
	c-0.896-2.401-0.726-5.536-2.224-7.512c-0.438-0.801-1.159-1.303-1.761-1.563c-0.61-0.281-1.161-0.295-1.581-0.31
	c-0.024-0.001-0.049-0.001-0.073-0.001c-0.404,0-0.836,0.115-1.209,0.253c1.694,0.962,2.129,2.251,1.832,4.123
	c-0.403,2.542-0.152,5.552,1.062,7.938c0.08,0.157,0.171,0.305,0.259,0.456c0.086,0.147,0.158,0.303,0.253,0.444
	c0.243,0.363,0.511,0.706,0.811,1.022c2.037,2.152,5.094,3.681,8.057,3.891c0.313,0.022,0.637,0.033,0.968,0.033
	c1.445,0,3.014-0.213,4.319-0.653c2.341-0.788,4.26-2.35,5.551-4.368c0.091-0.143,0.179-0.287,0.264-0.434
	c0.088-0.153,0.168-0.31,0.249-0.468c0.262-0.509,0.5-1.032,0.683-1.584c0.537-1.616,0.792-3.12,0.526-4.81
	c-0.286-1.817-0.49-3.682,0.772-4.909C45.358,12.21,45.682,11.983,46.08,11.79z"/>
</svg>
