<?xml version="1.0" encoding="utf-8"?>
<!-- Generator: Adobe Illustrator 17.0.0, SVG Export Plug-In . SVG Version: 6.00 Build 0)  -->
<!DOCTYPE svg PUBLIC "-//W3C//DTD SVG 1.1//EN" "http://www.w3.org/Graphics/SVG/1.1/DTD/svg11.dtd">
<svg version="1.1" id="Capa_1" xmlns="http://www.w3.org/2000/svg" xmlns:xlink="http://www.w3.org/1999/xlink" x="0px" y="0px"
	 width="64px" height="64px" viewBox="0 0 64 64" enable-background="new 0 0 64 64" xml:space="preserve">
<g>
	<path fill="#1D1D1B" d="M32,52.074c10.538,0,19.112-8.667,19.112-19.319c0-0.681-0.036-1.368-0.106-2.042
		c-0.096-0.923-0.763-1.52-1.698-1.52c-0.475,0-0.984,0.157-1.473,0.454c-1.233,0.749-1.801,3.204-2.401,5.804l-0.175,0.752
		c-0.74,3.153-2.527,5.715-5.312,7.614c-0.685,0.467-1.489,0.714-2.326,0.714c-1.401,0-2.73-0.699-3.306-1.74
		c-0.594-1.073-1.416-1.664-2.315-1.664s-1.722,0.591-2.315,1.664c-0.575,1.041-1.904,1.74-3.306,1.74
		c-0.837,0-1.643-0.247-2.327-0.715c-2.783-1.898-4.569-4.46-5.311-7.613l-0.175-0.752c-0.601-2.6-1.168-5.055-2.401-5.804
		c-0.488-0.297-0.998-0.454-1.473-0.454c-0.936,0-1.603,0.597-1.698,1.52c-0.07,0.674-0.106,1.361-0.106,2.042
		C12.888,43.408,21.462,52.074,32,52.074z"/>
	<path fill="#1D1D1B" d="M55.007,23.79c-0.186-0.681-1.05-1.026-2.568-1.026c-2.227,0-5.149-1.91-7.059-3.802
		c-3.594-3.563-8.346-5.525-13.38-5.525s-9.786,1.962-13.38,5.525c-1.909,1.892-4.832,3.802-7.059,3.802
		c-1.519,0-2.382,0.345-2.568,1.026c-0.173,0.636,0.31,1.294,1.434,1.956l17.011,10.02c1.227,0.723,2.848,1.12,4.562,1.12
		s3.336-0.397,4.562-1.12l17.012-10.02C54.698,25.083,55.18,24.425,55.007,23.79z M21.536,23.868c0.226-0.282,0.69-0.438,1.31-0.438
		c0.96,0,2.137,0.37,3.146,0.99c0.685,0.419,1.371,0.642,1.986,0.642c1.367,0,2.251-1.044,2.251-2.659
		c0-2.106,0.503-3.246,0.671-3.355c0.715-0.056,1.508-0.042,2.113-0.017c0.247,0.154,0.688,1.412,0.688,3.367
		c0,1.621,0.896,2.669,2.282,2.669c0.618,0,1.309-0.219,1.997-0.634c1.024-0.617,2.213-0.985,3.18-0.985
		c0.624,0,1.091,0.155,1.313,0.436c0.109,0.136,0.141,0.32,0.097,0.562c-0.174,0.953-1.399,2.276-2.98,3.218l-3.512,2.092
		c-1.074,0.641-2.515,0.993-4.055,0.993c-1.53,0-2.962-0.349-4.031-0.983l-3.576-2.119c-1.58-0.936-2.805-2.255-2.979-3.208
		C21.393,24.193,21.425,24.007,21.536,23.868z"/>
</g>
</svg>
