<?xml version="1.0" encoding="utf-8"?>
<!-- Generator: Adobe Illustrator 17.0.0, SVG Export Plug-In . SVG Version: 6.00 Build 0)  -->
<!DOCTYPE svg PUBLIC "-//W3C//DTD SVG 1.1//EN" "http://www.w3.org/Graphics/SVG/1.1/DTD/svg11.dtd">
<svg version="1.1" id="Capa_1" xmlns="http://www.w3.org/2000/svg" xmlns:xlink="http://www.w3.org/1999/xlink" x="0px" y="0px"
	 width="64px" height="64px" viewBox="0 0 64 64" enable-background="new 0 0 64 64" xml:space="preserve">
<g>
	<path d="M43.667,10h-1.449L29.746,6.125L39.765,10H20.194l9.551-3.875L17.869,10h-1.536C15.597,10,15,10.597,15,11.333v0.333
		C15,12.403,15.597,13,16.333,13h1.685c0.057-0.49,0.269-1,0.732-1h22c0.463,0,1.023,0.51,1.194,1h1.723
		C44.403,13,45,12.403,45,11.667v-0.333C45,10.597,44.403,10,43.667,10z"/>
	<path d="M15,54.667C15,55.403,15.597,56,16.333,56h27.333C44.403,56,45,55.403,45,54.667v-0.333C45,53.597,44.403,53,43.667,53H42
		v0.277C42,53.829,41.302,54,40.75,54H40.5H18.75C18.198,54,18,53.829,18,53.277V53h-1.667C15.597,53,15,53.597,15,54.333V54.667z"
		/>
	<path d="M19,13v40h22V13.5c0-0.276-0.224-0.5-0.5-0.5H19z M29.05,36.674c-0.449,0.214-0.774,0.575-1.121,0.914
		c-0.691,0.674-1.417,1.309-2.26,1.791c-0.304,0.174-0.629,0.31-0.947,0.458c-0.079,0.037-0.166,0.074-0.281,0.043
		c0.023-0.121,0.093-0.19,0.161-0.255c0.219-0.209,0.444-0.413,0.663-0.622c0.623-0.596,1.197-1.237,1.705-1.935
		c0.131-0.18,0.242-0.377,0.35-0.573c0.103-0.187,0.16-0.389,0.16-0.608c0-0.199,0.072-0.261,0.268-0.252
		c0.06,0.003,0.121,0.013,0.178,0.03c0.396,0.118,0.74,0.329,1.049,0.599c0.054,0.047,0.102,0.105,0.138,0.167
		C29.177,36.537,29.161,36.621,29.05,36.674z M34.742,39.16c-0.06,0.239-0.225,0.312-0.439,0.19
		c-0.135-0.077-0.266-0.173-0.375-0.283c-0.643-0.651-1.282-1.306-1.914-1.968c-0.242-0.254-0.466-0.526-0.688-0.798
		c-0.079-0.097-0.142-0.212-0.194-0.327c-0.053-0.119,0.008-0.195,0.136-0.173c0.119,0.02,0.235,0.057,0.35,0.093
		c0.608,0.188,1.203,0.408,1.756,0.728c0.343,0.198,0.645,0.45,0.911,0.745c0.349,0.387,0.513,0.843,0.518,1.364
		C34.784,38.873,34.778,39.02,34.742,39.16z M37.188,34.187c-0.261,0.067-0.529,0.064-0.796,0.054
		c-0.637-0.023-1.273-0.048-1.91-0.07c-0.267-0.009-0.534-0.02-0.8-0.02c-0.825,0-1.649,0.036-2.47,0.13
		c-0.909,0.104-1.818,0.205-2.724,0.331c-0.959,0.133-1.917,0.282-2.872,0.445c-0.602,0.103-1.2,0.234-1.783,0.424
		c-0.288,0.094-0.571,0.084-0.854-0.021c-0.259-0.096-0.49-0.238-0.704-0.41c-0.028-0.023-0.055-0.048-0.079-0.075
		c-0.137-0.153-0.111-0.259,0.088-0.317c0.121-0.035,0.249-0.06,0.375-0.064c0.966-0.034,1.917-0.184,2.869-0.332
		c0.616-0.096,1.232-0.199,1.847-0.299c0.018-0.003,0.035-0.009,0.069-0.019c0.055-0.921,0.071-1.846,0.061-2.758
		c-0.322,0.028-0.616,0.07-0.911,0.076c-0.382,0.008-0.744-0.094-1.08-0.277c-0.103-0.056-0.257-0.101-0.231-0.244
		c0.025-0.137,0.186-0.14,0.3-0.162c0.345-0.067,0.692-0.12,1.037-0.184c0.291-0.054,0.581-0.117,0.885-0.178
		c0-0.137,0.01-0.263-0.002-0.388c-0.033-0.326-0.061-0.652-0.118-0.974c-0.055-0.313-0.189-0.6-0.358-0.87
		c-0.048-0.077-0.099-0.154-0.135-0.236c-0.079-0.18-0.023-0.271,0.171-0.267c0.132,0.002,0.269,0.011,0.396,0.047
		c0.255,0.073,0.506,0.164,0.757,0.253c0.062,0.022,0.119,0.061,0.173,0.1c0.202,0.145,0.263,0.299,0.198,0.537
		c-0.136,0.496-0.153,1.006-0.194,1.513c-0.001,0.016,0.008,0.034,0.018,0.073c0.76-0.151,1.517-0.302,2.293-0.457
		c0.01-0.058,0.026-0.121,0.03-0.186c0.04-0.697,0.085-1.393,0.016-2.091c-0.037-0.371-0.124-0.728-0.287-1.065
		c-0.042-0.087-0.083-0.177-0.106-0.27c-0.035-0.139,0.031-0.225,0.173-0.235c0.06-0.005,0.123-0.003,0.181,0.011
		c0.372,0.089,0.736,0.2,1.078,0.376c0.059,0.031,0.119,0.062,0.174,0.099c0.206,0.14,0.277,0.328,0.172,0.552
		c-0.189,0.403-0.255,0.833-0.319,1.265c-0.061,0.414-0.102,0.831-0.152,1.246c-0.003,0.023,0,0.047,0,0.09
		c0.21-0.04,0.409-0.078,0.608-0.117c0.22-0.042,0.439-0.088,0.66-0.127c0.413-0.074,0.751,0.079,1.035,0.366
		c0.145,0.147,0.118,0.276-0.08,0.346c-0.181,0.064-0.373,0.103-0.562,0.141c-0.523,0.104-1.046,0.202-1.569,0.303
		c-0.053,0.01-0.104,0.027-0.163,0.042c-0.088,1.037-0.176,2.069-0.266,3.121c0.173-0.013,0.333-0.023,0.493-0.039
		c0.446-0.044,0.893-0.088,1.339-0.135c0.518-0.055,1.036-0.117,1.554-0.17c0.361-0.036,0.718-0.112,1.086-0.058
		c0.317,0.046,0.616,0.134,0.887,0.303c0.144,0.09,0.281,0.191,0.414,0.297c0.08,0.064,0.154,0.138,0.217,0.219
		C37.448,34.005,37.404,34.132,37.188,34.187z"/>
	<path d="M28.265,33.895c0.742-0.134,1.456-0.263,2.179-0.393c0.153-1.017,0.235-2.005,0.268-3.013
		c-0.81,0.158-1.593,0.31-2.392,0.466C28.289,31.926,28.248,32.897,28.265,33.895z"/>
</g>
</svg>
