<?xml version="1.0" encoding="utf-8"?>
<!-- Generator: Adobe Illustrator 17.0.0, SVG Export Plug-In . SVG Version: 6.00 Build 0)  -->
<!DOCTYPE svg PUBLIC "-//W3C//DTD SVG 1.1//EN" "http://www.w3.org/Graphics/SVG/1.1/DTD/svg11.dtd">
<svg version="1.1" id="Capa_1" xmlns="http://www.w3.org/2000/svg" xmlns:xlink="http://www.w3.org/1999/xlink" x="0px" y="0px"
	 width="64px" height="64px" viewBox="0 0 64 64" enable-background="new 0 0 64 64" xml:space="preserve">
<g>
	<path fill="#1D1D1B" d="M23.799,15.677c0.922,0.221,1.755,0.547,2.475,1.134c0.411,0.335,0.27,0.674-0.23,0.674
		c-0.021,0-0.042-0.001-0.064-0.002c-0.555-0.03-1.102-0.067-1.654-0.067c-0.148,0-0.297,0.003-0.445,0.009
		c-0.552,0.023-0.624,0.356-0.146,0.632c0.88,0.507,1.778,0.892,2.735,1.134c0.536,0.135,0.9,0.477,0.8,0.827
		c-0.062,0.216-0.124,0.424-0.199,0.628c-0.096,0.263-0.02,0.395,0.221,0.479c0.361,0.126,0.712,0.285,1.081,0.38
		c1.228,0.318,2.471,0.477,3.724,0.477c0.524,0,1.049-0.028,1.576-0.083c1.104-0.116,2.194-0.301,3.227-0.743
		c0.283-0.121,0.387-0.251,0.267-0.565c-0.075-0.196-0.136-0.397-0.195-0.604c-0.096-0.337,0.273-0.668,0.809-0.801
		c0.964-0.239,1.858-0.62,2.723-1.123c0.477-0.278,0.404-0.623-0.148-0.641c-0.083-0.003-0.166-0.004-0.248-0.004
		c-0.629,0-1.248,0.073-1.879,0.151c-0.052,0.006-0.101,0.01-0.146,0.01c-0.427,0-0.52-0.277-0.139-0.601
		c0.703-0.597,1.486-0.987,2.333-1.259c0.526-0.169,0.621-0.545,0.186-0.886c-0.534-0.419-1.073-0.82-1.618-1.212
		c-0.025-0.018-0.064-0.026-0.107-0.026c-0.086,0-0.193,0.03-0.26,0.07c-0.885,0.522-1.753,1.073-2.646,1.58
		c-0.234,0.133-0.287,0.25-0.232,0.49c0.039,0.172,0.07,0.345,0.101,0.528c0.048,0.293-0.319,0.591-0.821,0.666
		c-0.152,0.023-0.276,0.033-0.368,0.033c-0.212,0-0.251-0.053-0.057-0.124c0.17-0.062,0.342-0.11,0.517-0.144
		c0.347-0.069,0.405-0.255,0.334-0.566c-0.039-0.172-0.069-0.346-0.097-0.522c-0.046-0.289,0.347-0.657,0.854-0.876
		c0.533-0.23,1.037-0.5,1.523-0.802c0.469-0.291,0.475-0.832-0.012-1.093c-0.73-0.391-1.606-0.723-2.201-0.81
		c-0.398-0.058-0.796-0.117-1.195-0.175c-0.546-0.08-1.438-0.145-1.991-0.145c-0.072,0-0.144,0-0.216,0
		c-0.552,0-1.395,0.058-1.88,0.129c-0.293,0.043-0.586,0.083-0.88,0.116c-0.955,0.106-1.814,0.44-2.688,0.919
		c-0.485,0.265-0.465,0.717,0.024,0.975c0.569,0.3,1.124,0.593,1.681,0.887c0.488,0.258,0.847,0.708,0.797,1.004
		c-0.029,0.172-0.06,0.354-0.095,0.534c-0.04,0.206,0.014,0.322,0.225,0.378c0.189,0.05,0.377,0.105,0.565,0.16
		c0.278,0.082,0.287,0.167,0.041,0.167c-0.029,0-0.061-0.001-0.098-0.004c-0.206-0.014-0.411-0.041-0.614-0.078
		c-0.594-0.108-0.591-0.12-0.481-0.702c0.037-0.194,0.085-0.389,0.092-0.585c0.004-0.096-0.047-0.242-0.12-0.285
		c-0.748-0.438-1.501-0.869-2.286-1.318c-0.208-0.119-0.465-0.177-0.726-0.177c-0.341,0-0.687,0.099-0.935,0.289
		c-0.315,0.242-0.642,0.493-0.981,0.754C23.174,15.208,23.262,15.549,23.799,15.677z M32.596,20.381
		c-0.107,0.165-0.264,0.275-0.444,0.291c-0.017,0.002-0.033,0.002-0.05,0.002c-0.176,0-0.33-0.089-0.446-0.257
		c-0.113-0.163-0.076-0.198,0.068-0.198c0,0,0,0,0,0c0.09,0,0.221,0.014,0.383,0.019c0.021,0.001,0.042,0.001,0.062,0.001
		c0.172,0,0.307-0.02,0.39-0.02C32.66,20.218,32.682,20.248,32.596,20.381z M31.954,19.762c0.009,0,0.018,0,0.028,0
		c0.036,0,0.075,0,0.115,0c0.144-0.001,0.266-0.009,0.352-0.009c0.138,0,0.186,0.019,0.088,0.115
		c-0.097,0.094-0.224,0.14-0.367,0.155c-0.028,0.003-0.055,0.004-0.081,0.004c-0.145,0-0.263-0.044-0.358-0.122
		C31.558,19.765,31.678,19.762,31.954,19.762z M32.105,19.631c-0.006,0-0.012,0-0.018,0c-0.337-0.009-0.65-0.257-0.648-0.513
		c0.003-0.325,0.36-0.684,0.673-0.684c0.007,0,0.013,0,0.02,0c0.301,0.015,0.649,0.383,0.654,0.691
		C32.79,19.373,32.439,19.631,32.105,19.631z M32.955,15.521c-0.093,0.203-0.233,0.386-0.399,0.502
		c-0.144,0.1-0.291,0.151-0.442,0.151c-0.123,0-0.248-0.034-0.374-0.102c-0.184-0.1-0.341-0.282-0.448-0.496
		c-0.08-0.16-0.057-0.217,0.047-0.217c0,0,0,0,0,0c0.114,0,0.324,0.069,0.602,0.147c0.067,0.019,0.132,0.028,0.197,0.028
		c0.056,0,0.112-0.007,0.168-0.021c0.313-0.079,0.532-0.174,0.631-0.174C33.007,15.337,33.016,15.385,32.955,15.521z M31.709,12.997
		c0.136-0.082,0.275-0.122,0.412-0.122c0.178,0,0.351,0.068,0.507,0.202c0.167,0.143,0.301,0.304,0.382,0.487
		c0.139,0.316,0.104,0.983-0.154,1.302c-0.154,0.19-0.377,0.324-0.631,0.357c-0.042,0.005-0.084,0.008-0.126,0.008
		c-0.231,0-0.441-0.085-0.609-0.246c-0.214-0.205-0.219-0.314-0.087-0.314c0.065,0,0.162,0.026,0.284,0.079
		c0.101,0.044,0.207,0.06,0.314,0.067c0.019,0.001,0.037,0.012,0.056,0.012c0.112,0,0.227-0.021,0.344-0.064
		c0.134-0.049,0.249-0.149,0.36-0.262c0.063-0.064,0.092-0.09,0.086-0.09c-0.011,0-0.132,0.079-0.37,0.168
		c-0.113,0.042-0.231,0.066-0.357,0.066c-0.047,0-0.099-0.018-0.148-0.025c-0.067-0.009-0.131-0.011-0.203-0.034
		c-0.315-0.105-0.62-0.275-0.638-0.623C31.11,13.549,31.349,13.212,31.709,12.997z"/>
	<polygon fill="#1D1D1B" points="32.099,19.504 32.105,19.631 32.105,19.503 	"/>
	<path fill="#1D1D1B" d="M54.13,39.561c-0.13,0.082-0.103,0.338,0.06,0.571c0.101,0.144,0.198,0.283,0.294,0.422
		c0.224,0.323,0.048,1.254-0.293,1.444c-1.604,0.888-3.212,1.771-4.824,2.645c-0.12,0.065-0.251,0.096-0.382,0.096
		c-0.286,0-0.573-0.146-0.756-0.393c-0.109-0.147-0.217-0.293-0.326-0.439c-0.094-0.127-0.291-0.189-0.53-0.189
		c-0.217,0-0.469,0.051-0.712,0.15c-0.106,0.043-0.214,0.08-0.325,0.104c-0.54,0.116-0.773,0.231-0.544,0.733
		c0.255,0.56,0.492,1.081,0.729,1.602c0.173,0.38,0.759,0.669,1.242,0.669c0.143,0,0.277-0.025,0.389-0.081
		c1.133-0.566,2.264-1.134,3.39-1.713c1.316-0.677,2.634-1.351,3.622-2.504c0.094-0.11,0.194-0.215,0.296-0.318
		c0.168-0.172,0.305-0.541,0.305-0.825c0-0.284-0.294-0.852-0.658-1.268c-0.028-0.032-0.057-0.065-0.085-0.097
		c-0.32-0.366-0.667-0.62-0.834-0.62C54.165,39.547,54.145,39.551,54.13,39.561z"/>
	<path fill="#1D1D1B" d="M8.651,42.467c0.739,0.778,1.511,1.507,2.485,1.999c1.412,0.714,2.826,1.427,4.21,2.193
		c0.332,0.184,0.65,0.289,0.972,0.289c0.229,0,0.459-0.053,0.697-0.169c0.16-0.078,0.337-0.207,0.411-0.359
		c0.367-0.745,0.703-1.505,1.046-2.262c0.014-0.031,0.026-0.064,0.035-0.093c0.016-0.052-0.213-0.1-0.508-0.109
		c-0.182-0.006-0.359-0.019-0.528-0.061c-0.179-0.045-0.352-0.118-0.525-0.199c-0.089-0.042-0.187-0.062-0.284-0.062
		c-0.211,0-0.422,0.093-0.544,0.258c-0.108,0.147-0.215,0.292-0.322,0.438c-0.19,0.259-0.466,0.4-0.754,0.4
		c-0.149,0-0.302-0.038-0.448-0.117c-1.576-0.857-3.149-1.719-4.719-2.588c-0.115-0.064-0.229-0.184-0.278-0.305
		c-0.223-0.545-0.31-1.08,0.194-1.547c0.068-0.063,0.123-0.142,0.176-0.227c0.084-0.135,0.046-0.307-0.084-0.385
		c-0.015-0.009-0.034-0.014-0.056-0.014c-0.167,0-0.518,0.254-0.841,0.62c-0.03,0.034-0.059,0.067-0.089,0.101
		c-0.366,0.414-0.662,0.98-0.662,1.264c0,0.284,0.094,0.608,0.209,0.724C8.514,42.326,8.583,42.396,8.651,42.467z"/>
	<path fill="#1D1D1B" d="M31.158,36.611c0,0.098,0,0.195,0,0.291c0,0.282-0.029,0.424-0.077,0.424c-0.046,0-0.108-0.13-0.178-0.391
		c-0.086-0.321-0.176-0.649-0.273-0.975c-0.036-0.119-0.183-0.267-0.3-0.287c-0.181-0.032-0.364-0.048-0.562-0.061
		c-0.015-0.001-0.029-0.001-0.042-0.001c-0.27,0-0.269,0.187,0.012,0.432c0.295,0.257,0.144,0.532-0.336,0.615
		c-0.297,0.051-0.583,0.1-0.869,0.148c-0.704,0.117-1.408,0.211-2.111,0.211c-0.578,0-1.156-0.064-1.733-0.231
		c-0.035-0.01-0.086-0.019-0.126-0.019c-0.029,0-0.052,0.004-0.059,0.016c-0.179,0.294-0.36,0.59-0.487,0.907
		c-0.013,0.033,0.321,0.207,0.497,0.31c0.02,0.012,0.044,0.018,0.069,0.022c0.039,0.007,0.003,0.038-0.085,0.045
		c-0.017,0.001-0.033,0.002-0.05,0.002c-0.037,0-0.073-0.003-0.11-0.008c-0.024-0.003-0.048-0.005-0.072-0.005
		c-0.328,0-0.618,0.302-0.684,0.713c-0.071,0.44,0.279,0.4,0.506,0.413c0.228,0.013,0.456,0.017,0.685,0.017
		c0.041,0,0.082,0,0.123,0c0.017,0,0.033,0,0.05,0c0.424,0,0.761,0.028,0.763,0.068c0.002,0.041-0.406,0.104-0.912,0.141
		c-0.305,0.022-0.61,0.045-0.916,0.07c-0.103,0.008-0.235,0.02-0.303,0.067c-0.008,0.04-0.02,0.08-0.041,0.107
		c-0.51,0.658-0.414,1.41-0.235,2.124l0.015,0.06c0.11,0.439,0.224,0.893,0.386,1.312c0.101,0.262,0.195,0.651-0.158,1.015
		c-0.148,0.152-0.182,0.234,0.053,0.485c0.194,0.209,0.369,0.425,0.513,0.61c0.039,0.049,0.068,0.104,0.095,0.159
		c0.142,0.09,0.297,0.154,0.459,0.154c0.201,0,0.389-0.091,0.529-0.261c0.197-0.285,0.321-0.626,0.389-1.001
		c0.017-0.283-0.045-0.486-0.116-0.486c-0.004,0-0.008,0.001-0.011,0.002c-0.008,0.002-0.015,0.003-0.022,0.003
		c-0.082,0-0.045-0.177,0.19-0.279c0.088-0.038,0.183-0.055,0.291-0.055c0.052,0,0.109,0.006,0.168,0.014
		c0.073-0.007,0.142-0.009,0.191-0.009c0.193,0,0.424,0.019,0.668,0.055l0.489,0.072l1.206,0.177
		c0.106,0.016,0.207,0.048,0.304,0.089c0.595,0.072,1.191,0.143,1.788,0.187c0.051-0.006,0.101-0.027,0.151-0.027h2.347
		c0.088,0,0.174,0.029,0.261,0.046c0.506-0.027,1.011-0.067,1.515-0.123c0.142-0.086,0.3-0.148,0.469-0.173l1.088-0.16l0.597-0.088
		c0.272-0.04,0.534-0.062,0.735-0.062c0.057,0,0.13,0.003,0.204,0.012c0.03-0.002,0.063-0.01,0.091-0.01
		c0.116,0,0.217,0.021,0.31,0.064c0.255,0.117,0.309,0.3,0.237,0.3c-0.008,0-0.017-0.002-0.027-0.007
		c-0.005-0.002-0.011-0.003-0.017-0.003c-0.077,0-0.167,0.211-0.155,0.507c0.076,0.366,0.214,0.699,0.413,0.982
		c0.152,0.164,0.343,0.257,0.536,0.257c0.145,0,0.274-0.052,0.387-0.126c0.065-0.109,0.132-0.208,0.18-0.268
		c0.189-0.238,0.375-0.469,0.567-0.694c0.053-0.062,0.075-0.096,0.077-0.124c0-0.002-0.001-0.004-0.001-0.006
		c0-0.026-0.018-0.047-0.049-0.081c-0.443-0.474-0.321-0.972-0.19-1.305c0.166-0.423,0.272-0.887,0.374-1.336l0.034-0.15
		c0.096-0.417,0.12-0.762,0.074-1.054c-0.017-0.106-0.006-0.182-0.011-0.276c-0.056-0.163-0.135-0.324-0.256-0.48
		c-0.127-0.165-0.218-0.227-0.435-0.23c-0.305-0.005-0.609-0.024-0.914-0.047c-0.504-0.038-0.912-0.105-0.909-0.145
		c0.002-0.039,0.333-0.067,0.745-0.067c0.013,0,0.026,0,0.039,0c0.035,0,0.07,0,0.105,0c0.225,0,0.449-0.003,0.673-0.016
		c0.191-0.01,0.534-0.128,0.535-0.201c0.003-0.232-0.091-0.483-0.205-0.695c-0.081-0.151-0.206-0.267-0.379-0.267
		c-0.054,0-0.113,0.011-0.177,0.036c-0.034,0.013-0.071,0.017-0.109,0.017c-0.015,0-0.03-0.001-0.045-0.002
		c-0.086-0.005-0.12-0.037-0.07-0.055c0.031-0.011,0.062-0.018,0.093-0.026c0.584-0.167,0.667-0.368,0.306-0.87
		c-0.103-0.143-0.329-0.325-0.469-0.325c-0.012,0-0.023,0.001-0.033,0.004c-0.574,0.151-1.146,0.21-1.717,0.21
		c-0.737,0-1.472-0.098-2.209-0.226c-0.273-0.047-0.546-0.093-0.832-0.141c-0.459-0.077-0.568-0.366-0.244-0.645
		c0.304-0.262,0.343-0.457,0.103-0.457c-0.016,0-0.033,0.001-0.051,0.003c-0.15,0.014-0.29,0.025-0.429,0.025
		c-0.036,0-0.072-0.001-0.108-0.002c-0.013-0.001-0.026-0.001-0.039-0.001c-0.26,0-0.361,0.123-0.422,0.363
		c-0.083,0.327-0.171,0.652-0.263,0.991c-0.071,0.26-0.135,0.39-0.183,0.39c-0.05,0-0.081-0.142-0.081-0.425c0-0.07,0-0.139,0-0.208
		c0-0.552-0.301-0.512-0.851-0.555c-0.03-0.002-0.061-0.006-0.091-0.012c-0.142-0.026-0.267-0.043-0.375-0.043
		C31.326,36.071,31.158,36.202,31.158,36.611z M27.549,41.522c-0.001,0-0.001,0-0.002,0c-0.042,0-0.216-0.205-0.394-0.464
		c-0.076-0.11-0.207-0.163-0.365-0.163c-0.221,0-0.496,0.104-0.75,0.302c-0.035,0.027-0.069,0.054-0.104,0.081
		c-0.41,0.322-0.768,0.564-0.83,0.564c-0.004,0-0.006-0.001-0.008-0.003c-0.028-0.031,0.285-0.353,0.699-0.719
		c0.407-0.361,0.815-0.721,1.222-1.082c0.398-0.352,0.753-0.622,0.817-0.622c0.003,0,0.005,0,0.006,0.001
		c0.041,0.023-0.341,0.307-0.523,0.828c-0.04,0.114-0.061,0.231-0.062,0.351C27.251,41.15,27.587,41.514,27.549,41.522z
		 M30.213,41.857c-0.056,0-0.187-0.039-0.333-0.1c-0.112-0.047-0.225-0.091-0.341-0.123c-0.221-0.062-0.458-0.068-0.683-0.119
		c-0.046-0.01-0.089-0.034-0.131-0.062c-0.068-0.044-0.083-0.13-0.033-0.19c0.032-0.038,0.066-0.072,0.107-0.089
		c0.033-0.014,0.074-0.021,0.115-0.021c0.054,0,0.109,0.011,0.152,0.032c0.202,0.098,0.402,0.199,0.601,0.302
		c0.33,0.17,0.587,0.332,0.573,0.36C30.238,41.854,30.228,41.857,30.213,41.857z M36.786,40.19c-0.109-0.296-0.164-0.432-0.11-0.432
		c0.041,0,0.144,0.077,0.332,0.221c0.535,0.409,1.039,0.846,1.498,1.33c0.217,0.228,0.284,0.352,0.222,0.352
		c-0.047,0-0.167-0.07-0.352-0.219c-0.101-0.081-0.201-0.161-0.302-0.242c-0.248-0.199-0.52-0.303-0.742-0.303
		c-0.163,0-0.299,0.056-0.378,0.172c-0.187,0.271-0.369,0.49-0.408,0.49c0,0-0.001,0-0.001,0c-0.037-0.003,0.289-0.361,0.313-0.913
		C36.865,40.489,36.84,40.337,36.786,40.19z M34.352,41.535c0.195-0.106,0.394-0.211,0.597-0.309
		c0.074-0.036,0.164-0.048,0.255-0.048c0.055,0,0.11,0.005,0.162,0.011c0.052,0.007,0.119,0.128,0.124,0.201
		c0.003,0.049-0.082,0.14-0.14,0.152c-0.263,0.056-0.527,0.108-0.792,0.16c-0.122,0.024-0.217,0.035-0.283,0.035
		C34.099,41.738,34.116,41.663,34.352,41.535z M30.808,39.093c0.009,0,0.018,0.001,0.028,0.002c0.147,0.018,0.217,0.154,0.158,0.304
		c-0.027,0.07-0.068,0.104-0.112,0.104c-0.051,0-0.107-0.046-0.154-0.136C30.646,39.21,30.683,39.093,30.808,39.093z M33.266,39.096
		c0.01-0.002,0.02-0.002,0.029-0.002c0.123,0,0.166,0.133,0.095,0.313c-0.041,0.104-0.094,0.157-0.145,0.157
		c-0.043,0-0.085-0.039-0.117-0.117C33.059,39.276,33.121,39.118,33.266,39.096z M32.052,42.522c0.165,0,0.331-0.118,0.571-0.356
		c0.199-0.197,0.38-0.413,0.551-0.628c0.11-0.139,0.197-0.202,0.244-0.202c0.076,0,0.049,0.163-0.149,0.44
		c-0.324,0.455-0.77,0.893-1.096,0.982c-0.026,0.007-0.055,0.01-0.085,0.01c-0.083,0-0.175-0.025-0.247-0.059
		c-0.332-0.155-0.694-0.507-0.97-0.903c-0.199-0.284-0.23-0.453-0.158-0.453c0.043,0,0.123,0.059,0.226,0.19
		c0.169,0.212,0.341,0.419,0.531,0.609C31.715,42.398,31.883,42.522,32.052,42.522z"/>
	<path fill="#1D1D1B" d="M27.264,27.167c1.241,0.166,2.482,0.343,3.715,0.555c0.064,0.011,0.122,0.017,0.174,0.017
		c0.246,0,0.363-0.126,0.461-0.39c0.073-0.195,0.16-0.385,0.256-0.585c0.068-0.142,0.159-0.212,0.253-0.212
		c0.116,0,0.239,0.106,0.334,0.311c0.109,0.234,0.213,0.453,0.327,0.667c0.054,0.101,0.214,0.222,0.317,0.222
		c0.006,0,0.011,0,0.017-0.001c1.318-0.189,2.632-0.403,3.948-0.606c0.203-0.031,0.289-0.111,0.277-0.338
		c-0.035-0.672-0.022-1.346-0.067-2.017c-0.022-0.334,0.054-0.483,0.407-0.563c1.571-0.353,3.029-0.991,4.391-1.846
		c0.062-0.039,0.122-0.082,0.183-0.122c0.278-0.224,0.559-0.444,0.821-0.698c0.04-0.038,0.073-0.083,0.106-0.129
		c0.069-0.098,0.178-0.232,0.251-0.301c0.06-0.057,0.139-0.088,0.221-0.088c0.015,0,0.027,0.012,0.041,0.014
		c0.001-0.009,0.005-0.018,0.005-0.027c0-0.066-0.004-0.131-0.018-0.193c-0.159-0.667-0.388-1.323-0.478-1.998
		c-0.091-0.686-0.491-0.969-1.082-1.12c-0.072-0.018-0.144-0.063-0.213-0.063c-0.005,0-0.009,0-0.014,0.001
		c-0.143,0.014-0.318,0.014-0.419,0.095c-1.009,0.818-2.148,1.382-3.381,1.767c-0.138,0.043-0.277,0.082-0.419,0.121
		c-0.233,0.064-0.33,0.344-0.219,0.628c0.069,0.176,0.132,0.347,0.182,0.522c0.04,0.141,0.012,0.328-0.049,0.466
		c-0.34,0.776-0.972,1.139-1.782,1.329c-1.229,0.289-2.457,0.434-3.687,0.434c-1.072,0-2.144-0.11-3.219-0.332
		c-0.909-0.187-1.833-0.386-2.222-1.401c-0.063-0.164-0.102-0.371-0.059-0.533c0.046-0.172,0.108-0.339,0.176-0.507
		c0.111-0.275,0.101-0.524-0.024-0.557c-0.08-0.021-0.154-0.04-0.228-0.06c-1.275-0.341-2.479-0.851-3.499-1.693
		c-0.228-0.189-0.429-0.265-0.641-0.265c-0.154,0-0.314,0.04-0.494,0.106c-0.551,0.202-0.879,0.509-1.003,1.123
		c-0.265,1.316-0.542,2.638-0.945,3.916c-0.279,0.887,0.036,1.439,0.668,1.939c0.258,0.204,0.527,0.399,0.811,0.564
		c0.866,0.501,1.809,0.798,2.79,0.961c0.433,0.072,0.869,0.126,1.315,0.179c0.046,0.005,0.092,0.008,0.136,0.008
		c0.484,0,0.859-0.313,0.86-0.747c0-0.295-0.003-0.576-0.016-0.856c-0.004-0.087-0.163-0.216-0.27-0.241
		c-2.088-0.48-3.872-1.502-5.39-3.003c-0.039-0.039-0.073-0.082-0.12-0.142c-0.051-0.065-0.065-0.104-0.041-0.104
		c0.006,0,0.015,0.003,0.026,0.008c0.055,0.026,0.079,0.037,0.099,0.052c1.755,1.39,3.728,2.331,5.903,2.846
		c0.224,0.053,0.257,0.147,0.247,0.353c-0.034,0.698-0.036,1.398-0.068,2.096C26.904,26.997,26.963,27.127,27.264,27.167z
		 M32.529,25.498c-0.091,0.121-0.22,0.203-0.416,0.207c-0.004,0-0.009,0-0.013,0c-0.185,0-0.311-0.078-0.401-0.198
		c-0.094-0.125-0.095-0.231-0.05-0.282c0.018-0.02,0.041-0.034,0.072-0.034c0.023,0,0.049,0.006,0.076,0.02
		c0.094,0.048,0.185,0.083,0.275,0.087c0.006,0,0.012,0.003,0.018,0.003c0.002,0,0.005,0,0.007,0
		c0.105-0.002,0.209-0.044,0.317-0.098c0.03-0.015,0.058-0.022,0.083-0.022C32.609,25.183,32.66,25.324,32.529,25.498z
		 M31.549,24.109c0.051-0.144,0.158-0.26,0.319-0.333c0.052-0.023,0.12-0.034,0.192-0.034c0.147,0,0.312,0.046,0.393,0.123
		c0.14,0.133,0.266,0.503,0.189,0.593c-0.142,0.167-0.429,0.244-0.668,0.284c-0.01,0.002-0.019,0.002-0.029,0.002
		c-0.056,0-0.117-0.027-0.179-0.059c-0.003-0.002-0.006-0.001-0.009-0.003c-0.012-0.006-0.022-0.009-0.03-0.009
		c-0.024,0-0.02,0.03-0.001,0.065c0.009,0.017,0.021,0.032,0.041,0.051c0.052,0.048,0.137,0.096,0.271,0.105
		c0.01,0.001,0.017,0.001,0.026,0.002c0.312,0.021,0.501,0.023,0.343,0.151c-0.064,0.052-0.142,0.074-0.232,0.078
		c-0.007,0-0.011,0.006-0.018,0.006c-0.034,0-0.07-0.003-0.109-0.01c-0.146-0.026-0.277-0.073-0.368-0.158
		c-0.031-0.03-0.048-0.073-0.069-0.113c-0.007-0.013-0.018-0.024-0.023-0.038c-0.004-0.01-0.013-0.016-0.016-0.027
		c-0.023-0.079-0.068-0.261-0.062-0.449C31.515,24.259,31.524,24.181,31.549,24.109z"/>
	<path fill="#1D1D1B" d="M39.313,17.065c0.015,0,0.03,0,0.046-0.001c0.284-0.008,0.565-0.016,0.844-0.016
		c0.362,0,0.719,0.013,1.074,0.055c2.181,0.259,3.542,1.608,3.926,3.741c0.403,2.239-0.373,3.87-2.384,4.937
		c-1.45,0.769-3.029,1.06-4.65,1.144c-0.285,0.015-0.41,0.085-0.457,0.389c-0.207,1.326-0.637,2.583-1.249,3.777
		c-0.793,1.547-1.859,2.836-3.261,3.83c-0.449,0.318-0.805,0.535-0.765,0.535h0c0.026-0.001,0.052-0.003,0.077-0.009
		c0.257-0.057,0.518-0.105,0.77-0.18c2.893-0.869,4.939-2.753,6.366-5.359c0.154-0.281,0.318-0.381,0.625-0.381
		c0.004,0,0.008,0,0.012,0c0.026,0,0.051,0,0.077,0c1.144,0,2.262-0.203,3.341-0.578c2.75-0.954,4.454-2.803,4.793-5.758
		c0.205-1.791-0.081-3.547-0.432-5.302c-0.137-0.686-0.176-1.415-0.115-2.113c0.071-0.815,0.406-1.568,1.123-2.053
		c0.062-0.042,0.128-0.078,0.195-0.112c0.006-0.003,0.011-0.007,0.016-0.009c0.109-0.054,0.223-0.101,0.338-0.146
		c0.001,0,0.002-0.001,0.003-0.001c0,0,0,0,0.001,0c0.09-0.036,0.069-0.099-0.03-0.159c-0.012,0.019-0.01,0.043-0.026,0.058
		c-0.046,0.044-0.11,0.068-0.174,0.068c-0.003,0-0.006,0-0.009,0l-0.135-0.005l-0.275-0.01l-0.132-0.002
		c-1.154,0-1.879,0.558-2.283,1.026l-0.049,0.056l0,0c-0.297,0.344-0.297,0.344-0.411,0.344c-0.037,0-0.069-0.015-0.101-0.03
		c-0.058,0.1-0.116,0.201-0.164,0.307c-0.153,0.336-0.256,0.697-0.304,1.069c-0.05,0.388-0.214,0.599-0.479,0.599
		c-0.109,0-0.236-0.036-0.379-0.109c-0.855-0.44-1.757-0.712-2.734-0.745c-0.066-0.002-0.131-0.003-0.196-0.003
		c-0.908,0-1.75,0.217-2.539,0.632C38.73,16.801,38.802,17.065,39.313,17.065z"/>
	<path fill="#1D1D1B" d="M48.012,13.264c0.045-0.011,0.09-0.021,0.135-0.031c-0.047,0.01-0.093,0.02-0.138,0.031
		c-0.18,0.045-0.354,0.103-0.517,0.175c-0.02,0.009-0.041,0.016-0.061,0.024c0.019-0.008,0.039-0.015,0.058-0.023
		C47.655,13.368,47.83,13.31,48.012,13.264z"/>
	<path fill="#1D1D1B" d="M48.844,13.156c0.03,0,0.061,0.001,0.091,0.002c0.017,0,0.033,0,0.05,0.001
		c0.276,0.01,0.415,0.016,0.415,0.016s-0.138-0.005-0.413-0.016C48.939,13.157,48.891,13.156,48.844,13.156
		c-0.002,0-0.003,0-0.004,0c-0.232,0-0.45,0.029-0.661,0.07c-0.001,0-0.001,0-0.002,0c-0.01,0.002-0.019,0.005-0.029,0.007
		c0.01-0.002,0.019-0.005,0.029-0.007C48.389,13.185,48.61,13.156,48.844,13.156z"/>
	<path fill="#1D1D1B" d="M46.101,14.582c0,0,0.074-0.086,0.222-0.257C46.174,14.496,46.101,14.582,46.101,14.582z"/>
	<path fill="#1D1D1B" d="M46.371,14.269c-0.017,0.02-0.033,0.038-0.048,0.056C46.338,14.307,46.354,14.288,46.371,14.269
		C46.371,14.269,46.371,14.269,46.371,14.269z"/>
	<path fill="#1D1D1B" d="M46.907,13.78c0.159-0.117,0.328-0.223,0.511-0.31c0.005-0.002,0.01-0.004,0.014-0.006
		c-0.005,0.002-0.01,0.003-0.014,0.006c0,0-0.001,0-0.001,0C47.234,13.557,47.066,13.663,46.907,13.78
		C46.907,13.78,46.907,13.78,46.907,13.78c-0.041,0.03-0.079,0.062-0.118,0.094c-0.001,0-0.001,0.001-0.002,0.001
		c-0.104,0.084-0.198,0.178-0.29,0.275c0.093-0.097,0.188-0.191,0.292-0.276C46.828,13.842,46.866,13.81,46.907,13.78z"/>
	<path fill="#1D1D1B" d="M15.151,13.76c0.671,0.427,0.999,0.996,1.126,1.959c0.09,0.678,0.065,1.405-0.079,2.073
		c-0.357,1.66-0.619,3.324-0.501,5.021c0.174,2.5,1.319,4.414,3.573,5.596c1.428,0.749,2.967,1.086,4.57,1.115
		c0.385,0.007,0.602,0.105,0.794,0.463c0.947,1.767,2.254,3.211,3.979,4.255c0.726,0.439,1.487,0.786,2.296,1.005
		c0.212,0.057,0.385,0.082,0.504,0.082c0.178,0,0.231-0.055,0.106-0.135c-0.126-0.081-0.253-0.16-0.376-0.244
		c-2.687-1.834-4.019-4.496-4.613-7.598c-0.057-0.299-0.14-0.417-0.464-0.429c-1.259-0.045-2.49-0.27-3.675-0.706
		c-2.241-0.825-3.802-2.377-3.397-5.133c0.279-1.898,1.234-3.239,3.11-3.794c0.611-0.181,1.268-0.244,1.908-0.278
		c0.101-0.005,0.201-0.008,0.303-0.008c0.213,0,0.427,0.01,0.647,0.024c0.034,0.002,0.065,0.003,0.095,0.003
		c0.435,0,0.458-0.22-0.003-0.455c-0.875-0.447-1.739-0.653-2.596-0.653c-0.965,0-1.92,0.262-2.873,0.738
		c-0.14,0.07-0.267,0.104-0.378,0.104c-0.282,0-0.465-0.216-0.519-0.608c-0.264-1.91-1.727-2.998-3.336-2.998
		c-0.039,0-0.078,0.001-0.117,0.002C14.682,13.179,14.685,13.464,15.151,13.76z"/>
	<path fill="#1D1D1B" d="M25.918,48.859c0.89,0.659,1.815,1.276,2.662,1.987c0.877,0.735,1.857,1.145,2.981,1.22
		c0.187,0.012,0.374,0.019,0.559,0.019c1.022,0,2.003-0.208,2.869-0.835c1.122-0.811,2.221-1.654,3.331-2.481
		c0.033-0.024,0.072-0.045,0.114-0.067c0.008-0.005,0.015-0.011,0.024-0.016c0.055-0.034-0.18-0.135-0.539-0.279
		c-0.779-0.25-1.534-0.705-2.154-1.307c-0.031-0.03-0.057-0.066-0.088-0.097c-0.22-0.223-0.415-0.464-0.593-0.718
		c-0.017-0.026-0.035-0.05-0.052-0.076c-0.206-0.304-0.389-0.621-0.518-0.956c-0.005-0.014-0.001-0.028-0.006-0.042
		c-0.183-0.411-0.577-0.753-1.014-0.861c-0.088-0.022-0.175-0.05-0.265-0.05c-0.784,0-1.563,0-2.347,0
		c-0.051,0-0.099,0.021-0.15,0.028c-0.496,0.07-0.963,0.457-1.151,0.921c0,0,0,0,0,0.001c-0.119,0.311-0.281,0.603-0.461,0.885
		c-0.043,0.069-0.088,0.135-0.134,0.201c-0.162,0.231-0.339,0.451-0.535,0.655c-0.029,0.029-0.052,0.063-0.082,0.092
		c-0.592,0.59-1.314,1.035-2.077,1.292c-0.376,0.162-0.621,0.29-0.544,0.352C25.808,48.775,25.863,48.817,25.918,48.859z
		 M32.598,50.839c-0.14,0.184-0.33,0.297-0.544,0.297c-0.008,0-0.015,0-0.023,0c-0.206-0.008-0.387-0.119-0.519-0.293
		c-0.139-0.183-0.107-0.331-0.01-0.379c0.02-0.01,0.039-0.022,0.065-0.022c0.033,0,0.069,0.009,0.108,0.028
		c0.035,0.018,0.07,0.03,0.105,0.045c0.093,0.04,0.187,0.071,0.28,0.071c0.006,0,0.013,0,0.019,0
		c0.134-0.005,0.267-0.067,0.393-0.141c0.038-0.022,0.074-0.033,0.106-0.033C32.715,50.412,32.778,50.601,32.598,50.839z
		 M32.577,49.75c-0.147,0.104-0.299,0.156-0.464,0.156c-0.059,0-0.119-0.007-0.181-0.02c-0.05-0.011-0.094-0.015-0.131-0.015
		c-0.237,0-0.207,0.187,0.21,0.188c0.013,0,0.026,0,0.039,0c0.112,0,0.211-0.002,0.294-0.002c0.254,0,0.348,0.019,0.16,0.171
		c-0.122,0.099-0.271,0.153-0.436,0.153c-0.041,0-0.083-0.003-0.126-0.01c-0.003,0-0.006-0.002-0.009-0.002
		c-0.045-0.008-0.088-0.018-0.129-0.032c-0.131-0.046-0.241-0.125-0.323-0.227c-0.027-0.034-0.04-0.077-0.06-0.116
		c-0.022-0.042-0.051-0.079-0.065-0.125c-0.003-0.008-0.005-0.027-0.008-0.037c-0.026-0.102-0.049-0.285-0.034-0.488
		c0.01-0.133,0.032-0.27,0.093-0.392c0.103-0.205,0.276-0.362,0.488-0.417c0.056-0.014,0.111-0.022,0.165-0.022
		c0.308,0,0.585,0.227,0.74,0.602C32.922,49.408,32.799,49.594,32.577,49.75z M32.083,47.025c0.524,0.008,0.484,0.328,0.003,0.328
		c-0.476,0-0.526-0.328-0.021-0.328c0,0,0,0,0,0C32.07,47.024,32.076,47.024,32.083,47.025z M30.321,45.818
		c0.01,0,0.022,0.001,0.036,0.003c0.128,0.016,0.252,0.039,0.362,0.091c0.45,0.214,0.895,0.323,1.34,0.323
		c0.44,0,0.879-0.107,1.322-0.325c0.085-0.042,0.177-0.069,0.271-0.093c0.063-0.016,0.123-0.023,0.172-0.023
		c0.069,0,0.117,0.015,0.122,0.044c0.009,0.049-0.416,0.209-0.949,0.352c-0.334,0.09-0.669,0.161-1.001,0.161
		c-0.013,0-0.027,0-0.04,0c-0.347-0.006-0.693-0.093-1.037-0.211C30.432,45.972,30.186,45.818,30.321,45.818z"/>
	<path fill="#1D1D1B" d="M17.85,48.674c-0.542,0.264-1.066,0.605-1.673,0.605c-0.163,0-0.332-0.025-0.508-0.082
		c-0.064-0.021-0.132-0.03-0.204-0.037c-0.004,0-0.007-0.001-0.011-0.001c-0.114,0-0.27,0.173-0.355,0.396
		c-0.087,0.23,0.216,0.664,0.718,0.896c2.222,1.025,6.591,2.075,9.084,2.182c0.046,0.002,0.091,0.003,0.135,0.003
		c0.49,0,0.881-0.114,0.898-0.208c0.011-0.061,0.022-0.124,0.03-0.187c0.091-0.706,0.149-1.419,0.281-2.118
		c0.081-0.425,0-0.704-0.387-0.904c-0.298-0.154-0.574-0.473-0.871-0.489c-1.624-0.083-2.928-0.805-4.067-1.893
		c-0.217-0.207-0.411-0.451-0.561-0.711c-0.188-0.327,0.027-0.676,0.384-0.676c0.024,0,0.048,0.002,0.073,0.005
		c0.2,0.026,0.391,0.139,0.578,0.229c0.067,0.032,0.131,0.07,0.191,0.107c0.007,0.005,0.014,0.007,0.021,0.007
		c0.084,0,0.094-0.371,0.022-0.879c-0.049-0.34-0.095-0.678-0.131-1.016c-0.106-0.978-0.169-1.962-0.738-2.818
		c-0.036-0.054-0.04-0.129-0.078-0.181c-0.039-0.052-0.081-0.101-0.123-0.15c-0.037-0.042-0.085-0.063-0.132-0.063
		c-0.043,0-0.086,0.018-0.118,0.054c-0.041,0.047-0.079,0.096-0.102,0.15c-0.435,1.027-0.79,2.095-1.305,3.079
		c-0.704,1.345-1.107,2.719-0.923,4.241c0.009,0.078,0.016,0.163-0.004,0.236C17.951,48.533,17.914,48.643,17.85,48.674z"/>
	<path fill="#1D1D1B" d="M46.059,48.352c-0.025-0.632,0.006-1.267-0.02-1.899c-0.011-0.267-0.072-0.548-0.178-0.793
		c-0.513-1.18-1.056-2.348-1.572-3.526c-0.19-0.434-0.33-0.89-0.508-1.33c-0.032-0.08-0.128-0.15-0.212-0.186
		c-0.003-0.001-0.006-0.002-0.01-0.002c-0.041,0-0.138,0.07-0.154,0.121c-0.213,0.666-0.68,1.219-0.736,1.966
		c-0.017,0.225-0.045,0.449-0.07,0.674c-0.001,0.075-0.004,0.145-0.01,0.203c-0.049,0.534-0.107,1.018-0.207,1.496
		c-0.041,0.398,0,0.672,0.108,0.672c0.016,0,0.033-0.006,0.051-0.017c0.094-0.061,0.192-0.121,0.294-0.172
		c0.137-0.069,0.28-0.124,0.417-0.124c0.133,0,0.261,0.051,0.376,0.189c0.229,0.277,0.072,0.529-0.112,0.745
		c-0.088,0.103-0.18,0.198-0.271,0.295c-0.027,0.034-0.048,0.069-0.078,0.102c-0.131,0.141-0.283,0.278-0.445,0.411
		c-0.993,0.881-2.159,1.44-3.575,1.531c-0.604,0.039-0.93,0.55-1.387,0.838c-0.029,0.018-0.033,0.099-0.026,0.148
		c0.084,0.653,0.17,1.306,0.257,1.969c0.069,0.526,0.539,0.945,1.064,0.945c0.022,0,0.043-0.001,0.065-0.002
		c3.163-0.208,6.177-0.925,9.075-2.176c0.507-0.219,0.836-0.609,0.744-0.85c-0.09-0.235-0.583-0.337-1.119-0.337
		c-0.014,0-0.029,0-0.043,0c-0.008,0-0.016,0-0.024,0c-0.45,0-0.712-0.133-1.45-0.514C46.183,48.668,46.064,48.483,46.059,48.352z"
		/>
	<path fill="#1D1D1B" d="M46.096,28.056c-0.033,0-0.053,0.013-0.056,0.042c-0.01,0.078,0.009,0.171,0.033,0.27
		c0.214,0.91,0.424,1.821,0.62,2.735c0.03,0.142,0.019,0.318-0.039,0.449c-0.67,1.506-0.673,1.504-2.244,1.972
		c-0.063,0.019-0.126,0.039-0.189,0.057c-0.661,0.187-1.321,0.373-1.993,0.563c-0.531,0.15-0.774,0.678-0.541,1.178
		c0.089,0.192,0.179,0.383,0.268,0.575c0.189,0.406,0.632,0.667,1.075,0.667c0.096,0,0.192-0.015,0.285-0.041
		c0.014-0.004,0.024-0.008,0.038-0.012c0.051-0.015,0.102-0.029,0.154-0.044c0.289-0.087,0.577-0.174,0.86-0.269
		c0.103-0.035,0.195-0.054,0.28-0.054c0.161,0,0.298,0.068,0.44,0.229c0.35,0.394,0.749,0.743,1.108,1.129
		c0.096,0.103,0.18,0.15,0.275,0.15c0.069,0,0.144-0.025,0.234-0.071c1.031-0.531,2.062-1.063,3.113-1.552
		c0.408-0.19,0.475-0.475,0.44-0.852c-0.01-0.105-0.012-0.215-0.047-0.312c-0.208-0.585,0.021-0.922,0.571-1.152
		c0.368-0.154,0.466-0.849,0.175-1.137c-1.331-1.32-2.67-2.632-4.03-3.967C46.607,28.296,46.235,28.056,46.096,28.056z"/>
	<path fill="#1D1D1B" d="M13.782,35.084c-0.044,0.143-0.04,0.323,0.005,0.465c0.045,0.143,0.14,0.319,0.263,0.383
		c1.101,0.569,2.21,1.123,3.325,1.662c0.031,0.015,0.073,0.022,0.118,0.022c0.1,0,0.217-0.034,0.276-0.088
		c0.426-0.393,0.835-0.807,1.236-1.227c0.107-0.112,0.206-0.171,0.333-0.171c0.055,0,0.115,0.011,0.184,0.034
		c0.249,0.082,0.501,0.157,0.753,0.233c0.136,0.04,0.271,0.076,0.409,0.118c0.005,0.001,0.008,0.005,0.012,0.006
		c0.089,0.023,0.179,0.039,0.27,0.039c0.443,0,0.885-0.261,1.074-0.668c0.079-0.17,0.157-0.339,0.236-0.508
		c0.232-0.501,0.318-0.943,0.193-0.987c-0.081-0.028-0.154-0.053-0.228-0.075c-0.91-0.267-1.808-0.599-2.735-0.779
		c-1.11-0.216-1.808-0.803-2.121-1.874c-0.007-0.025-0.03-0.047-0.033-0.071c-0.018-0.176-0.077-0.363-0.042-0.528
		c0.2-0.941,0.425-1.877,0.634-2.816c0.016-0.07,0.02-0.143,0.021-0.217c0.002-0.12-0.024-0.225-0.057-0.236c0,0,0,0,0,0
		c0,0,0,0,0,0c-0.003-0.001-0.007-0.002-0.012-0.002c-0.039,0-0.114,0.039-0.178,0.095c-0.043,0.037-0.086,0.076-0.127,0.116
		c-0.512,0.515-1.02,1.032-1.532,1.547c-0.976,0.983-1.954,1.964-2.929,2.948c-0.294,0.296-0.325,1.017-0.016,1.135
		C13.835,33.914,13.993,34.394,13.782,35.084z"/>
	<path fill="#1D1D1B" d="M50.855,34.087c-0.205,0.103-0.319,0.36-0.255,0.574c0.04,0.132,0.078,0.261,0.116,0.389
		c0.155,0.527-0.009,0.914-0.486,1.155c-1.119,0.564-2.247,1.112-3.35,1.705c-0.17,0.091-0.314,0.143-0.447,0.143
		c-0.17,0-0.323-0.084-0.492-0.279c-0.362-0.417-0.787-0.78-1.191-1.159c-0.074-0.069-0.19-0.166-0.268-0.166
		c-0.007,0-0.014,0.001-0.021,0.003c-0.297,0.081-0.591,0.168-0.886,0.256c-0.05,0.015-0.101,0.029-0.151,0.044
		c-0.013,0.004-0.024,0.008-0.037,0.012c-0.51,0.156-0.908,0.316-0.896,0.361c0.01,0.037,0.016,0.06,0.025,0.083
		c0.258,0.678,0.517,1.355,0.774,2.033c0.309,0.815,0.431,1.117,0.867,1.117c0.208,0,0.489-0.069,0.896-0.184
		c0.24-0.068,0.455-0.104,0.647-0.104c0.5,0,0.853,0.246,1.142,0.827c0.15,0.301,0.39,0.443,0.671,0.443
		c0.167,0,0.348-0.05,0.533-0.147c1.226-0.644,2.449-1.294,3.671-1.947c0.348-0.186,0.498-0.69,0.329-1.048
		c-0.076-0.161-0.151-0.321-0.228-0.484c-0.126-0.268,0.052-0.625,0.395-0.799c0.211-0.107,0.416-0.21,0.62-0.316
		c0.321-0.165,0.408-0.502,0.167-0.772c-0.359-0.402-0.724-0.797-1.093-1.194c-0.318-0.342-0.704-0.57-0.94-0.57
		C50.924,34.063,50.886,34.071,50.855,34.087z"/>
	<path fill="#1D1D1B" d="M11.191,36.606c0.204,0.105,0.408,0.208,0.619,0.314c0.342,0.172,0.516,0.528,0.386,0.796
		c-0.08,0.166-0.157,0.325-0.231,0.486c-0.169,0.365-0.016,0.859,0.337,1.047c1.221,0.653,2.444,1.304,3.671,1.947
		c0.177,0.093,0.343,0.138,0.497,0.138c0.278,0,0.519-0.148,0.718-0.436c0.158-0.228,0.327-0.449,0.471-0.685
		c0.093-0.152,0.194-0.21,0.341-0.21c0.045,0,0.095,0.005,0.15,0.015c0.619,0.112,1.246,0.18,1.87,0.264
		c0.026,0.004,0.05,0.005,0.073,0.005c0.19,0,0.286-0.116,0.353-0.314c0.154-0.449,0.339-0.887,0.507-1.331
		c0.101-0.265,0.201-0.531,0.302-0.799c0.164-0.437-0.12-0.919-0.633-1.082c-0.005-0.002-0.008-0.005-0.014-0.007
		c-0.137-0.042-0.272-0.078-0.408-0.118c-0.181-0.053-0.362-0.108-0.543-0.156c-0.018-0.005-0.038-0.007-0.058-0.007
		c-0.105,0-0.238,0.056-0.312,0.123c-0.458,0.419-0.907,0.847-1.339,1.292c-0.123,0.126-0.232,0.189-0.359,0.189
		c-0.085,0-0.178-0.029-0.287-0.086c-1.169-0.611-2.35-1.198-3.528-1.792c-0.48-0.242-0.639-0.6-0.489-1.12
		c0.039-0.134,0.08-0.268,0.122-0.403c0.069-0.222-0.043-0.486-0.25-0.59c-0.032-0.016-0.07-0.024-0.114-0.024
		c-0.237,0-0.622,0.228-0.94,0.57c-0.369,0.397-0.735,0.794-1.093,1.198C10.785,36.089,10.884,36.448,11.191,36.606z"/>
	<path fill="#1D1D1B" d="M29.599,35.237c-2.354-1.049-4.068-2.778-5.331-4.996c-0.077-0.135-0.293-0.263-0.451-0.271
		c-1.3-0.065-2.569-0.277-3.78-0.76c-0.289-0.115-0.571-0.247-0.856-0.385c-0.119-0.058-0.238-0.085-0.351-0.085
		c-0.329,0-0.608,0.233-0.69,0.622c-0.067,0.317-0.142,0.631-0.246,0.934c-0.247,0.721-0.136,1.34,0.24,1.979
		c0.171,0.291,0.344,0.481,0.671,0.59c2.668,0.881,5.373,1.617,8.14,2.112c0.585,0.105,1.173,0.189,1.762,0.273
		c0.458,0.065,0.846,0.109,0.964,0.109c0.023,0,0.036-0.002,0.037-0.005c0.006-0.021-0.016-0.058-0.048-0.08
		C29.64,35.259,29.62,35.246,29.599,35.237z M21.685,32.491c-0.124,0.114-0.261,0.172-0.402,0.172c-0.038,0-0.076-0.004-0.113-0.013
		c-0.193-0.043-0.331-0.18-0.404-0.417c-0.044-0.142-0.039-0.192,0.016-0.192c0.07,0,0.222,0.082,0.457,0.164
		C21.659,32.35,21.914,32.281,21.685,32.491z M21.715,31.961c-0.104,0.031-0.207,0.055-0.307,0.055
		c-0.023,0-0.045-0.001-0.067-0.004c-0.184-0.022-0.31-0.118-0.393-0.272c-0.057-0.106-0.059-0.147-0.012-0.147
		c0.06,0,0.201,0.067,0.41,0.151c0.115,0.046,0.227,0.061,0.327,0.061c0.182,0,0.323-0.049,0.372-0.049
		c0.011,0,0.017,0.002,0.018,0.008C22.072,31.811,21.917,31.9,21.715,31.961z M21.675,31.671c-0.008,0-0.016,0-0.024,0
		c-0.354,0-0.746-0.308-0.747-0.595c-0.001-0.261,0.377-0.596,0.683-0.604c0.005,0,0.01,0,0.015,0c0.339,0,0.609,0.308,0.621,0.712
		C22.231,31.461,22.009,31.658,21.675,31.671z"/>
	<polygon fill="#1D1D1B" points="21.651,31.547 21.651,31.672 21.658,31.546 	"/>
	<path fill="#1D1D1B" d="M46.055,31.844c0.062-0.223,0.25-0.455,0.213-0.653c-0.104-0.567-0.232-1.13-0.364-1.697
		c-0.123-0.527-0.259-0.942-0.308-0.942c-0.001,0-0.002,0-0.003,0.001c-0.032,0.012-0.059,0.022-0.083,0.036
		c-1.542,0.889-3.221,1.29-4.983,1.356c-0.325,0.012-0.485,0.126-0.638,0.397c-1.115,1.974-2.627,3.551-4.654,4.607
		c-0.074,0.038-0.147,0.077-0.221,0.115c-0.122,0.063-0.217,0.128-0.212,0.145c0.003,0.009,0.038,0.014,0.09,0.014
		c0.04,0,0.091-0.003,0.146-0.009c0.076-0.008,0.151-0.017,0.226-0.028c3.203-0.455,6.325-1.26,9.426-2.167
		C45.36,32.822,45.861,32.546,46.055,31.844z M41.766,31.208c-0.01-0.397,0.276-0.731,0.614-0.735c0.001,0,0.003,0,0.004,0
		c0,0,0,0,0,0c0.303,0,0.689,0.318,0.701,0.581c0.008,0.16-0.105,0.329-0.275,0.45c-0.131,0.093-0.322,0.135-0.499,0.135
		c-0.156,0-0.301-0.032-0.384-0.09C41.835,31.484,41.77,31.382,41.766,31.208z M42.598,31.78c0.202-0.065,0.349-0.119,0.417-0.119
		c0.055,0,0.059,0.035,0,0.129c-0.078,0.124-0.197,0.209-0.37,0.226c-0.019,0.002-0.038,0.003-0.057,0.003
		c-0.107,0-0.216-0.029-0.325-0.074C42.062,31.863,42.234,31.897,42.598,31.78z M43.218,32.259
		c-0.071,0.211-0.203,0.342-0.386,0.388c-0.042,0.011-0.084,0.016-0.126,0.016c-0.132,0-0.261-0.052-0.377-0.148
		c-0.23-0.191,0.02-0.172,0.416-0.302c0.215-0.071,0.366-0.139,0.443-0.139C43.252,32.073,43.265,32.122,43.218,32.259z"/>
	<path fill="#1D1D1B" d="M9.916,39.156c0.106,0.066,0.212,0.132,0.325,0.201c0.179,0.111,0.195,0.45,0.036,0.759
		c-0.097,0.189-0.191,0.374-0.281,0.561c-0.174,0.36-0.048,0.74,0.3,0.933c1.42,0.785,2.841,1.569,4.263,2.35
		c0.192,0.106,0.347,0.16,0.486,0.16c0.202,0,0.369-0.116,0.563-0.359c0.165-0.206,0.349-0.4,0.49-0.621
		c0.095-0.15,0.196-0.209,0.317-0.209c0.074,0,0.156,0.022,0.248,0.059c0.481,0.193,0.957,0.4,1.475,0.4
		c0.165,0,0.334-0.021,0.51-0.07c0.216-0.061,0.344-0.121,0.42-0.334c0.216-0.609,0.451-1.211,0.675-1.817
		c0.027-0.073,0.052-0.147,0.075-0.219c0.039-0.121-0.149-0.25-0.422-0.288c-0.17-0.023-0.331-0.047-0.492-0.078
		c-0.278-0.054-0.464-0.091-0.606-0.091c-0.289,0-0.394,0.152-0.714,0.617c-0.12,0.174-0.236,0.351-0.364,0.518
		c-0.051,0.067-0.135,0.161-0.198,0.161c-0.002,0-0.003,0-0.005,0c-0.427-0.034-0.907,0.019-1.266-0.163
		c-1.282-0.65-2.526-1.375-3.772-2.091c-0.162-0.093-0.279-0.289-0.381-0.458c-0.288-0.476-0.196-0.92,0.142-1.339
		c0.047-0.058,0.084-0.123,0.12-0.195c0.058-0.113-0.091-0.313-0.335-0.444c-0.149-0.08-0.296-0.156-0.447-0.224
		c-0.017-0.007-0.038-0.011-0.062-0.011c-0.079,0-0.184,0.038-0.225,0.088c-0.368,0.449-0.728,0.905-1.069,1.375
		C9.502,38.631,9.594,38.956,9.916,39.156z"/>
	<path fill="#1D1D1B" d="M52.942,36.918c-0.551,0.033-0.8,0.595-0.689,0.788c0.068,0.117,0.134,0.233,0.201,0.348
		c0.26,0.448,0.043,1.237-0.415,1.492c-1.197,0.669-2.405,1.319-3.588,2.012c-0.382,0.224-0.773,0.208-1.175,0.252
		c-0.03,0.003-0.059,0.005-0.087,0.005c-0.481,0-0.529-0.481-0.777-0.738c-0.081-0.084-0.152-0.186-0.202-0.292
		c-0.108-0.233-0.259-0.315-0.455-0.315c-0.079,0-0.164,0.013-0.257,0.035c-0.226,0.053-0.456,0.093-0.691,0.131
		c-0.384,0.061-0.539,0.527-0.345,1.044c0.183,0.488,0.369,0.981,0.559,1.473c0.023,0.06,0.113,0.127,0.177,0.132
		c0.288,0.025,0.57,0.085,0.858,0.085c0.189,0,0.381-0.026,0.579-0.107c0.418-0.17,0.67-0.268,0.868-0.268
		c0.297,0,0.47,0.221,0.894,0.749c0.205,0.255,0.369,0.376,0.572,0.376c0.141,0,0.3-0.058,0.505-0.171
		c1.386-0.763,2.771-1.528,4.157-2.293c0.483-0.267,0.584-0.609,0.329-1.104c-0.085-0.165-0.17-0.331-0.255-0.499
		c-0.14-0.276-0.111-0.586,0.063-0.693c0.107-0.066,0.211-0.13,0.314-0.194c0.389-0.24,0.444-0.536,0.165-0.91
		c-0.166-0.222-0.339-0.438-0.509-0.657c-0.365-0.468-0.532-0.683-0.769-0.683C52.958,36.918,52.95,36.918,52.942,36.918z"/>
	<path fill="#1D1D1B" d="M27.415,47.532c0.255-0.165,0.481-0.355,0.695-0.556c0.089-0.085,0.171-0.177,0.255-0.268
		c0.141-0.154,0.275-0.313,0.396-0.485c0.057-0.079,0.11-0.161,0.162-0.243c0.166-0.263,0.316-0.534,0.426-0.82
		c0-0.001,0-0.001,0-0.002c0.165-0.435-0.101-0.853-0.514-1.026c-0.076-0.032-0.148-0.071-0.232-0.084
		c-0.563-0.083-1.127-0.166-1.695-0.249c-0.239-0.035-0.459-0.052-0.632-0.052c-0.069,0-0.114,0.008-0.165,0.013
		c-0.114,0.012-0.199,0.032-0.201,0.07c-0.003,0.063-0.006,0.119-0.01,0.175c-0.008,0.112-0.046,0.207-0.064,0.313
		c-0.009,0.139-0.042,0.285-0.083,0.429c-0.009,0.034-0.014,0.07-0.026,0.102c-0.003,0.008-0.008,0.014-0.01,0.021
		c-0.082,0.225-0.198,0.426-0.331,0.613c-0.325,0.457-0.786,0.804-1.382,0.989c-0.114,0.035-0.226,0.057-0.338,0.079
		c-0.022,0.005-0.037,0.021-0.06,0.025c-0.137,0.022-0.275,0.032-0.413,0.032c-0.006,0-0.013-0.002-0.019-0.002
		c-0.021,0-0.042,0.005-0.062,0.005c-0.638,0-1.243-0.216-1.82-0.596c-0.096-0.063-0.201-0.114-0.321-0.169
		c-0.017-0.008-0.033-0.011-0.047-0.011c-0.14,0-0.146,0.353,0.188,0.726c0.844,0.942,2.622,1.808,3.871,1.808
		c0.046,0,0.092-0.001,0.137-0.004c0.374-0.02,0.746-0.108,1.11-0.233c0.409-0.14,0.802-0.34,1.171-0.59
		C27.405,47.539,27.41,47.536,27.415,47.532z"/>
	<path fill="#1D1D1B" d="M35.232,46.054c0.026,0.039,0.052,0.078,0.079,0.116c0.143,0.209,0.308,0.399,0.48,0.582
		c0.084,0.089,0.169,0.175,0.259,0.258c0.208,0.19,0.426,0.371,0.672,0.529c0.015,0.01,0.03,0.02,0.046,0.03
		c0.312,0.207,0.641,0.367,0.978,0.498c0,0,0.001,0,0.001,0l0.034,0.014c0.07,0.027,0.139,0.062,0.21,0.085
		c0.358,0.116,0.72,0.197,1.079,0.206c0.022,0.001,0.044,0.001,0.066,0.001c1.05,0,2.493-0.633,3.421-1.387
		c0.157-0.128,0.303-0.258,0.426-0.39c0.028-0.03,0.04-0.058,0.063-0.087c0.276-0.348,0.284-0.675,0.167-0.675
		c-0.008,0-0.017,0.002-0.027,0.005c-0.097,0.035-0.187,0.069-0.273,0.111c-0.319,0.155-0.615,0.366-0.946,0.483
		c-0.115,0.041-0.228,0.063-0.342,0.09c-0.029,0.013-0.069,0.016-0.1,0.026c-0.056,0.011-0.112,0.02-0.167,0.029
		c-0.077,0.012-0.138,0.039-0.229,0.039c-0.038,0-0.087-0.006-0.128-0.008c-0.021,0-0.042,0.005-0.063,0.005
		c-0.839,0-1.585-0.377-2.085-1.001c-0.273-0.341-0.469-0.756-0.563-1.232c-0.027-0.139-0.055-0.279-0.064-0.427
		c-0.003-0.048-0.01-0.096-0.018-0.15c-0.004-0.024-0.051-0.039-0.12-0.049c-0.052-0.008-0.113-0.013-0.193-0.013
		c-0.183,0-0.43,0.02-0.699,0.059c-0.562,0.082-1.123,0.165-1.685,0.247c-0.155,0.023-0.297,0.084-0.42,0.168
		c-0.294,0.2-0.461,0.542-0.356,0.893c0.006,0.018,0.006,0.037,0.013,0.055C34.867,45.471,35.039,45.767,35.232,46.054z"/>
	<path fill="#1D1D1B" d="M43.607,21.312c-0.053,0.049-0.15,0.167-0.218,0.263c-0.035,0.05-0.074,0.097-0.116,0.14
		c-0.007,0.008-0.012,0.017-0.02,0.024c-0.267,0.259-0.553,0.484-0.836,0.713c-1.303,1.049-2.772,1.793-4.443,2.172
		c-0.095,0.022-0.246,0.116-0.249,0.182c-0.01,0.285-0.013,0.571-0.013,0.861c0,0.447,0.398,0.806,0.903,0.806
		c0.032,0,0.064-0.001,0.097-0.004c1.163-0.105,2.27-0.346,3.338-0.783c0.79-0.324,1.499-0.772,2.056-1.438
		c0.2-0.239,0.279-0.466,0.188-0.791c-0.172-0.608-0.281-1.234-0.428-1.85c-0.013-0.055-0.036-0.107-0.06-0.16
		c-0.005-0.012-0.008-0.024-0.013-0.036c-0.016-0.034-0.037-0.06-0.058-0.08c-0.026-0.024-0.052-0.039-0.078-0.039
		C43.639,21.292,43.622,21.299,43.607,21.312z"/>
	<path fill="#1D1D1B" d="M55.583,44.087c0.01-0.19,0.012-0.381,0.011-0.58c-0.001-0.306-0.036-0.539-0.078-0.539
		c-0.002,0-0.004,0.001-0.006,0.002c-0.039,0.021-0.061,0.032-0.079,0.048c-2.103,1.934-4.585,3.221-7.226,4.237
		c-0.115,0.044-0.251,0.082-0.375,0.082c-0.04,0-0.079-0.004-0.116-0.013c-0.226-0.054-0.449-0.121-0.677-0.192
		c-0.071-0.022-0.14-0.033-0.204-0.033c-0.272,0-0.469,0.188-0.47,0.483c0,0.22,0.002,0.44,0.01,0.661
		c0.003,0.082,0.083,0.192,0.159,0.236c0.443,0.262,0.903,0.447,1.392,0.447c0.208,0,0.421-0.033,0.641-0.108
		c0.461-0.157,0.937-0.282,1.377-0.485c2.073-0.959,3.82-2.383,5.493-3.906C55.516,44.348,55.576,44.203,55.583,44.087z"/>
	<path fill="#1D1D1B" d="M17.372,47.01c-0.02,0-0.04,0.003-0.06,0.011c-0.117,0.041-0.226,0.078-0.337,0.113
		c-0.213,0.068-0.426,0.144-0.645,0.184c-0.05,0.009-0.102,0.014-0.156,0.014c-0.09,0-0.182-0.014-0.262-0.043
		c-2.286-0.849-4.44-1.944-6.37-3.449c-0.18-0.141-0.356-0.288-0.53-0.437c-0.274-0.235-0.512-0.413-0.549-0.413
		c-0.002,0-0.003,0-0.004,0.001c-0.013,0.015-0.023,0.027-0.024,0.039c-0.007,0.263-0.039,0.531-0.004,0.789
		c0.032,0.229,0.071,0.534,0.225,0.658c1.304,1.046,2.61,2.092,3.967,3.067c0.834,0.599,1.786,0.999,2.791,1.274
		c0.229,0.063,0.45,0.092,0.663,0.092c0.497,0,0.958-0.16,1.406-0.433c0.08-0.049,0.153-0.179,0.157-0.274
		c0.008-0.216,0.01-0.433,0.01-0.65C17.651,47.234,17.53,47.01,17.372,47.01z"/>
	<path fill="#1D1D1B" d="M30.715,34.145c0.138,0.109,0.256,0.159,0.346,0.159c0.192,0,0.253-0.224,0.095-0.566
		c-0.361-0.782-0.722-1.564-1.093-2.367c-0.212-0.459-0.294-0.79-0.202-0.79c0.009,0,0.019,0.003,0.03,0.009
		c0.012,0.006,0.024,0.009,0.038,0.009c0.148,0,0.414-0.332,0.626-0.791c0.106-0.23,0.212-0.46,0.318-0.69
		c0.231-0.502-0.024-0.973-0.57-1.054c-0.761-0.113-1.514-0.224-2.266-0.335c-0.049-0.007-0.097-0.011-0.143-0.011
		c-0.477,0-0.83,0.364-0.706,0.851C27.669,30.448,29.296,33.019,30.715,34.145z"/>
	<path fill="#1D1D1B" d="M33.127,33.7c-0.149,0.323-0.122,0.508,0.031,0.508c0.085,0,0.209-0.057,0.363-0.179
		c1.797-1.422,2.846-3.312,3.48-5.497c0.139-0.479-0.129-0.826-0.585-0.826c-0.049,0-0.099,0.004-0.152,0.012
		c-0.772,0.12-1.531,0.237-2.294,0.355c-0.546,0.085-0.801,0.559-0.569,1.06c0.102,0.221,0.204,0.441,0.305,0.66
		c0.215,0.466,0.486,0.809,0.63,0.809c0.011,0,0.021-0.002,0.031-0.006c0.009-0.004,0.018-0.006,0.025-0.006
		c0.097,0,0.013,0.344-0.202,0.809C33.829,32.182,33.477,32.944,33.127,33.7z"/>
	<path fill="#1D1D1B" d="M20.972,39.31c-0.367,1.146,0.114,2.097,0.925,2.976c0.305,0.33,0.451,0.524,0.357,0.524
		c-0.022,0-0.056-0.01-0.103-0.031c-0.032-0.014-0.062-0.021-0.091-0.021c-0.202,0-0.321,0.332-0.274,0.813
		c0.046,0.474,0.094,0.932,0.164,1.386c0.055,0.356,0.209,0.704,0.362,1.035c0.063,0.137,0.228,0.293,0.368,0.318
		c0.165,0.03,0.328,0.045,0.492,0.046c0.006,0,0.013,0.002,0.019,0.002c0.125,0,0.25-0.009,0.374-0.029
		c0.022-0.004,0.034-0.018,0.054-0.024c0.359-0.091,0.487-0.42,0.377-0.717c-0.022-0.061-0.038-0.123-0.081-0.178
		c-0.161-0.205-0.324-0.405-0.5-0.594c-0.267-0.287-0.342-0.528-0.049-0.83c0.214-0.22,0.219-0.454,0.104-0.751
		c-0.175-0.452-0.292-0.929-0.411-1.401c-0.204-0.812-0.281-1.614,0.28-2.338c0.006-0.008,0.003-0.022-0.001-0.037
		c-0.002-0.009-0.007-0.013-0.012-0.013c-0.006,0-0.014,0.006-0.022,0.019c0,0.001-0.002,0.001-0.003,0.001
		c-0.001,0-0.001,0.001-0.002,0.001c-0.048,0-0.43-0.2-0.883-0.465c-0.047-0.028-0.095-0.055-0.142-0.083
		c-0.16-0.094-0.341-0.14-0.516-0.14C21.412,38.78,21.084,38.96,20.972,39.31z"/>
	<path fill="#1D1D1B" d="M32.129,34.538c0.15,0,0.3-0.125,0.416-0.374c0.294-0.635,0.579-1.251,0.862-1.862
		c0.232-0.501,0.398-0.919,0.371-0.934c-0.001,0-0.002-0.001-0.003-0.001c-0.042,0-0.358,0.269-0.555,0.719
		c-0.119,0.272-0.222,0.409-0.267,0.409c-0.031,0-0.034-0.066,0.006-0.198c0.074-0.244,0.036-0.392-0.083-0.392
		c-0.038,0-0.084,0.015-0.138,0.047c-0.143,0.085-0.272,0.16-0.406,0.226c-0.063,0.031-0.152,0.054-0.23,0.054
		c-0.044,0-0.086-0.007-0.117-0.025c-0.251-0.139-0.499-0.285-0.745-0.433c-0.408-0.245-0.539-0.846-0.293-1.34
		c0.05-0.1,0.099-0.2,0.149-0.299c0.243-0.489,0.459-0.878,0.486-0.878c0,0,0.001,0,0.001,0c0.023,0.01-0.11,0.438-0.296,0.958
		c-0.029,0.081-0.058,0.161-0.087,0.242c-0.186,0.52-0.195,1.005-0.02,1.084c0.108,0.048,0.212,0.094,0.318,0.137
		c0.181,0.073,0.391,0.221,0.554,0.221c0.023,0,0.045-0.003,0.065-0.009c0.315-0.098,0.623-0.216,0.934-0.343
		c0.51-0.207,0.734-0.786,0.503-1.288c-0.334-0.724-0.665-1.441-1.001-2.171c-0.116-0.251-0.267-0.376-0.419-0.376
		c-0.152,0-0.303,0.125-0.419,0.376c-0.457,0.99-0.897,1.944-1.333,2.899c-0.027,0.06-0.021,0.155,0.006,0.217
		c0.433,0.971,0.87,1.941,1.326,2.954C31.828,34.411,31.978,34.538,32.129,34.538z"/>
	<path fill="#1D1D1B" d="M42.924,39.287c-0.11-0.282-0.375-0.437-0.68-0.437c-0.162,0-0.336,0.044-0.505,0.136
		c-0.033,0.018-0.067,0.036-0.1,0.055c-0.379,0.207-0.49,0.594-0.482,1.013c0.002,0.117,0.011,0.237,0.03,0.356
		c0.057,0.364,0.013,0.754-0.078,1.149c-0.118,0.513-0.228,1.034-0.42,1.522c-0.158,0.403-0.155,0.728,0.14,1.043
		c0.177,0.189,0.147,0.35-0.02,0.545c-0.191,0.223-0.375,0.452-0.562,0.687c-0.074,0.093-0.135,0.185-0.183,0.272
		c-0.153,0.273-0.181,0.5-0.047,0.555c0.115,0.048,0.221,0.087,0.33,0.103c0.263,0.039,0.471,0.062,0.653,0.071
		c0.041,0.002,0.089,0.008,0.126,0.008c0.168,0,0.3-0.026,0.412-0.079c0.271-0.129,0.411-0.439,0.563-1.073
		c0.011-0.047,0.016-0.097,0.026-0.145c0.106-0.489,0.163-0.991,0.211-1.513c0.004-0.046,0-0.083,0.002-0.126
		c0.013-0.405-0.093-0.68-0.276-0.68c-0.03,0-0.062,0.007-0.095,0.022c-0.115,0.052-0.206,0.076-0.261,0.076
		c-0.069,0-0.083-0.038-0.019-0.108c0.07-0.077,0.147-0.147,0.229-0.208c0.525-0.386,0.836-0.904,1.071-1.469
		c0.006-0.012,0.01-0.024,0.016-0.036c0.076-0.187,0.145-0.378,0.21-0.571c0.039-0.117,0.044-0.271,0.003-0.385
		C43.125,39.806,43.024,39.543,42.924,39.287z"/>
	<path fill="#1D1D1B" d="M36.088,51.009c-0.132,0-0.282,0.055-0.441,0.167c-1.204,0.855-2.399,1.28-3.591,1.28
		c-1.221,0-2.439-0.446-3.663-1.331c-0.174-0.126-0.335-0.188-0.47-0.188c-0.212,0-0.358,0.154-0.383,0.454
		c-0.025,0.306-0.053,0.599-0.094,0.889c-0.04,0.286,0.029,0.394,0.311,0.458c1.483,0.339,2.974,0.539,4.475,0.539
		c0.759,0,1.52-0.051,2.284-0.161c0.398-0.057,0.794-0.138,1.191-0.224c0.54-0.117,0.925-0.656,0.86-1.204
		c-0.005-0.046-0.011-0.092-0.016-0.138C36.509,51.196,36.331,51.01,36.088,51.009z"/>
	<path fill="#1D1D1B" d="M21.879,37.156c-0.073,0.181-0.148,0.37-0.217,0.562c-0.027,0.075,0.009,0.228,0.069,0.271
		c0.222,0.159,0.448,0.314,0.671,0.465c0.18,0.122,0.362,0.182,0.514,0.182c0.164,0,0.293-0.07,0.345-0.208
		c0.082-0.214-0.049-0.589-0.294-0.922c-0.086-0.042-0.168-0.1-0.239-0.176c-0.068-0.072-0.13-0.156-0.192-0.239
		c-0.128-0.08-0.252-0.135-0.359-0.135C22.041,36.956,21.933,37.021,21.879,37.156z"/>
	<path fill="#1D1D1B" d="M22.479,36.533c0.083,0.163,0.192,0.294,0.297,0.43c0.047,0.062,0.082,0.139,0.134,0.195
		c0.065,0.07,0.136,0.111,0.207,0.138c0.05,0.019,0.101,0.034,0.15,0.034c0.187,0,0.353-0.131,0.407-0.34
		c0.088-0.343-0.223-0.854-0.487-1.31c-0.138-0.239-0.27-0.367-0.394-0.367c-0.112,0-0.217,0.105-0.314,0.329
		C22.363,35.913,22.306,36.195,22.479,36.533z"/>
	<path fill="#1D1D1B" d="M41.267,35.407c-0.142,0-0.316,0.124-0.472,0.359c-0.267,0.403-0.42,0.979-0.342,1.288
		c0.047,0.187,0.199,0.302,0.374,0.302c0.046,0,0.095-0.014,0.142-0.031c0.05-0.06,0.097-0.125,0.151-0.176
		c0.055-0.051,0.114-0.078,0.171-0.118c0.108-0.132,0.219-0.26,0.296-0.422c0.066-0.137,0.154-0.314,0.117-0.439
		c-0.059-0.196-0.129-0.388-0.202-0.571C41.453,35.47,41.368,35.407,41.267,35.407z"/>
	<path fill="#1D1D1B" d="M41.835,37.068c-0.11,0-0.237,0.057-0.365,0.139c-0.059,0.038-0.119,0.069-0.177,0.125
		c-0.068,0.064-0.125,0.137-0.18,0.209c-0.233,0.304-0.351,0.656-0.262,0.868c0.065,0.156,0.215,0.239,0.392,0.239
		c0.12,0,0.253-0.038,0.381-0.117c0.19-0.117,0.38-0.238,0.567-0.365c0.089-0.061,0.19-0.23,0.165-0.311
		c-0.06-0.193-0.13-0.384-0.2-0.566C42.097,37.141,41.98,37.068,41.835,37.068z"/>
	<path fill="#1D1D1B" d="M25.738,35.345c0.221-0.106-0.005-0.209-0.542-0.337c-0.32-0.076-0.641-0.153-0.968-0.231
		c-0.243-0.058-0.463-0.086-0.629-0.086c-0.201,0-0.323,0.041-0.314,0.122c0.011,0.103,0.064,0.163,0.13,0.163
		c0.029,0,0.06-0.011,0.092-0.035c0.074-0.055,0.139-0.099,0.197-0.099c0.005,0,0.011,0,0.016,0.001
		c0.395,0.058,0.797,0.131,1.166,0.276c0.293,0.115,0.447,0.401,0.276,0.718c-0.109,0.202-0.277,0.279-0.466,0.279
		c-0.095,0-0.195-0.019-0.295-0.053c-0.088-0.029-0.173-0.068-0.269-0.115c-0.016-0.008-0.028-0.012-0.035-0.012
		c-0.06,0,0.155,0.234,0.61,0.417c0.175,0.07,0.359,0.127,0.543,0.167c0.122,0.026,0.225,0.038,0.309,0.038
		c0.288,0,0.348-0.14,0.142-0.309c-0.192-0.157-0.238-0.319-0.201-0.554C25.53,35.5,25.619,35.401,25.738,35.345z"/>
	<path fill="#1D1D1B" d="M38.506,36.543c0.085,0,0.196-0.011,0.332-0.034c0.138-0.023,0.274-0.054,0.406-0.095
		c0.484-0.151,0.707-0.413,0.632-0.413c-0.007,0-0.016,0.002-0.027,0.006c-0.085,0.033-0.17,0.066-0.257,0.084
		c-0.063,0.014-0.126,0.021-0.187,0.021c-0.203,0-0.381-0.083-0.486-0.299c-0.136-0.28-0.004-0.487,0.212-0.645
		c0.011-0.008,0.019-0.018,0.031-0.026c0.084-0.057,0.172-0.109,0.261-0.159c0,0,0.001,0,0.001-0.001
		c0.002-0.001,0.004-0.003,0.006-0.004c0.064-0.036,0.056-0.054-0.01-0.054c-0.062,0-0.191,0.021-0.344,0.051
		c-0.068,0.013-0.129,0.024-0.21,0.043c-0.464,0.107-0.709,0.273-0.547,0.374c0.109,0.068,0.206,0.143,0.238,0.239
		c0.097,0.292,0.023,0.481-0.128,0.62C38.222,36.442,38.249,36.543,38.506,36.543z"/>
	<path fill="#1D1D1B" d="M34.694,36.237c0.03-0.01,0.056-0.018,0.081-0.029c0.173-0.07,0.339-0.127,0.498-0.127
		c0.181,0,0.353,0.073,0.52,0.283c0.062,0.078,0.166,0.123,0.279,0.159c0.024,0.008,0.042,0.012,0.054,0.012
		c0.079,0-0.03-0.148-0.038-0.439c-0.008-0.267-0.112-0.504-0.41-0.504c-0.081,0-0.176,0.017-0.287,0.056
		c-0.003,0.001-0.006,0.002-0.008,0.003c-0.511,0.183-0.728,0.586-0.691,0.586C34.692,36.237,34.693,36.237,34.694,36.237z"/>
	<path fill="#1D1D1B" d="M28.426,36.279c0.174-0.081,0.365-0.162,0.551-0.17c0.005,0,0.01,0,0.016,0
		c0.086,0,0.174,0.029,0.279,0.069c0.013,0.005,0.024,0.007,0.033,0.007c0.093,0-0.091-0.278-0.542-0.507
		c-0.025-0.013-0.05-0.024-0.074-0.035c-0.11-0.048-0.204-0.069-0.282-0.069c-0.282,0-0.375,0.271-0.396,0.533
		c-0.021,0.259-0.096,0.387-0.037,0.387c0.017,0,0.047-0.011,0.092-0.033C28.191,36.399,28.306,36.334,28.426,36.279z"/>
	<path fill="#1D1D1B" d="M26.276,35.962c0.107-0.165,0.348-0.097,0.368-0.133c0.02-0.036-0.059-0.123-0.178-0.192
		c-0.073-0.042-0.145-0.076-0.214-0.076c-0.006,0-0.013,0-0.019,0.001c-0.115,0.011-0.298,0.207-0.297,0.32
		c0,0.074,0.044,0.149,0.099,0.223c0.025,0.034,0.047,0.049,0.069,0.049C26.154,36.154,26.202,36.076,26.276,35.962z"/>
	<path fill="#1D1D1B" d="M37.836,35.561c-0.069,0-0.14,0.036-0.212,0.082c-0.114,0.072-0.199,0.159-0.192,0.193
		c0.002,0.009,0.017,0.011,0.042,0.011c0.015,0,0.033-0.001,0.053-0.001c0.076,0,0.184,0.009,0.27,0.091
		c0.109,0.105,0.142,0.207,0.191,0.207c0.017,0,0.035-0.012,0.059-0.04c0.066-0.076,0.111-0.155,0.108-0.232
		c-0.004-0.114-0.188-0.303-0.303-0.312C37.846,35.561,37.841,35.561,37.836,35.561z"/>
	<path fill="#1D1D1B" d="M40.675,35.014c0.017,0.02,0.034,0.03,0.049,0.03c0.041,0,0.075-0.07,0.092-0.195
		c0.018-0.126-0.102-0.201-0.289-0.201c-0.009,0-0.021,0.004-0.03,0.004c-0.059,0.002-0.122,0.008-0.191,0.025
		c-0.294,0.073-0.37,0.15-0.179,0.15c0.008,0,0.016,0,0.025,0c0.005,0,0.009,0,0.014,0c0.014,0,0.028-0.001,0.042-0.001
		c0.112,0,0.223,0.014,0.326,0.072c0.002,0.001,0.004,0.001,0.006,0.002C40.587,34.927,40.632,34.964,40.675,35.014z"/>
</g>
</svg>
