<?xml version="1.0" encoding="utf-8"?>
<!-- Generator: Adobe Illustrator 17.0.0, SVG Export Plug-In . SVG Version: 6.00 Build 0)  -->
<!DOCTYPE svg PUBLIC "-//W3C//DTD SVG 1.1//EN" "http://www.w3.org/Graphics/SVG/1.1/DTD/svg11.dtd">
<svg version="1.1" id="Capa_1" xmlns="http://www.w3.org/2000/svg" xmlns:xlink="http://www.w3.org/1999/xlink" x="0px" y="0px"
	 width="64px" height="64px" viewBox="0 0 64 64" enable-background="new 0 0 64 64" xml:space="preserve">
<g>
	<path fill="#1D1D1B" d="M32.816,28.314l8.263-11.396c0.038-0.225,0.07-0.452,0.098-0.687c0.144-1.226-0.577-3.75-2.885-5.481
		c-0.938-0.577-6.49-3.966-7.356-4.976c-0.865,1.01-6.418,4.399-7.356,4.976c-2.308,1.731-3.029,4.255-2.885,5.481
		c0.035,0.296,0.074,0.578,0.127,0.86c0.116,0.064,0.222,0.152,0.308,0.264l8.286,10.84c0.172-0.058,0.34-0.123,0.52-0.162V24.02
		c0-0.553,0.447-1,1-1s1,0.447,1,1v4.014C32.242,28.099,32.536,28.193,32.816,28.314z"/>
	<path fill="#1D1D1B" d="M13.133,37.458l13.092-4.411c-0.01-0.126-0.038-0.246-0.038-0.374c0-0.163,0.032-0.318,0.048-0.477
		l-3.837-1.246c-0.525-0.171-0.813-0.734-0.643-1.26s0.736-0.812,1.26-0.643l3.835,1.245c0.231-0.394,0.507-0.755,0.837-1.066
		l-8.146-10.657c-0.088-0.116-0.144-0.245-0.175-0.378c-0.229-0.122-0.461-0.236-0.706-0.348c-1.121-0.516-3.745-0.61-6.104,1.05
		c-0.838,0.713-5.778,4.947-7.005,5.458c0.693,1.135,2.2,7.464,2.459,8.533c0.933,2.73,3.111,4.195,4.321,4.437
		C12.604,37.376,12.868,37.422,13.133,37.458z"/>
	<path fill="#1D1D1B" d="M26.659,40.262c-0.195,0.27-0.5,0.412-0.81,0.412c-0.204,0-0.409-0.062-0.587-0.191
		c-0.446-0.324-0.546-0.949-0.221-1.396l2.369-3.26c-0.236-0.263-0.437-0.552-0.61-0.863l-13.255,4.466
		c-0.104,0.106-0.206,0.215-0.31,0.328c-0.837,0.907-1.738,3.373-0.888,6.129c0.419,1.018,2.92,7.024,3.026,8.349
		c1.294-0.308,7.778,0.214,8.876,0.298c2.884-0.044,4.951-1.662,5.555-2.738c0.125-0.223,0.24-0.441,0.349-0.661v-13.79
		c-0.396-0.066-0.776-0.174-1.133-0.332L26.659,40.262z"/>
	<path fill="#1D1D1B" d="M48.463,39.128l-13.236-4.45c-0.198,0.421-0.457,0.804-0.764,1.147l2.369,3.261
		c0.325,0.447,0.226,1.072-0.221,1.396c-0.178,0.129-0.383,0.191-0.587,0.191c-0.31,0-0.614-0.143-0.81-0.412l-2.362-3.251
		c-0.223,0.099-0.46,0.17-0.7,0.234v13.984c0.079,0.152,0.16,0.303,0.247,0.457c0.604,1.077,2.671,2.695,5.555,2.739
		c1.097-0.084,7.582-0.606,8.876-0.298c0.106-1.326,2.607-7.332,3.026-8.349c0.85-2.757-0.05-5.222-0.888-6.13
		C48.801,39.466,48.634,39.295,48.463,39.128z"/>
	<path fill="#1D1D1B" d="M49.444,18.719c-2.359-1.66-4.983-1.566-6.104-1.05c-0.177,0.082-0.348,0.165-0.516,0.25l-8.388,11.569
		c0.225,0.247,0.419,0.517,0.588,0.806l3.835-1.246c0.523-0.171,1.088,0.117,1.26,0.643c0.171,0.524-0.117,1.089-0.643,1.26
		l-3.837,1.247c0.016,0.159,0.048,0.313,0.048,0.476c0,0.016-0.005,0.031-0.005,0.047l13.454,4.524
		c0.176-0.029,0.352-0.06,0.532-0.097c1.211-0.242,3.388-1.707,4.321-4.437c0.259-1.07,1.766-7.398,2.459-8.533
		C55.221,23.666,50.282,19.432,49.444,18.719z"/>
	<path fill="#1D1D1B" d="M33.579,33.391c0.006-0.021,0.014-0.04,0.019-0.061c0.052-0.212,0.088-0.43,0.088-0.658
		c0-0.906-0.445-1.703-1.122-2.205c-0.017-0.013-0.032-0.028-0.049-0.04c-0.448-0.316-0.99-0.505-1.579-0.505
		c-0.067,0-0.13,0.015-0.195,0.02c-0.462,0.033-0.892,0.174-1.263,0.408c-0.018,0.011-0.039,0.019-0.056,0.031
		c-0.19,0.126-0.357,0.279-0.51,0.447c-0.445,0.489-0.724,1.132-0.724,1.845c0,0.251,0.045,0.489,0.108,0.72
		c0.006,0.021,0.013,0.041,0.019,0.061c0.339,1.135,1.38,1.969,2.623,1.969c0.022,0,0.043-0.006,0.065-0.007
		c0.022,0,0.042-0.005,0.064-0.006C32.274,35.353,33.272,34.518,33.579,33.391z"/>
</g>
</svg>
