<?xml version="1.0" encoding="utf-8"?>
<!-- Generator: Adobe Illustrator 17.0.0, SVG Export Plug-In . SVG Version: 6.00 Build 0)  -->
<!DOCTYPE svg PUBLIC "-//W3C//DTD SVG 1.1//EN" "http://www.w3.org/Graphics/SVG/1.1/DTD/svg11.dtd">
<svg version="1.1" id="Layer_1" xmlns="http://www.w3.org/2000/svg" xmlns:xlink="http://www.w3.org/1999/xlink" x="0px" y="0px"
	 width="64px" height="64px" viewBox="0 0 64 64" enable-background="new 0 0 64 64" xml:space="preserve">
<path d="M29.079,47.651c3.019,0,5.474-2.455,5.474-5.474s-2.455-5.474-5.474-5.474s-5.474,2.455-5.474,5.474
	S26.061,47.651,29.079,47.651z M29.109,39.314c0.774,0.166,1.352-0.157,1.861-0.697c0.208-0.221,0.627-0.266,0.901-0.133
	c0.26,0.126,0.322,0.527,0.083,0.778c-0.136,0.143-0.331,0.273-0.52,0.312c-0.52,0.109-0.97,0.351-1.415,0.619
	c-0.062,0.037-0.129,0.067-0.197,0.095c-0.112,0.045-0.496,0.064-0.737-0.159c-0.145-0.134-0.237-0.314-0.252-0.524
	C28.819,39.416,28.897,39.269,29.109,39.314z M27.393,38.429c0.309,0.11,0.62,0.233,0.897,0.404c0.075,0.046,0.13,0.123,0.181,0.207
	c0.079,0.131,0.138,0.446-0.019,0.61c-0.091,0.095-0.215,0.137-0.377,0.127c-0.594-0.037-1.018-0.484-1.02-1.076
	C27.054,38.464,27.172,38.351,27.393,38.429z M25.14,43.302c0.394-0.338,0.83-0.63,1.202-0.989c0.214-0.206,0.415-0.426,0.613-0.65
	c0.327-0.37,0.577-0.685,0.561-0.702c-0.016-0.017-0.178,0.033-0.361,0.111c-0.111,0.047-0.222,0.093-0.335,0.133
	c-0.584,0.21-1.032,0.014-1.241-0.533c-0.109-0.285-0.018-0.591,0.231-0.75c0.239-0.153,0.418-0.038,0.604,0.128
	c0.297,0.265,0.647,0.282,1.007,0.145c0.203-0.077,0.397-0.176,0.598-0.258c0.288-0.118,0.465-0.074,0.633,0.187
	c0.1,0.156,0.152,0.343,0.244,0.505c0.056,0.099,0.133,0.208,0.229,0.252c0.048,0.022,0.158-0.092,0.24-0.142
	c0.173-0.106,0.337-0.246,0.525-0.302c0.098-0.029,0.32,0.071,0.344,0.154c0.04,0.135,0.004,0.33-0.074,0.452
	c-0.151,0.237-0.128,0.439,0.133,0.5c0.196,0.046,0.407,0.072,0.605,0.05c0.383-0.042,0.539-0.355,0.372-0.703
	c-0.061-0.127-0.147-0.242-0.217-0.365c-0.133-0.23-0.06-0.384,0.203-0.36c0.658,0.061,1.264,0.477,1.006,1.32
	c-0.134,0.439-0.463,0.702-0.898,0.828c-0.163,0.048-0.332,0.075-0.5,0.104c-0.337,0.058-0.588,0.334-0.654,0.672
	c-0.017,0.086-0.049,0.17-0.086,0.253c-0.06,0.135,0.019,0.406,0.184,0.344c0.064-0.024,0.097-0.114,0.128-0.281
	c0.034-0.183,0.085-0.369,0.166-0.535c0.034-0.07,0.168-0.127,0.253-0.124c0.067,0.003,0.158,0.097,0.188,0.171
	c0.048,0.12,0.079,0.257,0.072,0.385c-0.013,0.254,0.117,0.312,0.332,0.297c0.112-0.008,0.23-0.022,0.337,0.003
	c0.081,0.019,0.209,0.095,0.209,0.146c0,0.082-0.071,0.189-0.143,0.239c-0.114,0.079-0.25,0.15-0.385,0.17
	c-0.201,0.029-0.245,0.14-0.294,0.314c-0.048,0.17-0.146,0.354-0.278,0.465c-0.215,0.181-0.436,0.097-0.487-0.217
	c-0.052-0.327-0.205-0.395-0.488-0.367c-0.049,0.005-0.099-0.002-0.15-0.011c-0.082-0.016-0.21,0.207-0.055,0.413
	c0.085,0.114,0.219,0.201,0.39,0.239c0.742,0.165,1.429,0.05,1.983-0.516c0.465-0.475,0.282-1.215-0.352-1.447
	c-0.142-0.052-0.299-0.067-0.431-0.135c-0.077-0.039-0.155-0.147-0.16-0.229c-0.004-0.057,0.111-0.127,0.18-0.182
	c0.026-0.021,0.071-0.023,0.108-0.028c0.44-0.067,1.29,0.325,1.51,0.695c0.265,0.447,0.188,1.182-0.163,1.631
	c-0.546,0.698-2.209,1.333-3.294,0.796c-0.824-0.407-1.132-1.487-0.609-2.244c0.023-0.034,0.034-0.076,0.043-0.12
	c0.013-0.07-0.032-0.138-0.1-0.151c-0.041-0.008-0.082-0.018-0.122-0.03c-0.162-0.049-0.324-0.098-0.481-0.161
	c-0.099-0.039-0.196-0.081-0.293-0.124c-0.161-0.071-0.294-0.133-0.297-0.137c-0.004-0.004,0.118-0.117,0.138-0.298
	c0.019-0.18-0.328-0.242-0.378-0.088c-0.02,0.063,0.027,0.133,0.134,0.247c0.019,0.02,0.036,0.043,0.052,0.066
	c0.026,0.039,0.048,0.073,0.053,0.076c0.005,0.002,0.246,0.176,0.37,0.49c0.072,0.182,0.097,0.384,0.084,0.601
	c-0.005,0.085-0.009,0.171-0.028,0.253c-0.097,0.421-0.066,0.838,0.011,1.259c0.051,0.279-0.071,0.503-0.32,0.639
	c-0.201,0.11-0.415,0.148-0.611-0.015c-0.227-0.189-0.321-0.656-0.215-0.943c0.087-0.235,0.213-0.478,0.214-0.718
	c0.001-0.428-0.075-0.858-0.138-1.283c-0.006-0.041-0.173-0.108-0.228-0.083c-0.143,0.066-0.263,0.182-0.397,0.27
	c-0.276,0.18-0.555,0.358-0.836,0.531c-0.054,0.033-0.126,0.061-0.187,0.056c-0.095-0.008-0.252-0.026-0.267-0.075
	C25.046,43.508,25.075,43.357,25.14,43.302z"/>
<path d="M29.256,42.835c0.159-0.28,0.419-0.21,0.66-0.218c0.028-0.001,0.055-0.005,0.083-0.011c0.045-0.009,0.08-0.035,0.077-0.058
	s-0.164-0.099-0.36-0.17c-0.196-0.071-0.281-0.004-0.368,0.092c-0.044,0.049-0.122,0.076-0.206,0.106
	c-0.076,0.028-0.128,0.144-0.168,0.231c-0.013,0.029,0.055,0.132,0.064,0.129C29.117,42.914,29.223,42.893,29.256,42.835z"/>
<path d="M14.067,53.531c0.002,0,1.027,0.651,2.999,0.651c1.406,0,2.947-0.34,4.578-0.978c0.326-0.127-0.334-1.901-0.43-2.092
	c-0.501-0.988-1.422-1.84-2.449-2.264c-0.208-0.086-0.404-0.167-0.585-0.242c-0.181-0.091-0.363-0.101-0.519-0.141
	c-0.159-0.033-0.298-0.063-0.412-0.087c-0.232-0.048-0.364-0.076-0.364-0.076s0.134-0.004,0.369-0.01
	c0.119-0.003,0.264-0.007,0.43-0.011c0.166,0.004,0.361-0.029,0.561,0.019c2.301,0.546,4.621,1.774,5.207,4.275
	c0.037,0.16,0.069,0.299,0.096,0.414c0.008,0.034,0.011,0.049,0.018,0.078c1.501,0.13,4.103,0.335,5.514,0.335
	c0.952,0,1.904-0.064,2.853-0.128c0.602-0.041,1.994,0.144,2.508-0.19c0.293-0.191,0.268-0.562,0.381-0.9
	c0.253-0.759,0.694-1.482,1.245-2.062c1.13-1.187,2.774-1.882,4.409-1.841c0.166,0.004,0.31,0.008,0.43,0.011
	c0.235,0.006,0.369,0.01,0.369,0.01s-0.132,0.028-0.364,0.076c-0.114,0.024-0.253,0.053-0.412,0.087
	c-0.156,0.041-0.338,0.05-0.519,0.141c-0.181,0.075-0.378,0.156-0.585,0.242c-0.211,0.069-0.41,0.196-0.609,0.332
	c-0.196,0.138-0.417,0.246-0.601,0.413c-0.177,0.169-0.356,0.341-0.536,0.512c-0.181,0.164-0.292,0.393-0.437,0.576l-0.2,0.282
	l-0.132,0.311c-0.078,0.202-0.19,0.39-0.231,0.568c-0.028,0.177-0.057,0.335-0.089,0.476c-0.017,0.07-0.033,0.136-0.048,0.2
	c0,0.092,0,0.179,0.001,0.261c0.001,0.164,0.001,0.307,0.002,0.425c1.631,0.638,3.172,0.978,4.579,0.978
	c1.985,0,3.011-0.661,3.021-0.668c9.062-6.808,1.368-23.531-1.328-28.711c-0.206-0.326-0.418-0.647-0.648-0.954
	c-0.092,0.112-0.19,0.231-0.306,0.368c-0.138,0.161-0.29,0.338-0.455,0.532c-2.386,2.787-5.858,4.117-9.354,4.808
	c-0.087,0.017-0.176,0.027-0.264,0.041c0.223,0.423,0.361,0.896,0.361,1.406c0,1.676-1.363,3.039-3.039,3.039
	s-3.039-1.363-3.039-3.039c0-0.51,0.138-0.984,0.362-1.407c-0.088-0.015-0.177-0.024-0.264-0.041
	c-3.269-0.351-6.377-2.045-8.76-4.257c-0.216-0.2-0.418-0.388-0.604-0.561c-0.163-0.191-0.312-0.366-0.447-0.524
	c-0.028-0.033-0.047-0.057-0.074-0.089c-0.068,0.467-0.196,0.961-0.235,1.231c-0.318,2.175-0.655,4.365-0.564,6.57
	c0.042,1.029,0.171,2.062,0.505,3.04c0.09,0.263,0.192,0.522,0.296,0.781c0.311,0.771,0.643,1.536,0.729,2.372
	c0.251,2.46-1.902,4.663-4.34,4.663c-1.029,0-1.985-0.421-2.795-1.059C9.454,46.335,10.372,50.754,14.067,53.531z M29.079,35.703
	c3.569,0,6.474,2.904,6.474,6.474s-2.904,6.474-6.474,6.474s-6.474-2.904-6.474-6.474S25.51,35.703,29.079,35.703z"/>
<path d="M28.346,41.717c0.151-0.055,0.285-0.147,0.342-0.263c0.021-0.043,0.02-0.097,0.014-0.151
	c-0.01-0.084-0.193-0.016-0.405,0.152C28.085,41.623,28.117,41.8,28.346,41.717z"/>
<path d="M16.224,23.229c0.054,0.127,0.072,0.294,0.065,0.488c0.097,0.065,0.189,0.127,0.302,0.203
	c0.171,0.118,0.361,0.248,0.568,0.39c0.214,0.121,0.445,0.252,0.692,0.392c4.123,2.338,8.69,3.497,13.439,3.007
	c1.364-0.141,2.718-0.435,4.022-0.861c2.216-0.723,4.322-1.621,6.257-2.931c0.15-0.102,0.281-0.189,0.403-0.27
	c-0.559-0.714-1.175-1.383-1.912-1.964c-0.683-0.539-1.383-1.062-1.894-1.776c-1.411-1.972-0.77-4.817,1.136-6.212
	c-0.018-0.039-0.034-0.077-0.052-0.116c-1.222-2.717-2.705-4.299-3.998-4.299c-0.499,0-1.009,0.226-1.516,0.671
	c-1.319,1.157-2.974,1.795-4.657,1.795c-1.683,0-3.337-0.638-4.656-1.795c-0.507-0.445-1.017-0.671-1.516-0.671
	c-1.312,0-2.759,1.542-3.969,4.23c-1.38,3.068-2.65,5.893-2.65,9.484C16.288,23.077,16.263,23.156,16.224,23.229z M22.533,22.764
	c-0.23,0.109-0.542,0.229-0.866,0.294c-0.322,0.071-0.656,0.088-0.911,0.08c-0.255-0.008-0.433-0.053-0.433-0.053
	s0.145-0.113,0.375-0.223c0.23-0.11,0.542-0.229,0.866-0.294c0.322-0.071,0.656-0.086,0.911-0.08
	c0.255,0.008,0.433,0.052,0.433,0.052S22.762,22.654,22.533,22.764z M37.403,23.138c-0.255,0.008-0.588-0.009-0.911-0.08
	c-0.324-0.065-0.636-0.186-0.866-0.294c-0.23-0.11-0.375-0.222-0.375-0.222s0.178-0.044,0.433-0.052
	c0.254-0.007,0.589,0.009,0.911,0.08c0.324,0.065,0.636,0.184,0.866,0.294c0.23,0.11,0.375,0.223,0.375,0.223
	S37.657,23.13,37.403,23.138z M38.432,21.469c0.388,0.06,0.647,0.14,0.647,0.14s-0.259,0.08-0.647,0.14
	c-0.388,0.059-0.905,0.113-1.423,0.11c-0.517,0.003-1.035-0.049-1.423-0.109c-0.388-0.06-0.647-0.141-0.647-0.141
	s0.259-0.081,0.647-0.141c0.388-0.06,0.905-0.112,1.423-0.109C37.527,21.356,38.044,21.41,38.432,21.469z M34.94,20.695
	c0,0,0.157-0.079,0.386-0.15c0.229-0.07,0.528-0.145,0.823-0.191c0.295-0.05,0.591-0.073,0.804-0.113
	c0.104-0.023,0.195-0.041,0.242-0.072c0.057-0.023,0.075-0.086,0.077-0.077c-0.01,0.004,0.033,0.034,0.008,0.124
	c-0.028,0.083-0.091,0.198-0.2,0.275c-0.209,0.171-0.526,0.307-0.85,0.356c-0.323,0.056-0.651,0.029-0.892-0.021
	C35.096,20.778,34.94,20.695,34.94,20.695z M33.473,12.32c0.313-0.556,0.81-1.232,1.488-1.323c0.644-0.086,1.254,0.311,1.647,0.791
	c0.16,0.195,0.682,1.007,0.867,1.504c0.391,1.05-0.611,0.65-1.154,0.386c-0.7-0.34-1.341-0.451-2.091-0.61
	C33.687,12.954,33.232,12.749,33.473,12.32z M32.019,18.365c0.414-0.591,1.032-0.985,1.742-1.11c0.71-0.129,1.425,0.033,2.016,0.446
	c0.17,0.119,0.211,0.353,0.093,0.522c-0.12,0.17-0.354,0.211-0.522,0.093c-0.879-0.618-2.098-0.401-2.713,0.479
	c-0.073,0.104-0.189,0.16-0.308,0.16c-0.074,0-0.149-0.021-0.215-0.067C31.941,18.768,31.9,18.534,32.019,18.365z M27.138,23.118
	c0.497-0.185,0.965-0.454,1.349-0.821c0.408-0.39,0.604-0.833,0.814-1.343c0.012-0.033,0.021-0.053,0.03-0.076
	c-0.456-0.02-0.822-0.413-0.822-0.648c0-0.241,0.383-0.437,0.856-0.437s0.856,0.196,0.856,0.437c0,0.235-0.366,0.628-0.822,0.648
	c0.009,0.023,0.018,0.043,0.03,0.076c0.039,0.094,0.075,0.253,0.152,0.399c0.493,0.933,1.248,1.389,2.167,1.829
	c0,0-0.058,0.016-0.163,0.032c-0.103,0.001-0.266,0.064-0.448,0.026c-0.181-0.035-0.414-0.045-0.625-0.162
	c-0.511-0.284-1.018-0.753-1.147-1.346c0.054,0.246-0.334,0.713-0.483,0.876c-0.362,0.396-0.78,0.535-1.289,0.632
	c-0.183,0.038-0.346-0.025-0.448-0.026c-0.106-0.016-0.163-0.032-0.163-0.032S27.04,23.155,27.138,23.118z M26.124,18.365
	c0.118,0.169,0.077,0.403-0.093,0.522c-0.065,0.045-0.141,0.067-0.215,0.067c-0.118,0-0.234-0.056-0.308-0.16
	c-0.615-0.88-1.831-1.097-2.713-0.479c-0.17,0.116-0.402,0.078-0.522-0.093c-0.118-0.17-0.077-0.403,0.093-0.522
	c0.59-0.414,1.305-0.575,2.016-0.446C25.092,17.379,25.71,17.774,26.124,18.365z M23.218,20.695c0,0-0.156,0.083-0.398,0.131
	c-0.241,0.049-0.569,0.077-0.892,0.021c-0.323-0.049-0.641-0.185-0.85-0.356c-0.109-0.077-0.172-0.192-0.2-0.275
	c-0.026-0.09,0.018-0.12,0.008-0.124c0.003-0.008,0.02,0.054,0.077,0.077c0.047,0.031,0.138,0.049,0.242,0.072
	c0.212,0.04,0.509,0.063,0.804,0.113c0.296,0.046,0.594,0.121,0.823,0.191C23.061,20.617,23.218,20.695,23.218,20.695z
	 M20.684,13.292c0.186-0.497,0.707-1.309,0.867-1.504c0.393-0.48,1.003-0.877,1.647-0.791c0.678,0.091,1.175,0.766,1.488,1.323
	c0.241,0.429-0.214,0.633-0.758,0.748c-0.75,0.159-1.391,0.27-2.091,0.61C21.295,13.943,20.292,14.342,20.684,13.292z
	 M19.726,21.469c0.388-0.059,0.905-0.112,1.423-0.11c0.517-0.003,1.035,0.049,1.423,0.109c0.388,0.06,0.647,0.141,0.647,0.141
	s-0.259,0.08-0.647,0.141c-0.388,0.06-0.905,0.112-1.423,0.109c-0.517,0.003-1.035-0.051-1.423-0.11
	c-0.388-0.06-0.647-0.14-0.647-0.14S19.338,21.529,19.726,21.469z"/>
<path d="M39.769,14.634c-1.383,1.166-1.948,3.152-0.828,4.717c1.128,1.576,2.962,2.526,4.113,4.112
	c1.565,2.156,2.621,4.761,3.518,7.256c0.062,0.171,0.124,0.341,0.183,0.516c0.016,0.047,0.033,0.103,0.056,0.175
	c0.031,0.096,0.103,0.146,0.135,0.087c0.017-0.031,0.034-0.069,0.05-0.11c0.027-0.07,0.055-0.144,0.084-0.224
	c0.029-0.081,0.055-0.153,0.077-0.211c0.328-0.851,0.568-1.858,0.754-3.168c0.108-0.761,0.177-1.528,0.229-2.178
	c0.154-1.91,0.273-4.721-0.471-7.068c-0.419-1.324-1.282-2.666-2.198-3.417C43.875,13.811,41.438,13.239,39.769,14.634z"/>
<path d="M29.079,28.965c-0.64,0-1.204,0.302-1.579,0.765c-0.283,0.35-0.461,0.79-0.461,1.274c0,1.124,0.915,2.039,2.039,2.039
	s2.039-0.915,2.039-2.039c0-0.484-0.177-0.923-0.46-1.273C30.284,29.268,29.719,28.965,29.079,28.965z"/>
<path d="M8.735,38.589c0.103,0.269,0.24,0.535,0.393,0.797c0.121,0.208,0.257,0.409,0.406,0.604
	c0.139,0.182,0.288,0.353,0.448,0.517c0.728,0.744,1.654,1.274,2.661,1.274c0.93,0,1.843-0.422,2.507-1.157
	c0.628-0.695,0.925-1.549,0.838-2.405c-0.064-0.628-0.318-1.254-0.588-1.917l-0.074-0.182c-0.111-0.276-0.22-0.552-0.315-0.832
	c-0.326-0.958-0.504-2.013-0.557-3.322c-0.089-2.169,0.216-4.307,0.519-6.378c0.006-0.042,0.012-0.084,0.018-0.126l0.037-0.252
	c0.019-0.133,0.057-0.314,0.102-0.52c0.007-0.03,0.014-0.065,0.022-0.103c0.012-0.057-0.058-0.046-0.153,0.031
	c-0.057,0.046-0.114,0.094-0.171,0.141c-0.367,0.302-0.724,0.645-1.069,1.017c-0.847,0.913-1.622,1.979-2.275,2.933
	c-1.029,1.505-2.455,3.77-2.948,6.055C8.259,36.046,8.337,37.547,8.735,38.589z"/>
</svg>
